<svg width="20" height="32" viewBox="0 0 20 32" fill="none" xmlns="http://www.w3.org/2000/svg">
<path d="M16.6602 7.33984H5C4.54427 7.33984 4.15365 7.5026 3.82812 7.82812C3.5026 8.15365 3.33984 8.54427 3.33984 9V13.1602H5V10.6602L10.332 14.6641C10.3971 14.7161 10.472 14.7585 10.5566 14.791C10.6413 14.8236 10.7357 14.8398 10.8398 14.8398C10.931 14.8398 11.0189 14.8236 11.1035 14.791C11.1882 14.7585 11.263 14.7161 11.3281 14.6641L16.6602 10.6602V18.1602H10V19.8398H16.6602C17.1289 19.8398 17.526 19.6771 17.8516 19.3516C18.1771 19.026 18.3398 18.6289 18.3398 18.1602V9C18.3398 8.54427 18.1771 8.15365 17.8516 7.82812C17.526 7.5026 17.1289 7.33984 16.6602 7.33984ZM10.8398 12.9648L5.54688 9H16.1133L10.8398 12.9648ZM1.66016 14H7.5V15.6602H1.66016V14ZM3.33984 16.5H8.33984V18.1602H3.33984V16.5ZM5.83984 19H9.16016V20.6602H5.83984V19Z" fill="white" fill-opacity="0.7"/>
</svg>
