<svg width="40" height="40" viewBox="0 0 40 40" fill="none" xmlns="http://www.w3.org/2000/svg">
<path d="M31.201 14.448C31.2011 12.9609 30.9053 11.4885 30.3304 10.117C29.7555 8.74552 28.9134 7.50227 27.853 6.4597C26.7925 5.41714 25.535 4.59619 24.1539 4.04477C22.773 3.49333 21.2958 3.2225 19.809 3.24798C16.9546 3.33286 14.2368 4.48962 12.1968 6.48802C10.1569 8.48643 8.94449 11.1799 8.80095 14.032C8.73273 15.9352 9.15091 17.8243 10.016 19.5209C10.8811 21.2174 12.1645 22.6654 13.7449 23.728C14.1904 24.0176 14.5567 24.4134 14.8109 24.8798C15.065 25.3464 15.1991 25.8688 15.201 26.4V28.848H24.801V26.4C24.801 25.8702 24.9326 25.3488 25.184 24.8824C25.4354 24.416 25.7986 24.0193 26.241 23.728C27.7645 22.7057 29.0138 21.3248 29.8786 19.7067C30.7435 18.0886 31.1976 16.2827 31.201 14.448Z" stroke="#4169E1" stroke-width="1.6" stroke-linecap="round" stroke-linejoin="round"/>
<path d="M24.8 33.6639C23.4152 34.7025 21.7311 35.2639 20 35.2639C18.269 35.2639 16.5848 34.7025 15.2 33.6639" stroke="#4169E1" stroke-width="1.6" stroke-linecap="round" stroke-linejoin="round"/>
<path d="M19.9841 9.02393L17.3281 13.4719C17.2078 13.6669 17.1421 13.8906 17.1377 14.1196C17.1334 14.3487 17.1905 14.5747 17.3033 14.7741C17.4161 14.9735 17.5803 15.139 17.7789 15.2533C17.9774 15.3676 18.203 15.4265 18.4321 15.4239H21.6321C21.8587 15.4231 22.0816 15.4824 22.2779 15.5959C22.4741 15.7094 22.6366 15.8729 22.7489 16.0698C22.8613 16.2668 22.9192 16.49 22.9169 16.7165C22.9147 16.9433 22.8523 17.1652 22.7361 17.3599L20.0481 21.8239" stroke="#4169E1" stroke-width="1.6" stroke-linecap="round" stroke-linejoin="round"/>
</svg>
