<svg width="103" height="115" viewBox="0 0 103 115" fill="none" xmlns="http://www.w3.org/2000/svg">
<path d="M50.6083 66.4199C68.8803 66.4199 83.6927 51.6075 83.6927 33.3354C83.6927 15.0634 68.8803 0.250955 50.6083 0.250955C32.3362 0.250955 17.5238 15.0634 17.5238 33.3354C17.5238 51.6075 32.3362 66.4199 50.6083 66.4199Z" stroke="#4169E1" stroke-width="0.5" stroke-dasharray="4 4"/>
<path d="M34.4811 90.5319L31.2974 78.8184H32.7956L35.4005 88.6247H35.5025L38.3627 78.8184H39.895L42.7722 88.6247H42.8743L45.411 78.8184H46.8751L43.6915 90.5319H41.955L39.1288 81.0489H39.0608L36.2346 90.5319H34.4811ZM51.9831 90.6675C51.2794 90.6675 50.6892 90.6223 50.2125 90.5319C49.7471 90.4406 49.3726 90.293 49.0888 90.0893C48.8051 89.8734 48.5895 89.5954 48.442 89.2541C48.2944 88.9028 48.1979 88.4771 48.1525 87.9772C48.1071 87.4783 48.0844 86.8881 48.0844 86.2075C48.0844 85.4014 48.1184 84.7148 48.1866 84.1466C48.2547 83.5684 48.4078 83.1027 48.6462 82.7514C48.8959 82.388 49.2819 82.127 49.8039 81.9684C50.326 81.7977 51.0297 81.7124 51.915 81.7124C52.5846 81.7124 53.1294 81.7636 53.5494 81.866C53.9806 81.9684 54.3211 82.127 54.5709 82.3428C54.8205 82.5586 55.0021 82.8477 55.1157 83.2111C55.2405 83.5624 55.3199 83.988 55.354 84.4879C55.3881 84.9758 55.4051 85.543 55.4051 86.1904V86.6502H49.4635C49.4635 87.2404 49.4918 87.7222 49.5486 88.0967C49.6053 88.4711 49.7188 88.7612 49.8891 88.965C50.0707 89.1698 50.3487 89.3113 50.7232 89.3906C51.1091 89.4699 51.6312 89.5101 52.2895 89.5101C52.5619 89.5101 52.8627 89.504 53.1918 89.493C53.521 89.4699 53.8501 89.4418 54.1793 89.4077C54.5084 89.3735 54.8036 89.3394 55.0646 89.3053V90.4295C54.8262 90.4747 54.5311 90.5149 54.1793 90.548C53.8388 90.5821 53.4756 90.6112 53.0897 90.6333C52.7151 90.6564 52.3463 90.6675 51.9831 90.6675ZM54.0601 85.9515V85.4918C54.0601 84.9015 54.0261 84.4368 53.9579 84.0965C53.8899 83.7441 53.7707 83.4831 53.6005 83.3125C53.4416 83.1318 53.2202 83.0124 52.9365 82.9551C52.6527 82.8989 52.3008 82.8698 51.8809 82.8698C51.3362 82.8698 50.9048 82.91 50.587 82.9893C50.2692 83.0575 50.0309 83.188 49.872 83.3807C49.7131 83.5745 49.6053 83.8525 49.5486 84.2149C49.4918 84.5783 49.4635 85.0611 49.4635 85.6624H54.3836L54.0601 85.9515ZM62.2251 90.6675C61.8279 90.6675 61.4419 90.6333 61.0674 90.5651C60.6929 90.5089 60.358 90.3844 60.063 90.1906C59.7678 89.9869 59.5352 89.6857 59.3649 89.2882H59.2628L59.2117 90.5319H57.9518V77.8818H59.3479V82.9551H59.4331C59.5919 82.6379 59.8019 82.388 60.063 82.2063C60.3353 82.0246 60.6531 81.9001 61.0163 81.8318C61.3795 81.7525 61.7937 81.7124 62.2591 81.7124C62.8834 81.7124 63.3998 81.7867 63.8084 81.9342C64.217 82.0697 64.5405 82.3026 64.7788 82.6319C65.0171 82.9611 65.1817 83.4149 65.2725 83.9941C65.3747 84.5723 65.4258 85.3051 65.4258 86.1904C65.4258 87.0758 65.3747 87.8076 65.2725 88.3868C65.1704 88.965 65.0001 89.4187 64.7617 89.748C64.5234 90.0772 64.1943 90.3161 63.7744 90.4637C63.3657 90.5992 62.8494 90.6675 62.2251 90.6675ZM61.6803 89.4418C62.2024 89.4418 62.6167 89.4077 62.9231 89.3394C63.2409 89.2601 63.4793 89.1125 63.6382 88.8967C63.7971 88.6819 63.9049 88.3577 63.9616 87.927C64.0184 87.4954 64.0467 86.9162 64.0467 86.1904C64.0467 85.4637 64.0184 84.8905 63.9616 84.4709C63.9049 84.0392 63.7971 83.716 63.6382 83.5002C63.4793 83.2733 63.2409 83.1258 62.9231 83.0575C62.6167 82.9893 62.2024 82.9551 61.6803 82.9551C61.1241 82.9551 60.6815 83.0294 60.3524 83.177C60.0232 83.3125 59.7905 83.5343 59.6543 83.8405C59.5182 84.1356 59.4331 84.4759 59.3989 84.8624C59.3649 85.2368 59.3479 85.6795 59.3479 86.1904C59.3479 86.6893 59.3593 87.132 59.382 87.5185C59.416 87.8929 59.5011 88.2272 59.6374 88.5223C59.7849 88.8405 60.0232 89.0734 60.3524 89.2209C60.6815 89.3685 61.1241 89.4418 61.6803 89.4418ZM0 111.612V99.8986H3.71142C4.67619 99.8986 5.46499 99.9437 6.07792 100.035C6.69075 100.125 7.17318 100.29 7.52502 100.529C7.8882 100.767 8.15492 101.107 8.32517 101.55C8.49541 101.993 8.60322 102.555 8.6486 103.235C8.69407 103.917 8.71676 104.756 8.71676 105.755C8.71676 106.754 8.69407 107.594 8.6486 108.274C8.60322 108.956 8.49541 109.517 8.32517 109.96C8.15492 110.403 7.8882 110.744 7.52502 110.982C7.17318 111.22 6.69075 111.384 6.07792 111.476C5.46499 111.566 4.67619 111.612 3.71142 111.612H0ZM1.46417 110.351H3.47311C4.18813 110.351 4.77838 110.334 5.24365 110.301C5.70902 110.267 6.07792 110.182 6.35025 110.045C6.62269 109.898 6.82135 109.665 6.94612 109.348C7.071 109.018 7.1505 108.565 7.18453 107.985C7.2299 107.406 7.25259 106.663 7.25259 105.755C7.25259 104.847 7.2299 104.11 7.18453 103.541C7.1505 102.963 7.06538 102.509 6.92916 102.18C6.80428 101.851 6.60563 101.618 6.33329 101.482C6.06085 101.334 5.69195 101.244 5.22668 101.21C4.77265 101.175 4.18813 101.158 3.47311 101.158H1.46417V110.351ZM15.0406 111.748C14.3369 111.748 13.7468 111.702 13.2701 111.612C12.8047 111.521 12.4302 111.373 12.1464 111.169C11.8627 110.954 11.647 110.676 11.4994 110.334C11.352 109.983 11.2555 109.557 11.21 109.057C11.1647 108.559 11.142 107.968 11.142 107.288C11.142 106.482 11.176 105.795 11.2441 105.227C11.3122 104.649 11.4654 104.183 11.7038 103.832C11.9535 103.468 12.3393 103.207 12.8614 103.049C13.3836 102.878 14.0873 102.793 14.9726 102.793C15.6422 102.793 16.187 102.844 16.607 102.946C17.0382 103.049 17.3787 103.207 17.6285 103.423C17.8781 103.639 18.0597 103.928 18.1732 104.291C18.298 104.643 18.3775 105.068 18.4115 105.568C18.4456 106.056 18.4626 106.623 18.4626 107.271V107.73H12.5209C12.5209 108.321 12.5493 108.802 12.606 109.177C12.6629 109.551 12.7763 109.841 12.9465 110.045C13.1282 110.25 13.4063 110.391 13.7808 110.471C14.1667 110.55 14.6888 110.59 15.3471 110.59C15.6195 110.59 15.9203 110.584 16.2494 110.573C16.5786 110.55 16.9077 110.522 17.2369 110.488C17.566 110.454 17.861 110.42 18.1221 110.385V111.51C17.8838 111.555 17.5887 111.595 17.2369 111.628C16.8964 111.662 16.5332 111.691 16.1472 111.714C15.7727 111.737 15.4038 111.748 15.0406 111.748ZM17.1177 107.032V106.572C17.1177 105.982 17.0836 105.517 17.0155 105.177C16.9475 104.824 16.8282 104.563 16.658 104.393C16.4991 104.212 16.2778 104.093 15.994 104.035C15.7103 103.979 15.3584 103.95 14.9385 103.95C14.3936 103.95 13.9624 103.99 13.6446 104.069C13.3268 104.138 13.0885 104.268 12.9296 104.461C12.7707 104.655 12.6629 104.933 12.606 105.295C12.5493 105.658 12.5209 106.141 12.5209 106.743H17.4411L17.1177 107.032ZM23.1886 111.612L20.005 102.929H21.4521L24.0058 110.165H24.142L26.6787 102.929H28.1087L24.9251 111.612H23.1886ZM33.4121 111.748C32.7084 111.748 32.1183 111.702 31.6416 111.612C31.1762 111.521 30.8017 111.373 30.5179 111.169C30.2341 110.954 30.0185 110.676 29.8709 110.334C29.7234 109.983 29.6269 109.557 29.5815 109.057C29.5361 108.559 29.5135 107.968 29.5135 107.288C29.5135 106.482 29.5475 105.795 29.6156 105.227C29.6837 104.649 29.8369 104.183 30.0753 103.832C30.3249 103.468 30.7108 103.207 31.2329 103.049C31.755 102.878 32.4588 102.793 33.344 102.793C34.0137 102.793 34.5585 102.844 34.9784 102.946C35.4097 103.049 35.7502 103.207 35.9998 103.423C36.2496 103.639 36.4312 103.928 36.5447 104.291C36.6695 104.643 36.749 105.068 36.783 105.568C36.817 106.056 36.8341 106.623 36.8341 107.271V107.73H30.8924C30.8924 108.321 30.9208 108.802 30.9775 109.177C31.0343 109.551 31.1478 109.841 31.318 110.045C31.4996 110.25 31.7778 110.391 32.1523 110.471C32.5382 110.55 33.0603 110.59 33.7186 110.59C33.991 110.59 34.2917 110.584 34.6209 110.573C34.95 110.55 35.2792 110.522 35.6083 110.488C35.9375 110.454 36.2325 110.42 36.4936 110.385V111.51C36.2552 111.555 35.9602 111.595 35.6083 111.628C35.2679 111.662 34.9046 111.691 34.5187 111.714C34.1442 111.737 33.7753 111.748 33.4121 111.748ZM35.4891 107.032V106.572C35.4891 105.982 35.4551 105.517 35.387 105.177C35.3188 104.824 35.1997 104.563 35.0294 104.393C34.8705 104.212 34.6492 104.093 34.3655 104.035C34.0817 103.979 33.7299 103.95 33.31 103.95C32.7651 103.95 32.3339 103.99 32.0161 104.069C31.6983 104.138 31.46 104.268 31.3011 104.461C31.1422 104.655 31.0343 104.933 30.9775 105.295C30.9208 105.658 30.8924 106.141 30.8924 106.743H35.8126L35.4891 107.032ZM39.3809 111.612V98.962H40.7769V111.612H39.3809ZM47.1426 111.748C46.4276 111.748 45.8317 111.702 45.355 111.612C44.8897 111.532 44.5207 111.396 44.2484 111.203C43.976 111.01 43.7717 110.744 43.6355 110.403C43.5106 110.062 43.4312 109.637 43.3972 109.126C43.363 108.604 43.3461 107.985 43.3461 107.271C43.3461 106.555 43.363 105.943 43.3972 105.432C43.4312 104.91 43.5106 104.478 43.6355 104.138C43.7717 103.797 43.976 103.53 44.2484 103.338C44.5207 103.145 44.8897 103.008 45.355 102.929C45.8317 102.838 46.4276 102.793 47.1426 102.793C47.869 102.793 48.4648 102.838 48.9302 102.929C49.3955 103.008 49.7644 103.145 50.0368 103.338C50.3205 103.53 50.5249 103.797 50.6497 104.138C50.7859 104.478 50.871 104.91 50.905 105.432C50.9392 105.943 50.9561 106.555 50.9561 107.271C50.9561 107.985 50.9392 108.604 50.905 109.126C50.871 109.637 50.7859 110.062 50.6497 110.403C50.5249 110.744 50.3205 111.01 50.0368 111.203C49.7644 111.396 49.3955 111.532 48.9302 111.612C48.4648 111.702 47.869 111.748 47.1426 111.748ZM47.1426 110.573C47.7555 110.573 48.2265 110.533 48.5557 110.454C48.8847 110.374 49.1174 110.221 49.2537 109.994C49.4012 109.767 49.4863 109.438 49.509 109.007C49.5431 108.565 49.5601 107.985 49.5601 107.271C49.5601 106.555 49.5431 105.982 49.509 105.551C49.4863 105.108 49.4012 104.773 49.2537 104.546C49.1174 104.319 48.8847 104.166 48.5557 104.087C48.2265 104.007 47.7555 103.967 47.1426 103.967C46.541 103.967 46.07 104.007 45.7295 104.087C45.4004 104.166 45.1677 104.319 45.0315 104.546C44.8953 104.773 44.8102 105.108 44.7761 105.551C44.7421 105.982 44.725 106.555 44.725 107.271C44.725 107.985 44.7421 108.565 44.7761 109.007C44.8102 109.438 44.8953 109.767 45.0315 109.994C45.1677 110.221 45.4004 110.374 45.7295 110.454C46.07 110.533 46.541 110.573 47.1426 110.573ZM53.5294 115V102.929H54.7892L54.8403 104.172H54.9425C55.1127 103.786 55.3454 103.491 55.6404 103.286C55.9356 103.083 56.2704 102.952 56.645 102.895C57.0195 102.827 57.4054 102.793 57.8027 102.793C58.4268 102.793 58.9433 102.861 59.3519 102.997C59.7719 103.133 60.101 103.372 60.3393 103.712C60.5776 104.041 60.7479 104.495 60.8501 105.074C60.9523 105.652 61.0032 106.379 61.0032 107.254C61.0032 108.139 60.9523 108.877 60.8501 109.467C60.7593 110.045 60.5947 110.499 60.3564 110.828C60.118 111.157 59.7945 111.396 59.3859 111.544C58.9773 111.679 58.461 111.748 57.8367 111.748C57.3713 111.748 56.9571 111.709 56.5939 111.628C56.2307 111.561 55.9129 111.435 55.6404 111.254C55.3795 111.072 55.1694 110.823 55.0105 110.505H54.9254V115H53.5294ZM57.2578 110.505C57.78 110.505 58.1942 110.471 58.5006 110.403C58.8184 110.334 59.0568 110.193 59.2156 109.977C59.3745 109.75 59.4825 109.427 59.5392 109.007C59.5959 108.576 59.6243 107.996 59.6243 107.271C59.6243 106.544 59.5959 105.965 59.5392 105.534C59.4825 105.102 59.3745 104.779 59.2156 104.563C59.0568 104.347 58.8184 104.206 58.5006 104.138C58.1942 104.058 57.78 104.018 57.2578 104.018C56.679 104.018 56.2193 104.104 55.8789 104.274C55.5497 104.433 55.3113 104.688 55.1638 105.04C55.0503 105.312 54.9822 105.636 54.9595 106.011C54.9368 106.385 54.9254 106.805 54.9254 107.271C54.9254 107.747 54.9368 108.167 54.9595 108.53C54.9822 108.882 55.039 109.177 55.1297 109.416C55.2886 109.812 55.5384 110.096 55.8789 110.267C56.2193 110.426 56.679 110.505 57.2578 110.505ZM63.5714 111.612V102.929H64.8312L64.8823 104.172H64.9844C65.0866 103.9 65.2398 103.661 65.4441 103.457C65.6598 103.252 65.9378 103.094 66.2783 102.98C66.6302 102.855 67.0784 102.793 67.6232 102.793C68.3951 102.793 68.9682 102.906 69.3428 103.133C69.7173 103.349 69.9784 103.695 70.126 104.172H70.228C70.3416 103.9 70.5061 103.661 70.7218 103.457C70.9374 103.252 71.2268 103.094 71.59 102.98C71.9532 102.855 72.4016 102.793 72.935 102.793C73.7181 102.793 74.3026 102.912 74.6886 103.15C75.0745 103.389 75.3298 103.757 75.4547 104.257C75.5795 104.756 75.6419 105.397 75.6419 106.18V111.612H74.263V106.657C74.263 106.067 74.2402 105.602 74.1948 105.261C74.1495 104.91 74.0643 104.649 73.9395 104.478C73.8146 104.296 73.6274 104.178 73.3776 104.121C73.128 104.064 72.7931 104.035 72.3732 104.035C71.8851 104.035 71.4993 104.104 71.2155 104.24C70.9317 104.365 70.7218 104.557 70.5856 104.818C70.4607 105.08 70.3813 105.404 70.3472 105.789C70.3132 106.175 70.2962 106.623 70.2962 107.134V111.612H68.9171V106.657C68.9171 106.067 68.8945 105.602 68.8491 105.261C68.8036 104.91 68.7185 104.649 68.5937 104.478C68.4688 104.296 68.2815 104.178 68.0319 104.121C67.7821 104.064 67.4474 104.035 67.0274 104.035C66.5394 104.035 66.1534 104.11 65.8698 104.257C65.586 104.393 65.3817 104.591 65.2568 104.852C65.132 105.113 65.0525 105.438 65.0185 105.823C64.9844 106.21 64.9674 106.646 64.9674 107.134V111.612H63.5714ZM82.1257 111.748C81.422 111.748 80.8318 111.702 80.355 111.612C79.8892 111.521 79.5148 111.373 79.2317 111.169C78.9476 110.954 78.732 110.676 78.5844 110.334C78.4369 109.983 78.3404 109.557 78.295 109.057C78.2496 108.559 78.227 107.968 78.227 107.288C78.227 106.482 78.261 105.795 78.329 105.227C78.3972 104.649 78.5504 104.183 78.7887 103.832C79.0379 103.468 79.4244 103.207 79.9464 103.049C80.4684 102.878 81.1721 102.793 82.0574 102.793C82.727 102.793 83.2721 102.844 83.6917 102.946C84.1233 103.049 84.4636 103.207 84.7135 103.423C84.9635 103.639 85.1442 103.928 85.2586 104.291C85.3831 104.643 85.4624 105.068 85.4965 105.568C85.5306 106.056 85.5477 106.623 85.5477 107.271V107.73H79.6061C79.6061 108.321 79.6342 108.802 79.6914 109.177C79.7477 109.551 79.8611 109.841 80.0317 110.045C80.2134 110.25 80.4915 110.391 80.8659 110.471C81.2514 110.55 81.7734 110.59 82.4319 110.59C82.7049 110.59 83.005 110.584 83.3343 110.573C83.6635 110.55 83.9928 110.522 84.322 110.488C84.6513 110.454 84.9464 110.42 85.2074 110.385V111.51C84.9685 111.555 84.6734 111.595 84.322 111.628C83.9818 111.662 83.6184 111.691 83.2319 111.714C82.8575 111.737 82.4891 111.748 82.1257 111.748ZM84.2026 107.032V106.572C84.2026 105.982 84.1685 105.517 84.1002 105.177C84.0319 104.824 83.9135 104.563 83.7428 104.393C83.5842 104.212 83.3624 104.093 83.0793 104.035C82.7952 103.979 82.4429 103.95 82.0233 103.95C81.4782 103.95 81.0476 103.99 80.7294 104.069C80.4122 104.138 80.1733 104.268 80.0147 104.461C79.8561 104.655 79.7477 104.933 79.6914 105.295C79.6342 105.658 79.6061 106.141 79.6061 106.743H84.5258L84.2026 107.032ZM88.0944 111.612V102.929H89.3542L89.4054 104.172H89.5078C89.6322 103.9 89.8029 103.661 90.0177 103.457C90.2456 103.252 90.5457 103.094 90.9201 102.98C91.3066 102.855 91.7945 102.793 92.3847 102.793C93.0312 102.793 93.5481 102.861 93.9336 102.997C94.3201 103.133 94.6152 103.338 94.819 103.61C95.0348 103.883 95.1763 104.234 95.2446 104.666C95.3128 105.085 95.347 105.59 95.347 106.18V111.612H93.9677V106.657C93.9677 106.067 93.9396 105.602 93.8824 105.261C93.8372 104.91 93.7409 104.649 93.5933 104.478C93.4458 104.296 93.2299 104.178 92.9468 104.121C92.6628 104.064 92.2883 104.035 91.8226 104.035C91.2665 104.035 90.8298 104.11 90.5116 104.257C90.1944 104.393 89.9615 104.597 89.8139 104.869C89.6664 105.13 89.576 105.455 89.5419 105.84C89.5078 106.215 89.4907 106.646 89.4907 107.134V111.612H88.0944ZM99.0179 111.612V104.104H97.2643V102.929H99.0179V100.41H100.397V102.929H102.474V104.104H100.397V111.612H99.0179Z" fill="#CCCCCC"/>
<path d="M50.9124 50.2065C48.5905 50.2065 46.4034 49.7619 44.3508 48.8745C42.2983 47.9861 40.5107 46.7805 38.9881 45.2577C37.4655 43.7349 36.26 41.9471 35.3717 39.8953C34.4836 37.8425 34.0396 35.6552 34.0396 33.3334C34.0396 31.0045 34.4836 28.8152 35.3717 26.7664C36.26 24.7176 37.4655 22.9318 38.9881 21.409C40.5107 19.8862 42.2983 18.6806 44.3508 17.7923C46.4034 16.9049 48.5905 16.4602 50.9124 16.4602C53.2415 16.4602 55.4306 16.9049 57.4797 17.7923C59.5285 18.6806 61.3142 19.8862 62.8368 21.409C64.3594 22.9318 65.5649 24.7176 66.4531 26.7664C67.3412 28.8152 67.7852 31.0045 67.7852 33.3334C67.7852 35.6552 67.3412 37.8425 66.4531 39.8953C65.5649 41.9471 64.3594 43.7349 62.8368 45.2577C61.3142 46.7805 59.5285 47.9861 57.4797 48.8745C55.4306 49.7619 53.2415 50.2065 50.9124 50.2065ZM50.9124 48.3455C52.0132 46.9331 52.9206 45.5448 53.6346 44.1816C54.3482 42.8195 54.9286 41.2936 55.3757 39.6072H46.4491C46.9443 41.39 47.5368 42.963 48.2264 44.3262C48.9162 45.6884 49.8116 47.0284 50.9124 48.3455ZM48.5258 48.0644C47.651 47.0335 46.8524 45.7586 46.1299 44.2409C45.4078 42.7231 44.8701 41.1782 44.5167 39.6072H37.3274C38.402 41.9381 39.9252 43.8504 41.8972 45.343C43.8694 46.8347 46.079 47.7422 48.5258 48.0644ZM53.299 48.0644C55.7458 47.7422 57.9554 46.8347 59.9276 45.343C61.8995 43.8504 63.4228 41.9381 64.4973 39.6072H57.3081C56.8347 41.2023 56.2369 42.7592 55.5144 44.277C54.7924 45.7948 54.0539 47.0576 53.299 48.0644ZM36.5635 37.7321H44.1272C43.9854 36.9632 43.8851 36.2133 43.8264 35.4835C43.7672 34.7548 43.7377 34.038 43.7377 33.3334C43.7377 32.6287 43.7672 31.912 43.8264 31.1832C43.8851 30.4534 43.9854 29.7036 44.1272 28.9346H36.5635C36.3592 29.5841 36.1999 30.2908 36.0854 31.0567C35.9714 31.8216 35.9144 32.5805 35.9144 33.3334C35.9144 34.0862 35.9714 34.8451 36.0854 35.61C36.1999 36.3759 36.3592 37.0826 36.5635 37.7321ZM46.0019 37.7321H55.8229C55.9647 36.9632 56.065 36.2254 56.1237 35.5197C56.1828 34.815 56.2124 34.0862 56.2124 33.3334C56.2124 32.5805 56.1828 31.8517 56.1237 31.147C56.065 30.4414 55.9647 29.7036 55.8229 28.9346H46.0019C45.8601 29.7036 45.7598 30.4414 45.7011 31.147C45.642 31.8517 45.6125 32.5805 45.6125 33.3334C45.6125 34.0862 45.642 34.815 45.7011 35.5197C45.7598 36.2254 45.8601 36.9632 46.0019 37.7321ZM57.6976 37.7321H65.2613C65.4657 37.0826 65.625 36.3759 65.7393 35.61C65.8535 34.8451 65.9105 34.0862 65.9105 33.3334C65.9105 32.5805 65.8535 31.8216 65.7393 31.0567C65.625 30.2908 65.4657 29.5841 65.2613 28.9346H57.6976C57.8395 29.7036 57.9397 30.4534 57.9985 31.1832C58.0576 31.912 58.0871 32.6287 58.0871 33.3334C58.0871 34.038 58.0576 34.7548 57.9985 35.4835C57.9397 36.2133 57.8395 36.9632 57.6976 37.7321ZM57.3081 27.0605H64.4973C63.3987 24.6805 61.8935 22.7692 59.9815 21.3247C58.0696 19.8802 55.8421 18.9607 53.299 18.5662C54.1738 19.7176 54.9605 21.0336 55.6588 22.5152C56.3571 23.9978 56.9069 25.5126 57.3081 27.0605ZM46.4491 27.0605H55.3757C54.8805 25.3008 54.27 23.7098 53.5441 22.2874C52.8183 20.8639 51.941 19.5419 50.9124 18.3213C49.8838 19.5419 49.0066 20.8639 48.2807 22.2874C47.5549 23.7098 46.9443 25.3008 46.4491 27.0605ZM37.3274 27.0605H44.5167C44.9179 25.5126 45.4677 23.9978 46.166 22.5152C46.8643 21.0336 47.651 19.7176 48.5258 18.5662C45.9587 18.9607 43.7253 19.8852 41.8255 21.3417C39.9254 22.7983 38.4261 24.7046 37.3274 27.0605Z" fill="#4169E1"/>
</svg>
