<svg width="60" height="60" viewBox="0 0 60 60" fill="none" xmlns="http://www.w3.org/2000/svg">
<path d="M22.875 28.15H10.375C9.0974 28.1435 7.87397 27.633 6.97052 26.7295C6.06707 25.8262 5.55662 24.6027 5.55005 23.325V10.825C5.55662 9.54738 6.06707 8.32393 6.97052 7.42048C7.87397 6.51703 9.0974 6.00658 10.375 6H22.875C24.1527 6.00658 25.376 6.51703 26.2795 7.42048C27.183 8.32393 27.6935 9.54738 27.7 10.825V23.325C27.6935 24.6027 27.183 25.8262 26.2795 26.7295C25.376 27.633 24.1527 28.1435 22.875 28.15ZM10.375 9.75C10.0919 9.75638 9.8222 9.87168 9.62195 10.0719C9.42172 10.2722 9.30642 10.5419 9.30005 10.825V23.325C9.30005 23.6101 9.4133 23.8836 9.61492 24.0852C9.81652 24.2868 10.0899 24.4 10.375 24.4H22.875C23.1601 24.4 23.4336 24.2868 23.6352 24.0852C23.8368 23.8836 23.95 23.6101 23.95 23.325V10.825C23.95 10.5399 23.8368 10.2665 23.6352 10.0649C23.4336 9.86328 23.1601 9.75 22.875 9.75H10.375Z" fill="#4169E1"/>
<path d="M49.625 28.15H37.125C35.8475 28.1435 34.624 27.633 33.7205 26.7295C32.817 25.8262 32.3065 24.6027 32.3 23.325V10.825C32.3065 9.54738 32.817 8.32393 33.7205 7.42048C34.624 6.51703 35.8475 6.00658 37.125 6H49.625C50.9028 6.00658 52.126 6.51703 53.0295 7.42048C53.933 8.32393 54.4436 9.54738 54.4501 10.825V23.325C54.4436 24.6027 53.933 25.8262 53.0295 26.7295C52.126 27.633 50.9028 28.1435 49.625 28.15ZM37.125 9.75C36.84 9.75 36.5665 9.86328 36.365 10.0649C36.1633 10.2665 36.05 10.5399 36.05 10.825V23.325C36.05 23.6101 36.1633 23.8836 36.365 24.0852C36.5665 24.2868 36.84 24.4 37.125 24.4H49.625C49.9103 24.4 50.1835 24.2868 50.3853 24.0852C50.5868 23.8836 50.7001 23.6101 50.7001 23.325V10.825C50.7001 10.5399 50.5868 10.2665 50.3853 10.0649C50.1835 9.86328 49.9103 9.75 49.625 9.75H37.125Z" fill="#4169E1"/>
<path d="M22.875 54.0001H10.375C9.0974 53.9933 7.87397 53.4828 6.97052 52.5796C6.06707 51.6761 5.55662 50.4526 5.55005 49.1751V36.6751C5.55662 35.3973 6.06707 34.1738 6.97052 33.2703C7.87397 32.3671 9.0974 31.8566 10.375 31.8501H22.875C24.1527 31.8566 25.376 32.3671 26.2795 33.2703C27.183 34.1738 27.6935 35.3973 27.7 36.6751V49.1751C27.6935 50.4526 27.183 51.6761 26.2795 52.5796C25.376 53.4828 24.1527 53.9933 22.875 54.0001ZM10.375 35.6001C10.0899 35.6001 9.81652 35.7133 9.61492 35.9148C9.4133 36.1163 9.30005 36.3898 9.30005 36.6751V49.1751C9.30642 49.4581 9.42172 49.7278 9.62195 49.9281C9.8222 50.1283 10.0919 50.2436 10.375 50.2501H22.875C23.1601 50.2501 23.4336 50.1366 23.6352 49.9351C23.8368 49.7336 23.95 49.4601 23.95 49.1751V36.6751C23.95 36.3898 23.8368 36.1163 23.6352 35.9148C23.4336 35.7133 23.1601 35.6001 22.875 35.6001H10.375Z" fill="#4169E1"/>
<path d="M49.625 54.0001H37.125C35.8475 53.9933 34.624 53.4828 33.7205 52.5796C32.817 51.6761 32.3065 50.4526 32.3 49.1751V36.6751C32.3065 35.3973 32.817 34.1738 33.7205 33.2703C34.624 32.3671 35.8475 31.8566 37.125 31.8501H49.625C50.9028 31.8566 52.126 32.3671 53.0295 33.2703C53.933 34.1738 54.4436 35.3973 54.4501 36.6751V49.1751C54.4436 50.4526 53.933 51.6761 53.0295 52.5796C52.126 53.4828 50.9028 53.9933 49.625 54.0001ZM37.125 35.6001C36.84 35.6001 36.5665 35.7133 36.365 35.9148C36.1633 36.1163 36.05 36.3898 36.05 36.6751V49.1751C36.05 49.4601 36.1633 49.7336 36.365 49.9351C36.5665 50.1366 36.84 50.2501 37.125 50.2501H49.625C49.9103 50.2501 50.1835 50.1366 50.3853 49.9351C50.5868 49.7336 50.7001 49.4601 50.7001 49.1751V36.6751C50.7001 36.3898 50.5868 36.1163 50.3853 35.9148C50.1835 35.7133 49.9103 35.6001 49.625 35.6001H37.125Z" fill="#4169E1"/>
</svg>
