<svg width="60" height="62" viewBox="0 0 60 62" fill="none" xmlns="http://www.w3.org/2000/svg">
<path d="M43.4083 52.3706C43.1718 52.275 42.9153 52.2197 42.6437 52.2197C42.372 52.2197 42.1155 52.275 41.879 52.3706C41.6426 52.4712 41.4263 52.6121 41.2503 52.7931L41.2352 52.8032C41.1346 52.9038 41.039 53.0195 40.9635 53.1453C40.9233 53.2107 40.883 53.2811 40.8478 53.3565H37.6737V50.5999C37.1858 50.8263 36.6777 50.9973 36.1596 51.103C36.069 51.1231 35.9835 51.1382 35.893 51.1533V54.2419C35.893 54.4884 35.9936 54.7097 36.1546 54.8707C36.3155 55.0316 36.5369 55.1322 36.7833 55.1322H40.878C40.9082 55.1926 40.9434 55.253 40.9837 55.3133C41.0541 55.419 41.1346 55.5196 41.2251 55.6101L41.2402 55.6252C41.4213 55.8063 41.6426 55.9572 41.8891 56.0578C42.1255 56.1534 42.3821 56.2087 42.6537 56.2087C42.9153 56.2087 43.1718 56.1584 43.4032 56.0629L43.4183 56.0578C43.6648 55.9572 43.8811 55.8063 44.0672 55.6252C44.2483 55.4441 44.3992 55.2228 44.4998 54.9763C44.5954 54.7399 44.6508 54.4833 44.6508 54.2117C44.6508 53.9451 44.5954 53.6885 44.4998 53.4471C44.3992 53.2006 44.2483 52.9793 44.0672 52.7982C43.8761 52.6221 43.6548 52.4712 43.4083 52.3706ZM28.8958 33.5069H25.1734L24.6402 35.2575H21.29L25.2891 24.6334H28.8807L32.8647 35.2575H29.429L28.8958 33.5069ZM28.2016 31.203L27.0396 27.385L25.8726 31.203H28.2016ZM33.7903 24.6284H37.0852V35.2524H33.7903V24.6284ZM31.2802 13.7378C30.7369 14.1302 30.2339 14.6583 29.7962 15.3425C29.7761 15.3777 29.7459 15.4079 29.7107 15.428C29.5749 15.5135 29.3938 15.4732 29.3083 15.3425C28.8707 14.6583 28.3676 14.1302 27.8244 13.7378C27.2408 13.3152 26.612 13.0486 25.9631 12.9178H25.9531C25.3193 12.7871 24.6703 12.7871 24.0466 12.8977C23.3876 13.0134 22.7488 13.2549 22.1753 13.5869C21.6069 13.9189 21.0938 14.3465 20.6662 14.8394C20.2537 15.3173 19.9217 15.8656 19.7054 16.4542C19.6702 16.5447 19.64 16.6403 19.6098 16.7409C19.5847 16.8314 19.5545 16.932 19.5344 17.0326C19.5092 17.1634 19.3986 17.259 19.2577 17.264C18.5837 17.3646 17.9146 17.6111 17.2909 17.9783C16.6571 18.3556 16.0685 18.8687 15.5604 19.4824C15.0574 20.0961 14.6349 20.8205 14.333 21.6253C14.0514 22.3799 13.8803 23.2099 13.8451 24.0902C13.8401 24.2059 13.8401 24.3165 13.8401 24.4322C13.8401 24.5379 13.8451 24.6485 13.8451 24.7642C13.8501 24.8598 13.8099 24.9604 13.7244 25.0208C13.3119 25.3176 12.9397 25.6244 12.6077 25.9413C12.2706 26.2683 11.9738 26.6053 11.7173 26.9524C11.2998 27.5209 10.9929 28.1144 10.7867 28.713C10.5704 29.3368 10.4647 29.9756 10.4547 30.6044C10.4496 31.2081 10.5301 31.8067 10.7012 32.3852C10.8722 32.9737 11.1338 33.5472 11.4708 34.0804C11.662 34.3872 11.8783 34.689 12.1147 34.9707C12.3561 35.2575 12.6177 35.5291 12.8994 35.7857C12.9698 35.8511 13.0101 35.9567 12.99 36.0573C12.9095 36.4396 12.8692 36.8169 12.8541 37.1891C12.8441 37.5714 12.8642 37.9487 12.9145 38.3159C13.0101 38.99 13.2063 39.6338 13.4829 40.2274C13.7747 40.8612 14.157 41.4397 14.5997 41.9478C15.0272 42.4458 15.5152 42.8784 16.0383 43.2355C16.5665 43.5977 17.1249 43.8794 17.6983 44.0756C17.9549 44.1611 18.2165 44.2316 18.4831 44.2819C18.7346 44.3322 18.9861 44.3623 19.2326 44.3724C19.3684 44.3674 19.4942 44.4629 19.5243 44.6038C19.6551 45.2024 19.8966 45.7658 20.2286 46.2739C20.5757 46.8071 21.0133 47.2799 21.5163 47.6723C22.1502 48.1653 22.8946 48.5375 23.6794 48.7337C24.4188 48.9198 25.1985 48.955 25.9631 48.794C26.6473 48.6532 27.3113 48.3614 27.925 47.8987C28.4884 47.4711 29.0115 46.8976 29.4491 46.1531C29.4743 46.1079 29.5145 46.0727 29.5648 46.0475C29.7057 45.972 29.8818 46.0274 29.9572 46.1682C30.3194 46.8423 30.7621 47.3805 31.255 47.788C31.7882 48.2256 32.3768 48.5224 32.9955 48.6934C33.7853 48.9097 34.6102 48.9097 35.4101 48.7437C36.2652 48.5677 37.0902 48.1954 37.7995 47.6824C38.3578 47.285 38.8508 46.797 39.2432 46.2437C39.6154 45.7256 39.8921 45.1471 40.053 44.5384C40.0732 44.4227 40.1637 44.3221 40.2895 44.302C41.0289 44.1712 41.7583 43.8643 42.4274 43.4066C43.0964 42.9488 43.7051 42.3452 44.2031 41.6259C44.6608 40.9618 45.028 40.1972 45.2645 39.3622C45.4858 38.5825 45.5914 37.7374 45.5562 36.8471C45.5462 36.7464 45.5914 36.6458 45.682 36.5855C46.1146 36.2887 46.4969 35.9768 46.8389 35.6599C47.186 35.3279 47.4929 34.9858 47.7545 34.6287C48.1569 34.0854 48.4537 33.522 48.6599 32.9435C48.8712 32.3449 48.9819 31.7363 49.002 31.1276C49.0171 30.539 48.9466 29.9555 48.7957 29.3821C48.6448 28.8036 48.4084 28.2452 48.1016 27.717L48.0915 27.707C47.8903 27.3599 47.6539 27.0279 47.3923 26.7059C47.1307 26.384 46.8339 26.0822 46.517 25.7955C46.4415 25.7301 46.4013 25.6244 46.4214 25.5188C46.4918 25.1717 46.5371 24.8246 46.5522 24.4825C46.5673 24.1354 46.5572 23.7934 46.522 23.4564C46.4466 22.7571 46.2605 22.0931 45.9888 21.4744C45.7021 20.8205 45.3198 20.2168 44.8721 19.6887C44.4395 19.1756 43.9415 18.7279 43.4083 18.3556C42.8751 17.9834 42.3066 17.6916 41.7281 17.4954L41.7131 17.4904C41.4062 17.3848 41.0943 17.3093 40.7875 17.259H40.7774C40.4756 17.2087 40.1738 17.1886 39.877 17.1936C39.7412 17.2037 39.6104 17.1131 39.5752 16.9723C39.5249 16.766 39.4595 16.5648 39.384 16.3686C39.3035 16.1674 39.213 15.9712 39.1073 15.7751C38.8357 15.272 38.4786 14.8092 38.061 14.4118C37.6335 14.0044 37.1455 13.6573 36.6224 13.3907C36.0841 13.1191 35.4956 12.9279 34.8919 12.8424C34.3185 12.7619 33.7299 12.772 33.1515 12.8927C32.5025 13.0486 31.8637 13.3152 31.2802 13.7378ZM39.5047 19.4019C39.54 19.2913 39.6406 19.2057 39.7663 19.1957C39.9776 19.1806 40.1939 19.1906 40.4102 19.2259C40.6315 19.2611 40.8529 19.3164 41.0742 19.3919C41.4917 19.5327 41.9092 19.749 42.2966 20.0207C42.6789 20.2873 43.0411 20.6142 43.3529 20.9865L43.358 20.9965C43.6849 21.3839 43.9616 21.8165 44.1678 22.2893C44.364 22.732 44.4948 23.2048 44.5501 23.7028C44.5854 24.0348 44.5854 24.3819 44.5451 24.7341C44.5099 25.061 44.4344 25.3981 44.3188 25.7351L44.3137 25.7552C44.2433 25.9665 44.2483 26.1878 44.3137 26.384C44.3841 26.5852 44.5149 26.7663 44.7011 26.887L44.7161 26.8971C45.0683 27.1587 45.3801 27.4454 45.6518 27.7472C45.9335 28.0541 46.1749 28.3861 46.3762 28.7281C46.5975 29.1054 46.7685 29.4978 46.8742 29.9002C46.9848 30.2976 47.0351 30.7 47.02 31.0974C47.01 31.5099 46.9295 31.9224 46.7836 32.3298C46.6428 32.7172 46.4365 33.0995 46.1649 33.4717L46.1598 33.4767C45.9134 33.8138 45.6015 34.1458 45.2343 34.4627C44.8821 34.7645 44.4747 35.0512 44.0069 35.3279L43.9918 35.338C43.8057 35.4436 43.6698 35.6046 43.5894 35.7907C43.5089 35.9768 43.4837 36.1831 43.524 36.3843L43.529 36.4245C43.6246 37.1941 43.5793 37.9286 43.4234 38.5976C43.2523 39.327 42.9555 39.9809 42.5682 40.5393C42.2714 40.9669 41.9294 41.3341 41.5621 41.6259C41.1849 41.9277 40.7774 42.149 40.3599 42.2848H40.3549C40.204 42.3301 40.038 42.2446 39.9927 42.0937C39.4243 40.2375 38.4433 39.6389 36.7833 38.7837L36.7481 38.7636C36.5167 38.6529 36.2652 38.6429 36.0389 38.7133C35.8125 38.7837 35.6163 38.9397 35.5006 39.166L35.4855 39.1962C35.3749 39.4276 35.3648 39.6791 35.4352 39.9055C35.5107 40.1318 35.6716 40.3331 35.903 40.4538C37.2914 41.1631 38.3176 41.7013 38.3025 43.4418C38.2975 43.9599 38.1365 44.4629 37.8649 44.9157C37.5781 45.3936 37.1656 45.8211 36.6878 46.1682C36.1998 46.5203 35.6515 46.7769 35.0881 46.9026C34.5499 47.0284 33.9965 47.0334 33.4784 46.8926C32.6031 46.6511 32.0347 46.0676 31.6524 45.3583C31.2902 44.6843 31.089 43.8996 30.9431 43.1852C30.9331 43.1601 30.9331 43.1299 30.9331 43.1048C30.9331 42.7426 30.6514 42.5062 30.2842 42.4005C30.1232 42.3502 29.9471 42.3301 29.7761 42.3301C29.6001 42.3301 29.429 42.3552 29.2681 42.4005C28.9059 42.5112 28.6242 42.7476 28.6242 43.1048C28.6242 43.1299 28.6191 43.15 28.6141 43.1752C28.3324 44.2919 27.925 45.132 27.4471 45.7356C26.8887 46.4449 26.2348 46.8322 25.5607 46.9731C25.0677 47.0737 24.5597 47.0485 24.0768 46.9228C23.5687 46.787 23.0858 46.5405 22.6632 46.2185C22.2457 45.8916 21.8986 45.4942 21.6572 45.0465C21.4258 44.6189 21.29 44.146 21.29 43.6631C21.29 41.8321 22.3966 41.2184 23.8605 40.4689C24.0919 40.3481 24.2528 40.1469 24.3283 39.9206C24.4037 39.6892 24.3886 39.4326 24.273 39.1962C24.1522 38.9648 23.951 38.8038 23.7246 38.7284C23.4983 38.658 23.2468 38.668 23.0154 38.7787L23.0003 38.7837C21.2749 39.664 20.2437 40.3079 19.6249 42.2245C19.5897 42.3502 19.469 42.4458 19.3332 42.4408C19.1621 42.4357 18.9911 42.4156 18.8151 42.3804C18.644 42.3452 18.473 42.2999 18.312 42.2396C17.9046 42.0987 17.4971 41.8925 17.1148 41.6309C16.7375 41.3693 16.3854 41.0574 16.0735 40.6952C15.7516 40.323 15.4749 39.9055 15.2637 39.4477C15.0624 39.0201 14.9216 38.5624 14.8512 38.0845V38.0745C14.8009 37.7223 14.7908 37.3551 14.831 36.9778C14.8663 36.6257 14.9417 36.2585 15.0675 35.8963L15.0725 35.8812C15.1429 35.675 15.1379 35.4587 15.0775 35.2675L15.0725 35.2575C15.0071 35.0563 14.8763 34.8802 14.6952 34.7544L14.6852 34.7444C14.3632 34.5029 14.0715 34.2464 13.8149 33.9647C13.5534 33.683 13.322 33.3812 13.1308 33.0693C12.8994 32.692 12.7183 32.2896 12.5976 31.8771C12.4819 31.4747 12.4215 31.0622 12.4266 30.6396C12.4316 30.2121 12.507 29.7744 12.658 29.3469C12.8038 28.9394 13.0151 28.5319 13.3069 28.1345C13.5534 27.7975 13.8552 27.4655 14.2174 27.1486C14.5644 26.8418 14.9568 26.55 15.4095 26.2733C15.5755 26.1727 15.6963 26.0319 15.7767 25.8709L15.7818 25.8558C15.8623 25.6898 15.8924 25.5037 15.8673 25.3176C15.8623 25.2975 15.8623 25.2773 15.8623 25.2572V25.2471C15.8371 25.0711 15.822 24.895 15.812 24.724C15.8019 24.5379 15.8019 24.3518 15.8069 24.1707C15.8321 23.5117 15.9578 22.893 16.1641 22.3346C16.3854 21.736 16.6973 21.1977 17.0695 20.74C17.3764 20.3627 17.7285 20.0458 18.0957 19.7993C18.4629 19.5528 18.8503 19.3768 19.2477 19.2762C19.3986 19.2309 19.5646 19.3164 19.6098 19.4673C19.9217 20.4533 20.3141 21.072 21.0636 21.7712L21.0938 21.7964C21.2799 21.9674 21.5214 22.0479 21.7578 22.0378C21.9942 22.0277 22.2256 21.9322 22.3966 21.746L22.4117 21.7259C22.5828 21.5398 22.6632 21.2983 22.6532 21.0619C22.6431 20.8255 22.5425 20.5891 22.3514 20.408C21.7477 19.8496 21.6119 19.5025 21.4308 18.9391C21.2195 18.2902 21.2548 17.6564 21.461 17.093C21.6019 16.7057 21.8232 16.3435 22.1049 16.0266C22.3816 15.7097 22.7186 15.428 23.0908 15.2117L23.1059 15.2016C23.4882 14.9803 23.9007 14.8193 24.3283 14.7388C24.7357 14.6634 25.1533 14.6583 25.5607 14.7439C26.1342 14.8646 26.6976 15.1664 27.1956 15.6896C27.6332 16.1473 28.0205 16.7811 28.3274 17.6162L28.3324 17.6262C28.4381 17.9532 28.7801 18.1443 29.1825 18.2198C29.3636 18.255 29.5548 18.2651 29.7409 18.255H29.7459C29.9371 18.245 30.1182 18.2097 30.2892 18.1544C30.591 18.0538 30.8274 17.8928 30.8828 17.6866V17.5709C30.8828 16.9874 31.2299 16.3686 31.7078 15.8606C32.2309 15.3072 32.9301 14.8696 33.5187 14.7489C33.8909 14.6734 34.2682 14.6684 34.6354 14.7237C35.0177 14.7841 35.3899 14.9048 35.7421 15.0809L35.7722 15.0909C36.1294 15.272 36.4564 15.5034 36.7431 15.7751C37.0248 16.0467 37.2663 16.3536 37.4473 16.6906C37.7341 17.2188 37.8649 17.8224 37.7743 18.4613C37.6938 19.0196 37.6737 19.3717 37.2059 19.9301L37.2009 19.9351C37.0349 20.1313 36.9644 20.3778 36.9846 20.6193C37.0047 20.8507 37.1103 21.077 37.2964 21.238L37.3266 21.2631C37.5228 21.4241 37.7643 21.4895 38.0007 21.4694C38.2321 21.4493 38.4584 21.3436 38.6194 21.1575L38.6446 21.1223C39.1275 20.5488 39.2834 20.1263 39.5047 19.4019ZM50.5513 44.0203C50.4557 43.7839 50.4004 43.5273 50.4004 43.2557C50.4004 42.984 50.4557 42.7275 50.5513 42.4911C50.6519 42.2546 50.7928 42.0383 50.9739 41.8623L50.9839 41.8472C51.0845 41.7466 51.2002 41.651 51.326 41.5756C51.3914 41.5353 51.4618 41.4951 51.5373 41.4599V38.2857H47.6337C47.6388 38.0795 47.6388 37.8732 47.6287 37.662C47.6186 37.5463 47.6689 37.4306 47.7695 37.3652C48.172 37.0885 48.5392 36.8018 48.8712 36.505H52.4226C52.6691 36.505 52.8904 36.6056 53.0514 36.7666C53.2123 36.9275 53.313 37.1489 53.313 37.3954V41.49C53.3733 41.5202 53.4337 41.5554 53.494 41.5957C53.5997 41.6661 53.7003 41.7466 53.7908 41.8371L53.8059 41.8522C53.987 42.0333 54.1379 42.2546 54.2385 42.5011C54.3341 42.7375 54.3894 42.9941 54.3894 43.2657C54.3894 43.5273 54.3391 43.7788 54.2436 44.0153L54.2385 44.0303C54.1379 44.2768 53.987 44.4931 53.8059 44.6793C53.6248 44.8603 53.4035 45.0113 53.157 45.1119C52.9206 45.2074 52.664 45.2628 52.3924 45.2628C52.1258 45.2628 51.8693 45.2074 51.6278 45.1119C51.3813 45.0113 51.16 44.8603 50.9789 44.6793C50.8028 44.4881 50.6519 44.2668 50.5513 44.0203ZM56.2054 33.8339H50.8984C50.9889 33.6377 51.0694 33.4415 51.1399 33.2403C51.2807 32.848 51.3813 32.4506 51.4417 32.0532H56.2054C56.2406 31.9878 56.2758 31.9224 56.3161 31.857C56.3915 31.7363 56.4821 31.6256 56.5776 31.53C56.7637 31.3439 56.9801 31.198 57.2265 31.0974C57.463 31.0018 57.7195 30.9465 57.9911 30.9465C58.2527 30.9465 58.5042 30.9968 58.7407 31.0924L58.7558 31.0974C59.0022 31.198 59.2185 31.3489 59.4047 31.53C59.5858 31.7111 59.7367 31.9324 59.8373 32.1789C59.9328 32.4153 59.9882 32.6719 59.9882 32.9435C59.9882 33.2101 59.9328 33.4667 59.8373 33.7081C59.7367 33.9546 59.5858 34.176 59.4047 34.357C59.2236 34.5381 59.0022 34.689 58.7558 34.7897C58.5193 34.8852 58.2628 34.9406 57.9911 34.9406C57.7296 34.9406 57.4781 34.8903 57.2416 34.7947L57.2265 34.7897C56.9801 34.689 56.7637 34.5381 56.5776 34.357C56.4821 34.2615 56.3965 34.1558 56.3211 34.0401L56.311 34.025C56.2758 33.9647 56.2406 33.8993 56.2054 33.8339ZM57.8956 28.9646H51.2203C51.0493 28.4012 50.8079 27.8529 50.506 27.3297L50.496 27.3146C50.4708 27.2693 50.4457 27.2291 50.4205 27.1838H57.0102V21.3738C56.9599 21.3436 56.9096 21.3134 56.8593 21.2782C56.7587 21.2078 56.6682 21.1324 56.5827 21.0468C56.4016 20.8657 56.2507 20.6444 56.1501 20.3979C56.0545 20.1615 55.9991 19.905 55.9991 19.6333C55.9991 19.3667 56.0545 19.1051 56.1501 18.8687C56.2507 18.6222 56.4016 18.4059 56.5827 18.2198C56.7638 18.0387 56.9851 17.8878 57.2316 17.7872C57.468 17.6916 57.7245 17.6363 57.9962 17.6363C58.2628 17.6363 58.5193 17.6916 58.7608 17.7872C59.0073 17.8878 59.2286 18.0387 59.4097 18.2198C59.5908 18.4009 59.7417 18.6222 59.8423 18.8687C59.9379 19.1051 59.9932 19.3617 59.9932 19.6333C59.9932 19.8949 59.9429 20.1464 59.8473 20.3828L59.8423 20.3979C59.7417 20.6444 59.5908 20.8607 59.4097 21.0468C59.299 21.1575 59.1682 21.2581 59.0324 21.3436C58.957 21.3889 58.8715 21.4342 58.791 21.4694V28.0692C58.791 28.3156 58.6904 28.537 58.5294 28.6979C58.3634 28.8639 58.1421 28.9646 57.8956 28.9646ZM50.9185 24.6687H48.6448C48.7052 24.3367 48.7404 24.0047 48.7555 23.6727C48.7656 23.4061 48.7656 23.1445 48.7505 22.8879H50.0282V20.2621C49.9577 20.2269 49.8923 20.1917 49.8269 20.1464C49.7062 20.071 49.5956 19.9804 49.4899 19.8748C49.3088 19.6937 49.1579 19.4723 49.0573 19.2259C48.9617 18.9894 48.9064 18.7329 48.9064 18.4663C48.9064 18.1997 48.9617 17.9431 49.0573 17.7017C49.1579 17.4653 49.2988 17.2489 49.4748 17.0679L49.4899 17.0528C49.671 16.8717 49.8923 16.7208 50.1388 16.6202C50.3753 16.5246 50.6318 16.4692 50.9034 16.4692C51.1751 16.4692 51.4316 16.5246 51.668 16.6202C51.9045 16.7208 52.1208 16.8616 52.3019 17.0427L52.317 17.0528C52.498 17.2339 52.6439 17.4451 52.7445 17.6866L52.7496 17.7017C52.8451 17.9381 52.9005 18.1946 52.9005 18.4663C52.9005 18.7329 52.8451 18.9945 52.7496 19.2309C52.649 19.4673 52.5081 19.6836 52.332 19.8647L52.317 19.8798C52.2214 19.9754 52.1157 20.0609 51.995 20.1414C51.9346 20.1816 51.8743 20.2168 51.8089 20.247V23.7783C51.8089 24.0248 51.7083 24.2461 51.5473 24.4071C51.3863 24.5681 51.16 24.6687 50.9185 24.6687ZM15.6661 9.4419C15.9025 9.53748 16.1591 9.59281 16.4307 9.59281C16.7023 9.59281 16.9589 9.53748 17.1953 9.4419C17.4317 9.34129 17.648 9.20045 17.8241 9.01935L17.8392 9.00929C17.9398 8.90869 18.0354 8.79299 18.1108 8.66723C18.1511 8.60184 18.1913 8.53141 18.2265 8.45596H21.4006V11.1975C21.959 10.9007 22.5626 10.6844 23.1814 10.5586V7.56559C23.1814 7.31911 23.0808 7.09777 22.9198 6.9368C22.7588 6.77583 22.5375 6.67523 22.291 6.67523H18.1963C18.1661 6.61486 18.1309 6.5545 18.0907 6.49414C18.0203 6.3885 17.9398 6.28789 17.8492 6.19735L17.8341 6.18226C17.6531 6.00116 17.4317 5.85026 17.1852 5.74965C16.9488 5.65407 16.6923 5.59874 16.4206 5.59874C16.1591 5.59874 15.9025 5.64904 15.6711 5.74462L15.656 5.74965C15.4095 5.85026 15.1932 6.00116 15.0071 6.18226C14.826 6.36335 14.6751 6.58468 14.5745 6.83117C14.4789 7.06759 14.4236 7.32414 14.4236 7.59577C14.4236 7.86238 14.4789 8.11893 14.5745 8.36038C14.6751 8.60687 14.826 8.8282 15.0071 9.00929C15.2033 9.19038 15.4196 9.34129 15.6661 9.4419ZM25.8575 3.78783V10.6592C26.4511 10.8303 27.0296 11.1019 27.5728 11.4943L27.6332 11.5395C27.6332 11.5245 27.6382 11.5094 27.6382 11.4943V3.78783C27.7036 3.75261 27.769 3.7174 27.8344 3.67716C27.9551 3.60171 28.0658 3.51116 28.1614 3.41558C28.3425 3.22946 28.4934 3.01316 28.594 2.76667C28.6896 2.53025 28.7449 2.2737 28.7449 2.00207C28.7449 1.74049 28.6946 1.48897 28.599 1.25255L28.594 1.23746C28.4934 0.990972 28.3425 0.774668 28.1614 0.588547C27.9803 0.407455 27.759 0.256546 27.5125 0.15594C27.276 0.0603638 27.0195 0.00503031 26.7479 0.00503031C26.4813 0.00503031 26.2247 0.0603638 25.9833 0.15594C25.7368 0.256546 25.5154 0.407455 25.3343 0.588547C25.1533 0.769638 25.0023 0.990972 24.9017 1.23746C24.8062 1.47388 24.7508 1.73043 24.7508 2.00207C24.7508 2.26364 24.8011 2.51516 24.8967 2.75158L24.9017 2.76667C25.0023 3.01316 25.1533 3.22946 25.3343 3.41558C25.4299 3.51116 25.5356 3.59667 25.6513 3.67213L25.6613 3.67716C25.7267 3.7174 25.7871 3.75261 25.8575 3.78783ZM30.7218 2.09764V12.1482C30.9633 11.9017 31.2198 11.6854 31.4814 11.4943C31.8084 11.2578 32.1504 11.0617 32.5025 10.9108V2.98298H38.3126C38.3427 3.03328 38.3729 3.08358 38.4081 3.13389C38.4786 3.23449 38.554 3.32504 38.6395 3.41055C38.8206 3.59164 39.042 3.74255 39.2884 3.84316C39.5249 3.93874 39.7814 3.99407 40.053 3.99407C40.3197 3.99407 40.5812 3.93874 40.8177 3.84316C41.0641 3.74255 41.2855 3.59164 41.4666 3.41055C41.6477 3.22946 41.7986 3.00813 41.8992 2.76164C41.9947 2.52522 42.0501 2.26867 42.0501 1.99703C42.0501 1.73043 41.9947 1.47388 41.8992 1.23243C41.7986 0.985942 41.6477 0.764608 41.4666 0.583516C41.2754 0.402425 41.0541 0.251516 40.8076 0.150909C40.5712 0.0553335 40.3146 0 40.048 0C39.7864 0 39.5349 0.0503031 39.2985 0.145879L39.2834 0.150909C39.0369 0.251516 38.8206 0.402425 38.6345 0.583516C38.5238 0.694183 38.4232 0.824972 38.3377 0.96079C38.2924 1.03624 38.2472 1.12176 38.2119 1.20225H31.6122C31.3657 1.20225 31.1444 1.30285 30.9834 1.46382C30.8224 1.62982 30.7218 1.85116 30.7218 2.09764ZM35.0177 9.07469V10.453C35.1988 10.4631 35.3849 10.4781 35.566 10.5083C35.9886 10.5687 36.401 10.6743 36.7984 10.8202V9.97008H39.4243C39.4595 10.0405 39.4947 10.1059 39.54 10.1713C39.6154 10.292 39.706 10.4027 39.8116 10.5083C39.9927 10.6894 40.214 10.8403 40.4605 10.9409C40.6969 11.0365 40.9535 11.0918 41.2201 11.0918C41.4867 11.0918 41.7432 11.0365 41.9847 10.9409C42.2211 10.8403 42.4374 10.6995 42.6185 10.5234L42.6336 10.5083C42.8147 10.3272 42.9656 10.1059 43.0662 9.85942C43.1618 9.62299 43.2171 9.36645 43.2171 9.09481C43.2171 8.82317 43.1618 8.56662 43.0662 8.3302C42.9656 8.09378 42.8247 7.87747 42.6437 7.69638L42.6336 7.68129C42.4525 7.5002 42.2412 7.35432 41.9998 7.25371L41.9847 7.24868C41.7483 7.15311 41.4917 7.09777 41.2201 7.09777C40.9535 7.09777 40.6919 7.15311 40.4555 7.24868C40.219 7.34929 40.0027 7.49014 39.8217 7.6662L39.8066 7.68129C39.711 7.77687 39.6255 7.8825 39.545 8.00323C39.5047 8.06359 39.4695 8.12396 39.4393 8.18935H35.9081C35.6616 8.18935 35.4403 8.28996 35.2793 8.45093C35.1183 8.60687 35.0177 8.8282 35.0177 9.07469ZM9.44861 17.7067C9.54419 17.9431 9.59952 18.1997 9.59952 18.4713C9.59952 18.743 9.54419 18.9995 9.44861 19.2359C9.34801 19.4723 9.20716 19.6887 9.02607 19.8647L9.01601 19.8798C8.9154 19.9804 8.7997 20.076 8.67395 20.1514C8.60855 20.1917 8.53813 20.2319 8.46267 20.2671V23.4413H11.7575V23.5972C11.7575 23.7179 11.7626 23.8437 11.7676 23.9745C11.7776 24.0851 11.7273 24.1958 11.6318 24.2662C11.1992 24.5731 10.8118 24.895 10.4597 25.222H7.58237C7.33588 25.222 7.11455 25.1214 6.95358 24.9604C6.79261 24.7994 6.692 24.5781 6.692 24.3316V20.237C6.63164 20.2068 6.57127 20.1716 6.51091 20.1313C6.40527 20.0609 6.30467 19.9804 6.21412 19.8899L6.19903 19.8748C6.01794 19.6937 5.86703 19.4723 5.76642 19.2259C5.67085 18.9894 5.61551 18.7329 5.61551 18.4613C5.61551 18.1997 5.66582 17.9482 5.76139 17.7117L5.76642 17.6966C5.86703 17.4502 6.01794 17.2339 6.19903 17.0477C6.38012 16.8666 6.60146 16.7157 6.84794 16.6151C7.08437 16.5196 7.34091 16.4642 7.61255 16.4642C7.87916 16.4642 8.1357 16.5196 8.37716 16.6151C8.62364 16.7157 8.84498 16.8666 9.02607 17.0477C9.1971 17.2389 9.34801 17.4602 9.44861 17.7067ZM3.79454 27.8931H8.52304C8.44255 28.0742 8.37213 28.2603 8.30673 28.4414C8.16588 28.8489 8.06528 29.2563 8.00491 29.6688H3.79454C3.75933 29.7342 3.72412 29.7996 3.68387 29.865C3.60842 29.9857 3.51787 30.0964 3.4223 30.1919C3.23618 30.3781 3.01987 30.5239 2.77339 30.6246C2.53696 30.7201 2.28042 30.7755 2.00878 30.7755C1.7472 30.7755 1.49569 30.7252 1.25926 30.6296L1.24417 30.6246C0.997686 30.5239 0.781382 30.373 0.595261 30.1919C0.414169 30.0109 0.26326 29.7895 0.162654 29.543C0.0670776 29.3066 0.0117442 29.0501 0.0117442 28.7784C0.0117442 28.5118 0.0670776 28.2553 0.162654 28.0138C0.26326 27.7673 0.414169 27.546 0.595261 27.3649C0.776352 27.1838 0.997686 27.0329 1.24417 26.9323C1.4806 26.8367 1.73714 26.7814 2.00878 26.7814C2.27036 26.7814 2.52187 26.8317 2.7583 26.9273L2.77339 26.9323C3.01987 27.0329 3.23618 27.1838 3.4223 27.3649C3.51787 27.4605 3.60339 27.5661 3.67884 27.6818L3.6889 27.6969C3.72412 27.7623 3.75933 27.8277 3.79454 27.8931ZM2.10436 32.7624H8.25643C8.44758 33.3711 8.72425 33.9597 9.07637 34.518V34.523L9.08643 34.5432H2.98969V40.3532C3.03999 40.3834 3.0903 40.4135 3.1406 40.4488C3.24121 40.5192 3.33175 40.5946 3.41727 40.6802C3.59836 40.8612 3.74927 41.0826 3.84987 41.3291C3.94545 41.5655 4.00078 41.822 4.00078 42.0937C4.00078 42.3603 3.94545 42.6219 3.84987 42.8583C3.74927 43.1048 3.59836 43.3211 3.41727 43.5072C3.23618 43.6883 3.01484 43.8392 2.76836 43.9398C2.53193 44.0354 2.27539 44.0907 2.00375 44.0907C1.73714 44.0907 1.4806 44.0354 1.23914 43.9398C0.992656 43.8392 0.771322 43.6883 0.59023 43.5072C0.409139 43.311 0.25823 43.0897 0.157623 42.8482C0.0620473 42.6118 0.00671387 42.3552 0.00671387 42.0836C0.00671387 41.822 0.057017 41.5705 0.152593 41.3341L0.157623 41.319C0.25823 41.0725 0.409139 40.8562 0.59023 40.6701C0.700897 40.5594 0.831685 40.4588 0.967504 40.3733C1.04296 40.328 1.12847 40.2828 1.20896 40.2475V33.6478C1.20896 33.4013 1.30957 33.18 1.47054 33.019C1.63654 32.863 1.85787 32.7624 2.10436 32.7624ZM9.0814 37.0583H10.7414C10.6861 37.3903 10.6559 37.7173 10.6458 38.0392C10.6358 38.3109 10.6408 38.5775 10.6609 38.8391H9.97177V41.4649C10.0422 41.5001 10.1076 41.5353 10.173 41.5806C10.2937 41.656 10.4044 41.7466 10.51 41.8522C10.6911 42.0333 10.842 42.2546 10.9426 42.5011C11.0382 42.7375 11.0935 42.9941 11.0935 43.2657C11.0935 43.5374 11.0382 43.7889 10.9426 44.0303C10.842 44.2668 10.7012 44.4831 10.5251 44.6642L10.51 44.6793C10.3289 44.8603 10.1076 45.0113 9.8611 45.1119C9.62467 45.2074 9.36813 45.2628 9.09649 45.2628C8.82485 45.2628 8.56831 45.2074 8.33188 45.1119C8.09546 45.0113 7.87916 44.8704 7.69806 44.6893L7.68297 44.6793C7.50188 44.4982 7.356 44.2869 7.2554 44.0454L7.25037 44.0303C7.15479 43.7939 7.09946 43.5374 7.09946 43.2657C7.09946 42.9991 7.15479 42.7375 7.25037 42.5011C7.35097 42.2647 7.49182 42.0484 7.66788 41.8673L7.68297 41.8522C7.77855 41.7566 7.88419 41.6711 8.00491 41.5906C8.06528 41.5504 8.12564 41.5152 8.19104 41.485V37.9537C8.19104 37.7072 8.29164 37.4859 8.45261 37.3249C8.61358 37.1539 8.83492 37.0583 9.0814 37.0583ZM33.2219 58.0247V50.9873C32.5931 50.7911 31.9995 50.4742 31.4562 50.0265L31.4462 50.0164V58.0297C31.3808 58.0649 31.3154 58.1001 31.25 58.1404C31.1293 58.2158 31.0186 58.3064 30.923 58.4019C30.7419 58.5881 30.591 58.8044 30.4904 59.0509C30.3948 59.2873 30.3395 59.5438 30.3395 59.8155C30.3395 60.077 30.3898 60.3286 30.4854 60.565L30.4904 60.5801C30.591 60.8266 30.7419 61.0429 30.923 61.229C31.1041 61.4101 31.3255 61.561 31.5719 61.6616C31.8084 61.7572 32.0649 61.8125 32.3365 61.8125C32.6031 61.8125 32.8597 61.7572 33.1012 61.6616C33.3476 61.561 33.569 61.4101 33.7501 61.229C33.9312 61.0479 34.0821 60.8266 34.1827 60.5801C34.2782 60.3437 34.3336 60.0871 34.3336 59.8155C34.3336 59.5539 34.2833 59.3024 34.1877 59.0659L34.1827 59.0509C34.0821 58.8044 33.9312 58.5881 33.7501 58.4019C33.6545 58.3064 33.5488 58.2209 33.4332 58.1454L33.4181 58.1353C33.3527 58.0951 33.2873 58.0599 33.2219 58.0247ZM28.3525 59.7149V49.5737C28.1413 49.7901 27.9199 49.9812 27.6885 50.1573C27.3314 50.4289 26.9591 50.6452 26.5718 50.8162V58.8346H20.7618C20.7316 58.7843 20.7014 58.734 20.6662 58.6836C20.5958 58.583 20.5203 58.4925 20.4348 58.407C20.2537 58.2259 20.0324 58.075 19.7859 57.9744C19.5495 57.8788 19.2929 57.8235 19.0213 57.8235C18.7547 57.8235 18.4931 57.8788 18.2567 57.9744C18.0102 58.075 17.7939 58.2259 17.6078 58.407C17.4267 58.5881 17.2758 58.8094 17.1752 59.0559C17.0796 59.2923 17.0243 59.5489 17.0243 59.8205C17.0243 60.0871 17.0796 60.3437 17.1752 60.5851C17.2758 60.8316 17.4267 61.0529 17.6078 61.234C17.7889 61.4151 18.0102 61.566 18.2567 61.6666C18.4931 61.7622 18.7497 61.8175 19.0213 61.8175C19.2829 61.8175 19.5344 61.7672 19.7708 61.6717L19.7859 61.6666C20.0324 61.566 20.2487 61.4151 20.4348 61.234C20.5455 61.1234 20.6461 60.9926 20.7316 60.8567C20.7769 60.7813 20.8222 60.6958 20.8574 60.6153H27.4571C27.7036 60.6153 27.925 60.5147 28.0859 60.3537C28.2519 60.1827 28.3525 59.9613 28.3525 59.7149ZM24.0566 52.7378V51.274C23.6643 51.2539 23.2719 51.1935 22.8896 51.0979C22.6834 51.0476 22.4771 50.9822 22.2759 50.9118V51.8525H19.6501C19.6149 51.7821 19.5797 51.7167 19.5344 51.6513C19.4589 51.5305 19.3684 51.4199 19.2628 51.3142C19.0817 51.1331 18.8603 50.9822 18.6138 50.8816C18.3774 50.7861 18.1209 50.7307 17.8543 50.7307C17.5877 50.7307 17.3311 50.7861 17.0897 50.8816C16.8532 50.9822 16.6369 51.1231 16.4558 51.2991L16.4408 51.3092C16.2597 51.4903 16.1087 51.7116 16.0081 51.9581C15.9126 52.1945 15.8572 52.4511 15.8572 52.7227C15.8572 52.9944 15.9126 53.2509 16.0081 53.4873C16.1087 53.7238 16.2496 53.9401 16.4307 54.1212L16.4408 54.1362C16.6218 54.3173 16.8331 54.4632 17.0746 54.5638L17.0897 54.5689C17.3261 54.6644 17.5826 54.7198 17.8543 54.7198C18.1209 54.7198 18.3774 54.6644 18.6189 54.5689C18.8553 54.4682 19.0716 54.3274 19.2527 54.1513L19.2678 54.1362C19.3634 54.0407 19.4489 53.935 19.5294 53.8143C19.5696 53.7539 19.6048 53.6936 19.635 53.6282H23.1663C23.4128 53.6282 23.6341 53.5276 23.7951 53.3666C23.956 53.2056 24.0566 52.9843 24.0566 52.7378Z" fill="#4169E1"/>
</svg>
