<svg width="67" height="67" viewBox="0 0 67 67" fill="none" xmlns="http://www.w3.org/2000/svg">
<path d="M33.5 66.7478C51.8622 66.7478 66.7477 51.8622 66.7477 33.5C66.7477 15.1378 51.8622 0.252194 33.5 0.252194C15.1377 0.252194 0.252194 15.1378 0.252194 33.5C0.252194 51.8622 15.1377 66.7478 33.5 66.7478Z" stroke="#4169E1" stroke-width="0.5" stroke-dasharray="4 4"/>
<path d="M30.1529 49.4668L29.481 44.4673C29.0603 44.3271 28.5459 44.0971 27.9356 43.7763C27.3263 43.4555 26.833 43.1115 26.4567 42.7454L21.7518 44.7195L18.1384 38.1665L22.003 35.1836C21.9757 34.9052 21.9404 34.6116 21.898 34.3009C21.8567 33.9912 21.8355 33.6977 21.8355 33.4193C21.8355 33.1842 21.8567 32.925 21.898 32.6425C21.9404 32.359 21.9757 32.0302 22.003 31.6549L18.1384 28.7567L21.7518 22.3712L26.2459 24.2192C26.722 23.8278 27.2546 23.4707 27.8428 23.1479C28.4309 22.8261 28.9766 22.5669 29.481 22.3712L30.1529 17.4564H37.4624L38.0929 22.4549C38.681 22.7071 39.2197 22.9663 39.71 23.2327C40.2003 23.498 40.6966 23.8409 41.201 24.2616L45.8645 22.3712L49.4769 28.7567L45.3601 31.8647C45.4438 32.1734 45.4933 32.467 45.5074 32.7474C45.5205 33.0269 45.5276 33.279 45.5276 33.503C45.5276 33.6997 45.5145 33.9378 45.4862 34.2172C45.458 34.4976 45.4297 34.8336 45.4015 35.226L49.3508 38.1665L45.7384 44.7195L40.9911 42.703C40.515 43.0954 40.0459 43.4313 39.5839 43.7118C39.1219 43.9912 38.6387 44.2151 38.1343 44.3836L37.4624 49.4668H30.1529ZM32.0857 47.1981H35.3975L36.034 42.5769C36.9026 42.353 37.6854 42.0443 38.3824 41.6498C39.0805 41.2554 39.8099 40.6955 40.5715 39.9722L44.6883 41.7366L46.4103 38.8808L42.7979 36.1076C42.9371 35.6033 43.0359 35.1382 43.0914 34.7115C43.1479 34.2858 43.1751 33.8581 43.1751 33.4304C43.1751 32.9754 43.1549 32.5648 43.1126 32.2006C43.0702 31.8365 42.9794 31.3745 42.8392 30.8146L46.494 28.0425L44.8557 25.1856L40.5715 26.9076C40.0953 26.3478 39.4033 25.805 38.4964 25.2784C37.5885 24.7519 36.7543 24.4129 35.9916 24.2616L35.5296 19.7241H32.0433L31.6236 24.1779C30.6713 24.3736 29.8169 24.6883 29.0604 25.1231C28.3048 25.5569 27.5623 26.1521 26.834 26.9076L22.7595 25.1856L21.0376 28.0425L24.5663 30.7722C24.4261 31.2484 24.3282 31.7114 24.2717 32.1593C24.2162 32.6072 24.188 33.0329 24.188 33.4364C24.188 33.7895 24.2162 34.189 24.2717 34.6379C24.3282 35.0858 24.4119 35.5901 24.5239 36.15L21.0376 38.8808L22.7595 41.7366L26.834 40.0146C27.6188 40.7429 28.3814 41.3099 29.1239 41.7154C29.8664 42.1219 30.6855 42.4367 31.5813 42.6606L32.0857 47.1981ZM33.5978 38.2926C34.9586 38.2926 36.1107 37.8205 37.0549 36.8763C37.9991 35.9331 38.4702 34.7801 38.4702 33.4193C38.4702 32.0584 37.9991 30.9054 37.0549 29.9622C36.1107 29.018 34.9586 28.5459 33.5978 28.5459C32.2531 28.5459 31.1051 29.018 30.1529 29.9622C29.2006 30.9054 28.7244 32.0584 28.7244 33.4193C28.7244 34.7801 29.2006 35.9331 30.1529 36.8763C31.1051 37.8205 32.2531 38.2926 33.5978 38.2926Z" fill="#4169E1"/>
</svg>
