<svg width="20" height="20" viewBox="0 0 20 20" fill="none" xmlns="http://www.w3.org/2000/svg">
<path d="M7.29159 14.6766V18.5416C7.29223 18.673 7.33418 18.8008 7.41149 18.907C7.48881 19.0132 7.59759 19.0923 7.7224 19.1333C7.84722 19.1742 7.98175 19.1748 8.10694 19.135C8.23212 19.0953 8.34162 19.0171 8.41992 18.9116L10.6807 15.835L7.29159 14.6766ZM19.7374 0.115894C19.6435 0.049023 19.5329 0.00942679 19.4179 0.00148504C19.3029 -0.00645672 19.1879 0.0175655 19.0857 0.0708949L0.335798 9.8625C0.227917 9.91952 0.139029 10.0068 0.0800417 10.1136C0.0210547 10.2204 -0.00546462 10.3421 0.00373831 10.4638C0.0129412 10.5854 0.0574661 10.7018 0.131848 10.7985C0.206231 10.8952 0.307234 10.9682 0.422464 11.0083L5.63494 12.79L16.7357 3.29838L8.14575 13.6475L16.8815 16.6333C16.9682 16.6624 17.0602 16.6722 17.1511 16.6621C17.242 16.6519 17.3295 16.622 17.4077 16.5745C17.4858 16.5269 17.5525 16.4629 17.6033 16.3868C17.6541 16.3107 17.6876 16.2245 17.7015 16.1341L19.9932 0.717558C20.0102 0.603433 19.9952 0.486841 19.9501 0.380663C19.9049 0.274484 19.8313 0.182854 19.7374 0.115894Z" fill="#4169E1"/>
</svg>
