<svg width="54" height="54" viewBox="0 0 54 54" fill="none" xmlns="http://www.w3.org/2000/svg">
<path d="M27.4542 7.69865L27.1302 21.807M21.108 33.6953L17.0787 25.1519C17.014 25.0151 16.9832 24.8646 16.989 24.7134C16.9948 24.5622 17.037 24.4146 17.1119 24.2831L26.5947 7.69997C26.6801 7.55057 26.8049 7.42754 26.9554 7.34412C27.106 7.26077 27.2765 7.22027 27.4485 7.22705C27.6205 7.2339 27.7872 7.2877 27.9307 7.38275C28.0742 7.47773 28.1889 7.61031 28.2622 7.76594L36.2806 24.7699C36.3382 24.8919 36.3689 25.0249 36.3706 25.1598C36.3723 25.2948 36.3449 25.4285 36.2904 25.552L32.5841 33.9011C32.5089 34.071 32.3851 34.2149 32.2283 34.3145C32.0714 34.4141 31.8886 34.4651 31.7029 34.4609L21.9374 34.2345C21.7627 34.2304 21.5926 34.1779 21.4461 34.0826C21.2996 33.9874 21.1826 33.8533 21.108 33.6953Z" stroke="#4169E1" stroke-width="0.934615" stroke-linecap="round" stroke-linejoin="round"/>
<path d="M21.3554 34.2212L21.2125 40.4918C21.1935 41.3231 21.5055 42.128 22.0799 42.7294C22.6542 43.3307 23.4439 43.6793 24.2753 43.6985L28.9773 43.8087C29.3891 43.8182 29.7988 43.7466 30.1829 43.5977C30.567 43.4489 30.918 43.2259 31.2159 42.9413C31.5138 42.6568 31.7527 42.3164 31.919 41.9395C32.0853 41.5627 32.1757 41.1567 32.1851 40.7449L32.328 34.4743M27.0234 26.5093C27.3321 26.5163 27.6393 26.4625 27.9273 26.3508C28.2153 26.2391 28.4785 26.0717 28.7018 25.8584C28.9251 25.6449 29.1042 25.3897 29.2289 25.107C29.3536 24.8244 29.4214 24.52 29.4284 24.2112C29.4354 23.9024 29.3815 23.5952 29.2698 23.3072C29.1582 23.0192 28.9908 22.756 28.7774 22.5327C28.564 22.3093 28.3087 22.1302 28.0261 22.0056C27.7434 21.8809 27.439 21.8131 27.1302 21.8062C26.5066 21.792 25.9028 22.0261 25.4518 22.4571C25.0007 22.8881 24.7394 23.4806 24.7252 24.1043C24.711 24.728 24.9451 25.3317 25.3762 25.7828C25.8071 26.2338 26.3997 26.4952 27.0234 26.5093Z" stroke="#4169E1" stroke-width="0.934615" stroke-linecap="round" stroke-linejoin="round"/>
</svg>
