<svg width="14" height="11" viewBox="0 0 14 11" fill="none" xmlns="http://www.w3.org/2000/svg">
<path d="M12.3871 0H2.75806C2.38172 0 2.05914 0.134408 1.79032 0.403226C1.52151 0.672043 1.3871 0.994624 1.3871 1.37097V4.80645H2.75806V2.74194L7.16129 6.04839C7.21505 6.0914 7.27688 6.12634 7.34677 6.15323C7.41667 6.18011 7.49462 6.19355 7.58065 6.19355C7.65591 6.19355 7.72849 6.18011 7.79839 6.15323C7.86828 6.12634 7.93011 6.0914 7.98387 6.04839L12.3871 2.74194V8.93548H6.8871V10.3226H12.3871C12.7742 10.3226 13.1022 10.1882 13.371 9.91935C13.6398 9.65054 13.7742 9.32258 13.7742 8.93548V1.37097C13.7742 0.994624 13.6398 0.672043 13.371 0.403226C13.1022 0.134408 12.7742 0 12.3871 0ZM7.58065 4.64516L3.20968 1.37097H11.9355L7.58065 4.64516ZM0 5.5H4.82258V6.87097H0V5.5ZM1.3871 7.56452H5.51613V8.93548H1.3871V7.56452ZM3.45161 9.62903H6.19355V11H3.45161V9.62903Z" fill="#D9D9D9"/>
</svg>
