<svg width="13" height="13" viewBox="0 0 13 13" fill="none" xmlns="http://www.w3.org/2000/svg">
<path d="M11.0492 1.88357C10.4661 1.30056 9.78504 0.84088 9.00582 0.504528C8.22661 0.168176 7.39414 0 6.50841 0C6.50841 0 6.50561 0 6.5 0C6.49439 0 6.49159 0 6.49159 0C5.60586 0 4.77059 0.168176 3.98577 0.504528C3.21216 0.84088 2.53385 1.30056 1.95084 1.88357C1.36783 2.46658 0.902544 3.1505 0.554981 3.93532C0.218629 4.72014 0.0504528 5.55541 0.0504528 6.44114C0.0504528 7.01294 0.123329 7.57072 0.269082 8.11449C0.414834 8.65826 0.627857 9.1768 0.90815 9.67012L0 13L3.41397 12.1087C3.86244 12.3553 4.34735 12.5459 4.86869 12.6805C5.39004 12.815 5.931 12.8823 6.49159 12.8823C7.37732 12.8823 8.21259 12.7141 8.99741 12.3777C9.78223 12.0414 10.4661 11.5817 11.0492 10.9987C11.6322 10.4157 12.0918 9.73178 12.4282 8.94696C12.7646 8.16214 12.9327 7.32686 12.9327 6.44114C12.9327 6.44114 12.9327 6.43834 12.9327 6.43273C12.9327 6.42712 12.9327 6.42432 12.9327 6.42432C12.9327 5.53859 12.7646 4.70612 12.4282 3.92691C12.0918 3.14769 11.6322 2.46658 11.0492 1.88357ZM6.49159 11.806C5.98706 11.806 5.50216 11.7387 5.03687 11.6041C4.57158 11.4696 4.14273 11.279 3.75032 11.0323L3.76714 11.0492L3.56533 10.9314L1.54722 11.4696L2.08538 9.48512L1.96766 9.28331C1.70979 8.87969 1.50798 8.43683 1.36223 7.95472C1.21647 7.47262 1.1436 6.96809 1.1436 6.44114C1.1436 5.70116 1.28374 5.00604 1.56404 4.35576C1.84433 3.70548 2.22833 3.13928 2.71604 2.65718C3.20375 2.17508 3.77275 1.79388 4.42303 1.51358C5.07331 1.23329 5.76283 1.09314 6.49159 1.09314C6.5028 1.09314 6.50841 1.09314 6.50841 1.09314C7.24838 1.09314 7.94071 1.23329 8.58538 1.51358C9.23006 1.79388 9.79345 2.17508 10.2755 2.65718C10.7689 3.13928 11.1557 3.70548 11.436 4.35576C11.7163 5.00604 11.8564 5.69556 11.8564 6.42432C11.8564 6.43553 11.8564 6.44114 11.8564 6.44114C11.8564 7.18111 11.7107 7.87624 11.4191 8.52652C11.1389 9.1768 10.7577 9.7458 10.2755 10.2335C9.79345 10.7212 9.22725 11.1052 8.57697 11.3855C7.92669 11.6658 7.23157 11.806 6.49159 11.806ZM9.43467 7.78655C9.51315 7.83139 9.57762 7.86503 9.62807 7.88745C9.67853 7.90988 9.71496 7.9379 9.73739 7.97154C9.75981 8.00517 9.76822 8.09487 9.76261 8.24062C9.75701 8.38637 9.72057 8.55455 9.6533 8.74515C9.58603 8.93575 9.42626 9.10392 9.174 9.24968C8.92173 9.39543 8.71712 9.47952 8.56016 9.50194C8.42561 9.52436 8.27145 9.53558 8.09767 9.53558C7.92389 9.53558 7.7417 9.50755 7.5511 9.45149C7.42777 9.40664 7.29043 9.35899 7.13907 9.30854C6.98771 9.25809 6.81673 9.18801 6.62613 9.09832C5.81889 8.75075 5.16861 8.27426 4.67529 7.66882C4.18198 7.06339 3.9185 6.73264 3.88486 6.67658C3.84002 6.62053 3.71949 6.42712 3.52329 6.09638C3.32708 5.76563 3.22898 5.40405 3.22898 5.01164C3.22898 4.61923 3.30466 4.31652 3.45602 4.10349C3.60737 3.89047 3.71669 3.74472 3.78396 3.66624C3.84002 3.61018 3.90448 3.56253 3.97736 3.52329C4.05024 3.48405 4.13152 3.46442 4.22122 3.46442C4.22122 3.46442 4.22402 3.46442 4.22962 3.46442C4.23523 3.46442 4.23803 3.46442 4.23803 3.46442C4.29409 3.46442 4.34455 3.46442 4.38939 3.46442C4.43424 3.46442 4.47909 3.46442 4.52393 3.46442C4.56878 3.47564 4.62484 3.48685 4.69211 3.49806C4.75938 3.50927 4.82104 3.59336 4.8771 3.75032C4.94437 3.90729 5.03967 4.13432 5.163 4.43144C5.28633 4.72855 5.35921 4.89953 5.38163 4.94437C5.40405 4.97801 5.41807 5.02005 5.42367 5.0705C5.42928 5.12096 5.42087 5.17421 5.39845 5.23027C5.36481 5.27512 5.33959 5.31716 5.32277 5.3564C5.30595 5.39564 5.27512 5.44329 5.23027 5.49935C5.19664 5.5442 5.1574 5.59185 5.11255 5.6423C5.0677 5.69276 5.02846 5.7348 4.99483 5.76843C4.94998 5.81328 4.91634 5.86093 4.89392 5.91138C4.8715 5.96184 4.88271 6.0263 4.92755 6.10479C4.9724 6.18327 5.07331 6.33463 5.23027 6.55886C5.38724 6.7831 5.58344 7.00173 5.81889 7.21475C6.1216 7.49504 6.39349 7.68844 6.63454 7.79495C6.87559 7.90147 7.03536 7.97715 7.11384 8.02199C7.19232 8.05563 7.25679 8.06964 7.30724 8.06404C7.3577 8.05843 7.41095 8.0276 7.46701 7.97154C7.51186 7.92669 7.59314 7.83139 7.71087 7.68564C7.82859 7.53989 7.91548 7.42777 7.97154 7.34929C8.0276 7.27081 8.08366 7.23157 8.13972 7.23157C8.19577 7.23157 8.25744 7.24278 8.32471 7.2652C8.40319 7.28762 8.58818 7.37171 8.87969 7.51746C9.17119 7.66322 9.35619 7.75291 9.43467 7.78655Z" fill="#D9D9D9"/>
</svg>
