<svg width="14" height="9" viewBox="0 0 14 9" fill="none" xmlns="http://www.w3.org/2000/svg">
<path d="M14 4.48851C14 4.34602 13.9555 4.23024 13.8664 4.14118C13.7774 4.05213 13.6616 4.0076 13.5191 4.0076H1.70992L4.8626 0.854923C4.96947 0.748053 5.0229 0.62337 5.0229 0.480877C5.0229 0.338383 4.96947 0.222607 4.8626 0.133549C4.75573 0.0444897 4.63105 -3.91753e-05 4.48855 -3.91753e-05C4.34606 -3.91753e-05 4.22138 0.0355845 4.11451 0.106831L0.10687 4.11447C0.0356234 4.22134 0 4.34602 0 4.48851C0 4.63101 0.0356234 4.75569 0.10687 4.86256L4.11451 8.87019C4.22138 8.94144 4.34606 8.97706 4.48855 8.97706C4.63105 8.97706 4.75573 8.93253 4.8626 8.84348C4.96947 8.75442 5.0229 8.63864 5.0229 8.49615C5.0229 8.35365 4.96947 8.22897 4.8626 8.1221L1.70992 4.96943H13.5191C13.6616 4.96943 13.7774 4.9249 13.8664 4.83584C13.9555 4.74678 14 4.63101 14 4.48851Z" fill="#4169E1"/>
</svg>
