<svg width="20" height="20" viewBox="0 0 20 20" fill="none" xmlns="http://www.w3.org/2000/svg">
<path d="M10 5C10.1778 5 10.3222 5.05556 10.4333 5.16667C10.5444 5.27778 10.6 5.42222 10.6 5.6V9.4H14.4C14.5778 9.4 14.7222 9.45556 14.8333 9.56667C14.9444 9.67778 15 9.82222 15 10C15 10.1778 14.9444 10.3222 14.8333 10.4333C14.7222 10.5444 14.5778 10.6 14.4 10.6H10.6V14.4C10.6 14.5778 10.5444 14.7222 10.4333 14.8333C10.3222 14.9444 10.1778 15 10 15C9.82222 15 9.67778 14.9444 9.56667 14.8333C9.45556 14.7222 9.4 14.5778 9.4 14.4V10.6H5.6C5.42222 10.6 5.27778 10.5444 5.16667 10.4333C5.05556 10.3222 5 10.1778 5 10C5 9.82222 5.05556 9.67778 5.16667 9.56667C5.27778 9.45556 5.42222 9.4 5.6 9.4H9.4V5.6C9.4 5.42222 9.45556 5.27778 9.56667 5.16667C9.67778 5.05556 9.82222 5 10 5Z" fill="white" fill-opacity="0.5"/>
</svg>
