<svg width="20" height="49" viewBox="0 0 20 49" fill="none" xmlns="http://www.w3.org/2000/svg">
<path d="M15.332 25.6875C14.6549 25.0104 13.8639 24.4766 12.959 24.0859C12.054 23.6953 11.0872 23.5 10.0586 23.5C10.0586 23.5 10.0553 23.5 10.0488 23.5C10.0423 23.5 10.0391 23.5 10.0391 23.5C9.01042 23.5 8.04036 23.6953 7.12891 24.0859C6.23047 24.4766 5.44271 25.0104 4.76562 25.6875C4.08854 26.3646 3.54818 27.1589 3.14453 28.0703C2.75391 28.9818 2.55859 29.9518 2.55859 30.9805C2.55859 31.6445 2.64323 32.2923 2.8125 32.9238C2.98177 33.5553 3.22917 34.1576 3.55469 34.7305L2.5 38.5977L6.46484 37.5625C6.98568 37.849 7.54883 38.0703 8.1543 38.2266C8.75977 38.3828 9.38802 38.4609 10.0391 38.4609C11.0677 38.4609 12.0378 38.2656 12.9492 37.875C13.8607 37.4844 14.6549 36.9505 15.332 36.2734C16.0091 35.5964 16.543 34.8021 16.9336 33.8906C17.3242 32.9792 17.5195 32.0091 17.5195 30.9805C17.5195 30.9805 17.5195 30.9772 17.5195 30.9707C17.5195 30.9642 17.5195 30.9609 17.5195 30.9609C17.5195 29.9323 17.3242 28.9655 16.9336 28.0605C16.543 27.1556 16.0091 26.3646 15.332 25.6875ZM10.0391 37.2109C9.45312 37.2109 8.88997 37.1328 8.34961 36.9766C7.80924 36.8203 7.3112 36.599 6.85547 36.3125L6.875 36.332L6.64062 36.1953L4.29688 36.8203L4.92188 34.5156L4.78516 34.2812C4.48568 33.8125 4.2513 33.2982 4.08203 32.7383C3.91276 32.1784 3.82812 31.5924 3.82812 30.9805C3.82812 30.1211 3.99089 29.3138 4.31641 28.5586C4.64193 27.8034 5.08789 27.1458 5.6543 26.5859C6.2207 26.026 6.88151 25.5833 7.63672 25.2578C8.39193 24.9323 9.19271 24.7695 10.0391 24.7695C10.0521 24.7695 10.0586 24.7695 10.0586 24.7695C10.918 24.7695 11.722 24.9323 12.4707 25.2578C13.2194 25.5833 13.8737 26.026 14.4336 26.5859C15.0065 27.1458 15.4557 27.8034 15.7812 28.5586C16.1068 29.3138 16.2695 30.1146 16.2695 30.9609C16.2695 30.974 16.2695 30.9805 16.2695 30.9805C16.2695 31.8398 16.1003 32.6471 15.7617 33.4023C15.4362 34.1576 14.9935 34.8184 14.4336 35.3848C13.8737 35.9512 13.2161 36.3971 12.4609 36.7227C11.7057 37.0482 10.8984 37.2109 10.0391 37.2109ZM13.457 32.543C13.5482 32.5951 13.623 32.6341 13.6816 32.6602C13.7402 32.6862 13.7826 32.7188 13.8086 32.7578C13.8346 32.7969 13.8444 32.901 13.8379 33.0703C13.8314 33.2396 13.7891 33.4349 13.7109 33.6562C13.6328 33.8776 13.4473 34.0729 13.1543 34.2422C12.8613 34.4115 12.6237 34.5091 12.4414 34.5352C12.2852 34.5612 12.1061 34.5742 11.9043 34.5742C11.7025 34.5742 11.4909 34.5417 11.2695 34.4766C11.1263 34.4245 10.9668 34.3691 10.791 34.3105C10.6152 34.252 10.4167 34.1706 10.1953 34.0664C9.25781 33.6628 8.5026 33.1094 7.92969 32.4062C7.35677 31.7031 7.05078 31.319 7.01172 31.2539C6.95964 31.1888 6.81966 30.9642 6.5918 30.5801C6.36393 30.196 6.25 29.776 6.25 29.3203C6.25 28.8646 6.33789 28.513 6.51367 28.2656C6.68945 28.0182 6.81641 27.849 6.89453 27.7578C6.95964 27.6927 7.03451 27.6374 7.11914 27.5918C7.20378 27.5462 7.29818 27.5234 7.40234 27.5234C7.40234 27.5234 7.4056 27.5234 7.41211 27.5234C7.41862 27.5234 7.42188 27.5234 7.42188 27.5234C7.48698 27.5234 7.54557 27.5234 7.59766 27.5234C7.64974 27.5234 7.70182 27.5234 7.75391 27.5234C7.80599 27.5365 7.87109 27.5495 7.94922 27.5625C8.02734 27.5755 8.09896 27.6732 8.16406 27.8555C8.24219 28.0378 8.35286 28.3014 8.49609 28.6465C8.63932 28.9915 8.72396 29.1901 8.75 29.2422C8.77604 29.2812 8.79232 29.3301 8.79883 29.3887C8.80534 29.4473 8.79557 29.5091 8.76953 29.5742C8.73047 29.6263 8.70117 29.6751 8.68164 29.7207C8.66211 29.7663 8.6263 29.8216 8.57422 29.8867C8.53516 29.9388 8.48958 29.9941 8.4375 30.0527C8.38542 30.1113 8.33984 30.1602 8.30078 30.1992C8.2487 30.2513 8.20964 30.3066 8.18359 30.3652C8.15755 30.4238 8.17057 30.4987 8.22266 30.5898C8.27474 30.681 8.39193 30.8568 8.57422 31.1172C8.75651 31.3776 8.98438 31.6315 9.25781 31.8789C9.60938 32.2044 9.92513 32.429 10.2051 32.5527C10.485 32.6764 10.6706 32.7643 10.7617 32.8164C10.8529 32.8555 10.9277 32.8717 10.9863 32.8652C11.0449 32.8587 11.1068 32.8229 11.1719 32.7578C11.224 32.7057 11.3184 32.5951 11.4551 32.4258C11.5918 32.2565 11.6927 32.1263 11.7578 32.0352C11.8229 31.944 11.888 31.8984 11.9531 31.8984C12.0182 31.8984 12.0898 31.9115 12.168 31.9375C12.2591 31.9635 12.474 32.0612 12.8125 32.2305C13.151 32.3997 13.3659 32.5039 13.457 32.543Z" fill="white" fill-opacity="0.7"/>
<rect x="8.75" width="2.5" height="2.5" fill="white" fill-opacity="0.2"/>
</svg>
