<svg width="20" height="49" viewBox="0 0 20 49" fill="none" xmlns="http://www.w3.org/2000/svg">
<path d="M10 27.1523C9.46615 27.1523 8.96484 27.25 8.49609 27.4453C8.02734 27.6536 7.62044 27.9303 7.27539 28.2754C6.93034 28.6204 6.65365 29.0273 6.44531 29.4961C6.25 29.9648 6.15234 30.4661 6.15234 31C6.15234 31.5339 6.25 32.0352 6.44531 32.5039C6.65365 32.9727 6.93034 33.3796 7.27539 33.7246C7.62044 34.0697 8.02734 34.3464 8.49609 34.5547C8.96484 34.75 9.46615 34.8477 10 34.8477C10.5339 34.8477 11.0352 34.75 11.5039 34.5547C11.9727 34.3464 12.3796 34.0697 12.7246 33.7246C13.0697 33.3796 13.3464 32.9727 13.5547 32.5039C13.75 32.0352 13.8477 31.5339 13.8477 31C13.8477 30.4661 13.75 29.9648 13.5547 29.4961C13.3464 29.0273 13.0697 28.6204 12.7246 28.2754C12.3796 27.9303 11.9727 27.6536 11.5039 27.4453C11.0352 27.25 10.5339 27.1523 10 27.1523ZM10 33.5C9.3099 33.5 8.7207 33.2559 8.23242 32.7676C7.74414 32.2793 7.5 31.6901 7.5 31C7.5 30.3099 7.74414 29.7207 8.23242 29.2324C8.7207 28.7441 9.3099 28.5 10 28.5C10.6901 28.5 11.2793 28.7441 11.7676 29.2324C12.2559 29.7207 12.5 30.3099 12.5 31C12.5 31.6901 12.2559 32.2793 11.7676 32.7676C11.2793 33.2559 10.6901 33.5 10 33.5ZM14.9023 26.9961C14.9023 27.2565 14.8145 27.4714 14.6387 27.6406C14.4629 27.8099 14.2513 27.8945 14.0039 27.8945C13.7565 27.8945 13.5449 27.8099 13.3691 27.6406C13.1934 27.4714 13.1055 27.2565 13.1055 26.9961C13.1055 26.7487 13.1934 26.5404 13.3691 26.3711C13.5449 26.2018 13.7565 26.1172 14.0039 26.1172C14.2513 26.1172 14.4629 26.2018 14.6387 26.3711C14.8145 26.5404 14.9023 26.7487 14.9023 26.9961ZM17.1094 26.0977C16.9141 25.5898 16.6276 25.1471 16.25 24.7695C15.8724 24.3919 15.4362 24.1055 14.9414 23.9102L14.9219 23.8906C14.6484 23.7865 14.3587 23.7051 14.0527 23.6465C13.7467 23.5879 13.431 23.5586 13.1055 23.5586H13.0859C12.6953 23.5326 12.3372 23.5163 12.0117 23.5098C11.6862 23.5033 11.0156 23.5 10 23.5C8.98438 23.5 8.3138 23.5033 7.98828 23.5098C7.66276 23.5163 7.30469 23.5326 6.91406 23.5586C6.58854 23.5586 6.26953 23.5911 5.95703 23.6562C5.64453 23.7214 5.34505 23.806 5.05859 23.9102L5.09766 23.8906C4.58984 24.099 4.14714 24.3919 3.76953 24.7695C3.39193 25.1471 3.10547 25.5768 2.91016 26.0586L2.89062 26.0977C2.78646 26.3581 2.70508 26.6445 2.64648 26.957C2.58789 27.2695 2.55208 27.5885 2.53906 27.9141C2.52604 28.3177 2.51628 28.679 2.50977 28.998C2.50326 29.3171 2.5 29.9844 2.5 31C2.5 32.0156 2.50326 32.6862 2.50977 33.0117C2.51628 33.3372 2.52604 33.7018 2.53906 34.1055C2.55208 34.418 2.58789 34.724 2.64648 35.0234C2.70508 35.3229 2.78646 35.6224 2.89062 35.9219C3.09896 36.4297 3.39193 36.8724 3.76953 37.25C4.14714 37.6276 4.57682 37.9141 5.05859 38.1094H5.09766C5.35807 38.2266 5.64128 38.3177 5.94727 38.3828C6.25326 38.4479 6.56901 38.4805 6.89453 38.4805H6.91406C7.31771 38.5065 7.67904 38.5228 7.99805 38.5293C8.31706 38.5358 8.98438 38.5391 10 38.5391C11.0156 38.5391 11.6862 38.5358 12.0117 38.5293C12.3372 38.5228 12.7018 38.5065 13.1055 38.4805C13.431 38.4805 13.75 38.4479 14.0625 38.3828C14.375 38.3177 14.6745 38.2331 14.9609 38.1289L14.9219 38.1484C15.4297 37.9401 15.8724 37.6471 16.25 37.2695C16.6276 36.8919 16.9141 36.4622 17.1094 35.9805V35.9414C17.2266 35.6549 17.3145 35.3587 17.373 35.0527C17.4316 34.7467 17.4609 34.4375 17.4609 34.125C17.474 33.7214 17.4837 33.36 17.4902 33.041C17.4967 32.722 17.5 32.0547 17.5 31.0391C17.5 30.0104 17.5 29.3366 17.5 29.0176C17.5 28.6986 17.487 28.3372 17.4609 27.9336C17.4609 27.6081 17.4284 27.2858 17.3633 26.9668C17.2982 26.6478 17.207 26.3451 17.0898 26.0586L17.1094 26.0977ZM16.0938 34.0273C16.0938 34.2878 16.071 34.5384 16.0254 34.7793C15.9798 35.0202 15.9115 35.2513 15.8203 35.4727L15.8398 35.4336C15.7096 35.7721 15.5208 36.0618 15.2734 36.3027C15.026 36.5436 14.7461 36.7292 14.4336 36.8594H14.4141C14.2057 36.9505 13.9844 37.0156 13.75 37.0547C13.5156 37.0938 13.2747 37.1198 13.0273 37.1328C12.6237 37.1458 12.2689 37.1556 11.9629 37.1621C11.6569 37.1686 10.9961 37.1719 9.98047 37.1719C8.96484 37.1719 8.30404 37.1686 7.99805 37.1621C7.69206 37.1556 7.33724 37.1458 6.93359 37.1328C6.67318 37.1198 6.42578 37.0905 6.19141 37.0449C5.95703 36.9993 5.72917 36.9375 5.50781 36.8594H5.52734C5.20182 36.7422 4.91536 36.5599 4.66797 36.3125C4.42057 36.0651 4.23177 35.7786 4.10156 35.4531V35.4336C4.02344 35.2383 3.96159 35.0234 3.91602 34.7891C3.87044 34.5547 3.84766 34.3073 3.84766 34.0469C3.82161 33.6562 3.80859 33.3047 3.80859 32.9922C3.80859 32.6797 3.80859 32.0156 3.80859 31C3.80859 29.9844 3.80859 29.3236 3.80859 29.0176C3.80859 28.7116 3.82161 28.3568 3.84766 27.9531C3.84766 27.7057 3.87044 27.4616 3.91602 27.2207C3.96159 26.9798 4.02995 26.7487 4.12109 26.5273L4.10156 26.5469C4.23177 26.2214 4.42057 25.9349 4.66797 25.6875C4.91536 25.4401 5.20182 25.2513 5.52734 25.1211C5.73568 25.043 5.95703 24.9811 6.19141 24.9355C6.42578 24.89 6.67318 24.8672 6.93359 24.8672C7.32422 24.8542 7.67578 24.8444 7.98828 24.8379C8.30078 24.8314 8.96484 24.8281 9.98047 24.8281C10.9961 24.8281 11.6569 24.8281 11.9629 24.8281C12.2689 24.8281 12.6237 24.8411 13.0273 24.8672C13.2747 24.8672 13.5156 24.89 13.75 24.9355C13.9844 24.9811 14.2122 25.0495 14.4336 25.1406L14.4141 25.1211C14.7396 25.2513 15.026 25.4401 15.2734 25.6875C15.5208 25.9349 15.7096 26.2214 15.8398 26.5469C15.918 26.7552 15.9798 26.9766 16.0254 27.2109C16.071 27.4453 16.0938 27.6862 16.0938 27.9336V27.9531C16.1068 28.3438 16.1165 28.6953 16.123 29.0078C16.1296 29.3203 16.1328 29.9844 16.1328 31C16.1328 32.0156 16.1328 32.6764 16.1328 32.9824C16.1328 33.2884 16.1263 33.6367 16.1133 34.0273H16.0938Z" fill="white" fill-opacity="0.7"/>
<rect x="8.75" width="2.5" height="2.5" fill="white" fill-opacity="0.2"/>
</svg>
