<svg width="60" height="60" viewBox="0 0 60 60" fill="none" xmlns="http://www.w3.org/2000/svg">
<path d="M24.5625 53.75L23.5625 46.3125C22.9375 46.1042 22.1713 45.7615 21.2638 45.2844C20.3562 44.8069 19.6225 44.2954 19.0625 43.75L12.0625 46.6875L6.6875 36.9375L12.4375 32.5C12.3958 32.0863 12.3438 31.6488 12.2812 31.1875C12.2188 30.7262 12.1875 30.2887 12.1875 29.875C12.1875 29.5246 12.2188 29.1392 12.2812 28.7188C12.3438 28.2983 12.3958 27.8088 12.4375 27.25L6.6875 22.9375L12.0625 13.4375L18.75 16.1875C19.4583 15.6042 20.25 15.0729 21.125 14.5938C22 14.1146 22.8125 13.7292 23.5625 13.4375L24.5625 6.125H35.4375L36.375 13.5625C37.25 13.9375 38.0521 14.3229 38.7812 14.7188C39.5104 15.1146 40.25 15.625 41 16.25L47.9375 13.4375L53.3125 22.9375L47.1875 27.5625C47.3125 28.0208 47.3854 28.4583 47.4062 28.875C47.4271 29.2917 47.4375 29.6667 47.4375 30C47.4375 30.2917 47.4167 30.6458 47.375 31.0625C47.3333 31.4792 47.2917 31.9792 47.25 32.5625L53.125 36.9375L47.75 46.6875L40.6875 43.6875C39.9792 44.2708 39.2812 44.7708 38.5938 45.1875C37.9062 45.6042 37.1875 45.9375 36.4375 46.1875L35.4375 53.75H24.5625ZM27.4375 50.375H32.3656L33.3125 43.5C34.6042 43.1667 35.769 42.7067 36.8069 42.12C37.8452 41.5329 38.9304 40.7012 40.0625 39.625L46.1875 42.25L48.75 38L43.375 33.875C43.5833 33.125 43.7292 32.4327 43.8125 31.7981C43.8958 31.1635 43.9375 30.5281 43.9375 29.8919C43.9375 29.214 43.9062 28.6042 43.8438 28.0625C43.7812 27.5208 43.6458 26.8333 43.4375 26L48.875 21.875L46.4375 17.625L40.0625 20.1875C39.3542 19.3542 38.3252 18.546 36.9756 17.7631C35.6256 16.9798 34.3838 16.4754 33.25 16.25L32.5625 9.5H27.375L26.75 16.125C25.3333 16.4167 24.0625 16.8854 22.9375 17.5312C21.8125 18.1771 20.7083 19.0625 19.625 20.1875L13.5625 17.625L11 21.875L16.25 25.9375C16.0417 26.6458 15.8958 27.3333 15.8125 28C15.7292 28.6667 15.6875 29.3004 15.6875 29.9013C15.6875 30.4254 15.7292 31.0208 15.8125 31.6875C15.8958 32.3542 16.0208 33.1042 16.1875 33.9375L11 38L13.5625 42.25L19.625 39.6875C20.7917 40.7708 21.9271 41.6146 23.0312 42.2188C24.1354 42.8229 25.3542 43.2917 26.6875 43.625L27.4375 50.375ZM29.6875 37.125C31.7125 37.125 33.4271 36.4229 34.8312 35.0187C36.2354 33.6146 36.9375 31.9 36.9375 29.875C36.9375 27.85 36.2354 26.1354 34.8312 24.7313C33.4271 23.3271 31.7125 22.625 29.6875 22.625C27.6875 22.625 25.9792 23.3271 24.5625 24.7313C23.1458 26.1354 22.4375 27.85 22.4375 29.875C22.4375 31.9 23.1458 33.6146 24.5625 35.0187C25.9792 36.4229 27.6875 37.125 29.6875 37.125Z" fill="#4169E1"/>
</svg>
