<svg width="67" height="67" viewBox="0 0 67 67" fill="none" xmlns="http://www.w3.org/2000/svg">
<path d="M33.5 66.7478C51.8622 66.7478 66.7478 51.8622 66.7478 33.5C66.7478 15.1378 51.8622 0.252194 33.5 0.252194C15.1378 0.252194 0.252194 15.1378 0.252194 33.5C0.252194 51.8622 15.1378 66.7478 33.5 66.7478Z" stroke="#4169E1" stroke-width="0.5" stroke-dasharray="4 4"/>
<mask id="mask0_1_41" style="mask-type:luminance" maskUnits="userSpaceOnUse" x="16" y="16" width="35" height="35">
<path d="M50.6389 16.1914H16.3406V50.4898H50.6389V16.1914Z" fill="white"/>
</mask>
<g mask="url(#mask0_1_41)">
<path d="M32.7353 25.4086C30.983 25.4086 29.5576 26.834 29.5576 28.5853C29.5576 30.3375 30.983 31.7629 32.7353 31.7629C34.4865 31.7629 35.9119 30.3375 35.9119 28.5853C35.9119 26.833 34.4865 25.4086 32.7353 25.4086ZM32.7353 30.5917C31.6286 30.5917 30.7278 29.6919 30.7278 28.5853C30.7278 27.4786 31.6286 26.5788 32.7353 26.5788C33.8409 26.5788 34.7417 27.4786 34.7417 28.5853C34.7417 29.6919 33.8409 30.5917 32.7353 30.5917Z" fill="#4169E1"/>
<path d="M46.6261 24.4352C45.4771 24.4352 44.543 25.3693 44.543 26.5173C44.543 27.6653 45.4771 28.5994 46.6261 28.5994C47.7741 28.5994 48.7082 27.6653 48.7082 26.5173C48.7082 25.3693 47.7741 24.4352 46.6261 24.4352ZM46.6261 27.4293C46.1227 27.4293 45.7141 27.0197 45.7141 26.5173C45.7141 26.0149 46.1227 25.6054 46.6261 25.6054C47.1284 25.6054 47.537 26.0149 47.537 26.5173C47.537 27.0197 47.1284 27.4293 46.6261 27.4293Z" fill="#4169E1"/>
<path d="M48.2845 18.8355H39.7714C38.4711 18.8355 37.4129 19.8937 37.4129 21.194V23.8823H33.9024H33.9004H21.1172H21.1131H18.8465C17.4675 23.8823 16.3447 25.0041 16.3447 26.3841V41.4179C16.3447 42.7969 17.4675 43.9196 18.8465 43.9196H27.8114L27.0205 47.1306C27.0205 47.1326 27.0195 47.1356 27.0195 47.1386C27.0155 47.1528 27.0135 47.1669 27.0115 47.181C27.0105 47.1881 27.0084 47.1951 27.0084 47.2022C27.0064 47.2163 27.0054 47.2305 27.0054 47.2446C27.0044 47.2516 27.0044 47.2587 27.0044 47.2667L27.0034 47.2708C27.0034 47.2879 27.0044 47.3051 27.0064 47.3223C27.0064 47.3243 27.0064 47.3263 27.0064 47.3293C27.0084 47.3505 27.0125 47.3717 27.0165 47.3919C27.0175 47.3949 27.0175 47.3979 27.0185 47.3999C27.0225 47.4181 27.0276 47.4352 27.0326 47.4534C27.0347 47.4574 27.0367 47.4625 27.0387 47.4675C27.0437 47.4826 27.0498 47.4968 27.0559 47.5109C27.0589 47.5169 27.0619 47.523 27.0639 47.528C27.071 47.5411 27.077 47.5543 27.0851 47.5664C27.0881 47.5724 27.0922 47.5785 27.0962 47.5845C27.1032 47.5966 27.1113 47.6077 27.1204 47.6198C27.1234 47.6239 27.1255 47.6279 27.1285 47.6319L27.1325 47.636C27.1426 47.6491 27.1537 47.6612 27.1648 47.6733C27.1678 47.6763 27.1708 47.6804 27.1739 47.6834C27.189 47.6975 27.2041 47.7116 27.2203 47.7247C27.2243 47.7278 27.2283 47.7308 27.2324 47.7338C27.2455 47.7439 27.2576 47.753 27.2707 47.7611C27.2758 47.7651 27.2818 47.7681 27.2868 47.7711C27.3 47.7792 27.3121 47.7863 27.3252 47.7923C27.3313 47.7954 27.3373 47.7984 27.3433 47.8004C27.3564 47.8075 27.3696 47.8125 27.3827 47.8176C27.3887 47.8196 27.3948 47.8226 27.4008 47.8246C27.415 47.8297 27.4301 47.8337 27.4442 47.8367C27.4503 47.8387 27.4563 47.8407 27.4624 47.8418C27.4775 47.8448 27.4936 47.8478 27.5088 47.8498C27.5148 47.8508 27.5199 47.8519 27.5249 47.8519C27.5461 47.8549 27.5673 47.8559 27.5895 47.8559H34.6469H39.2812C39.604 47.8559 39.8663 47.5936 39.8663 47.2708C39.8663 46.947 39.604 46.6847 39.2812 46.6847H35.3944L36.0743 43.9196H46.3143C47.5481 43.9196 48.5528 42.9159 48.5528 41.6812V36.6171C49.727 36.483 50.643 35.4843 50.643 34.2747V21.194C50.643 19.8937 49.5858 18.8355 48.2845 18.8355ZM40.4574 21.194C40.4574 20.5393 40.99 20.0067 41.6447 20.0067H48.2845C48.9402 20.0067 49.4728 20.5393 49.4728 21.194V21.884H40.4574V21.194ZM40.4574 23.0552H49.4728V32.3389H49.1924L46.2468 29.0977C46.1358 28.9757 45.9784 28.9061 45.813 28.9061C45.6486 28.9061 45.4912 28.9757 45.3802 29.0977L44.543 30.0177L42.4659 27.7329C42.3549 27.6108 42.1975 27.5412 42.0331 27.5412C41.8677 27.5412 41.7103 27.6108 41.6004 27.7329L40.4574 28.9898V23.0552ZM47.6106 32.3389H46.6543L45.3348 30.8883L45.813 30.3617L47.6106 32.3389ZM40.4574 30.6845L40.4806 30.7057L42.0331 28.9968L45.0715 32.3389H40.4574V30.6845ZM38.5841 21.194C38.5841 20.5978 39.027 20.1035 39.6009 20.0198C39.4012 20.3658 39.2862 20.7673 39.2862 21.194V34.2738C39.2862 34.7015 39.4012 35.102 39.6 35.448C39.026 35.3642 38.5841 34.871 38.5841 34.2738V21.194ZM20.0489 37.059L24.7589 32.2179L31.0203 39.1048H20.0489V37.059ZM29.9117 36.144L31.3179 34.5965L35.4156 39.1048H32.6031L29.9117 36.144ZM19.1501 42.7485H18.8465C18.1131 42.7485 17.5159 42.1513 17.5159 41.4179V26.3841C17.5159 25.6497 18.1131 25.0525 18.8465 25.0525H19.1501C18.9766 25.3703 18.8787 25.7345 18.8787 26.1208V41.6812C18.8787 42.0675 18.9766 42.4307 19.1501 42.7485ZM34.1879 46.6847H28.336L29.0169 43.9196H34.8688L34.1879 46.6847ZM47.3816 41.6812C47.3816 42.2693 46.9035 42.7485 46.3143 42.7485H21.1172C20.5281 42.7485 20.0489 42.2693 20.0489 41.6812V40.2759H47.3816V41.6812ZM47.3816 39.1048H36.9983L31.7517 33.3326C31.6407 33.2105 31.4833 33.1409 31.3189 33.1409C31.1535 33.1409 30.9961 33.2105 30.8852 33.3326L29.1208 35.2744L25.2068 30.97C25.0978 30.851 24.9445 30.7814 24.7831 30.7783C24.6207 30.7783 24.4663 30.8399 24.3544 30.9559L20.0499 35.3804V26.1208C20.0499 25.5327 20.5271 25.0545 21.1152 25.0525H37.4129V34.2738C37.4129 35.5741 38.4711 36.6323 39.7714 36.6323H47.3827L47.3816 39.1048ZM49.4728 34.2738C49.4728 34.9285 48.9402 35.4621 48.2845 35.4621L41.6397 35.4611C40.987 35.4591 40.4574 34.9274 40.4574 34.2738V33.5101H49.4728V34.2738Z" fill="#4169E1"/>
</g>
</svg>
