<svg width="67" height="67" viewBox="0 0 67 67" fill="none" xmlns="http://www.w3.org/2000/svg">
<path d="M33.5 66.7478C51.8622 66.7478 66.7478 51.8622 66.7478 33.5C66.7478 15.1377 51.8622 0.252194 33.5 0.252194C15.1377 0.252194 0.252194 15.1377 0.252194 33.5C0.252194 51.8622 15.1377 66.7478 33.5 66.7478Z" stroke="#4169E1" stroke-width="0.5" stroke-dasharray="4 4"/>
<mask id="mask0_1_20" style="mask-type:luminance" maskUnits="userSpaceOnUse" x="13" y="12" width="41" height="42">
<path d="M53.3592 12.7318H13.6422V53.6708H53.3592V12.7318Z" fill="white"/>
</mask>
<g mask="url(#mask0_1_20)">
<path d="M42.3782 47.4055C42.2218 47.3423 42.0523 47.3056 41.8728 47.3056C41.6922 47.3056 41.5227 47.3423 41.3664 47.4055C41.209 47.4722 41.0667 47.5654 40.9497 47.6854L40.9396 47.692C40.8731 47.7587 40.8095 47.8354 40.7601 47.9186C40.7328 47.962 40.7066 48.0086 40.6834 48.0585H38.5821V46.2328C38.2583 46.3827 37.9224 46.496 37.5794 46.566C37.5189 46.5793 37.4624 46.5893 37.4029 46.5993V48.6449C37.4029 48.8081 37.4695 48.9548 37.5754 49.0613C37.6823 49.168 37.8286 49.2346 37.992 49.2346H40.7036C40.7228 49.2746 40.747 49.3145 40.7732 49.3546C40.8196 49.4245 40.8731 49.4912 40.9326 49.5511L40.9427 49.5611C41.0627 49.681 41.209 49.781 41.3724 49.8477C41.5288 49.9109 41.6993 49.9475 41.8788 49.9475C42.0523 49.9475 42.2218 49.9142 42.3751 49.851L42.3852 49.8477C42.5486 49.781 42.6919 49.681 42.815 49.5611C42.935 49.4411 43.0349 49.2945 43.1014 49.1313C43.165 48.9748 43.2013 48.8048 43.2013 48.6249C43.2013 48.4483 43.165 48.2784 43.1014 48.1185C43.0349 47.9553 42.935 47.8086 42.815 47.6887C42.6878 47.5722 42.5416 47.4722 42.3782 47.4055ZM32.7696 34.912H30.3051L29.9521 36.0713H27.7338L30.3818 29.0349H32.7595L35.3974 36.0713H33.1226L32.7696 34.912ZM32.3106 33.3861L31.5409 30.8574L30.7682 33.3861H32.3106ZM36.0108 29.0316H38.1917V36.068H36.0108V29.0316ZM34.3483 21.8187C33.9892 22.0785 33.6553 22.4284 33.3658 22.8814C33.3527 22.9048 33.3325 22.9248 33.3093 22.9381C33.2195 22.9947 33.0995 22.9681 33.043 22.8814C32.7534 22.4284 32.4205 22.0785 32.0604 21.8187C31.6741 21.5388 31.2574 21.3622 30.8277 21.2756H30.8216C30.402 21.189 29.9722 21.189 29.5597 21.2623C29.1229 21.3389 28.7002 21.4988 28.3199 21.7187C27.9436 21.9386 27.6037 22.2218 27.3212 22.5483C27.0478 22.8648 26.8279 23.2279 26.6847 23.6177C26.6615 23.6777 26.6413 23.741 26.6221 23.8077C26.605 23.8676 26.5848 23.9343 26.5717 24.0008C26.5545 24.0875 26.4819 24.1509 26.3881 24.1542C25.9422 24.2208 25.4993 24.384 25.0857 24.6272C24.6661 24.8771 24.2767 25.2169 23.9408 25.6234C23.6079 26.0298 23.3275 26.5096 23.1277 27.0426C22.9411 27.5424 22.8281 28.0921 22.8049 28.6751C22.8019 28.7518 22.8019 28.8251 22.8019 28.9017C22.8019 28.9717 22.8049 29.0449 22.8049 29.1216C22.8079 29.1848 22.7817 29.2515 22.7252 29.2915C22.4518 29.4881 22.2057 29.6913 21.9858 29.9012C21.7618 30.1178 21.5661 30.341 21.3956 30.5709C21.1192 30.9474 20.9165 31.3405 20.7803 31.7369C20.637 32.15 20.5664 32.5731 20.5604 32.9896C20.5564 33.3894 20.6098 33.7859 20.7228 34.169C20.8368 34.5588 21.0093 34.9386 21.2332 35.2918C21.3593 35.495 21.5026 35.6949 21.6589 35.8815C21.8193 36.0713 21.9918 36.2513 22.1785 36.4212C22.2249 36.4645 22.2521 36.5345 22.239 36.601C22.1855 36.8542 22.1583 37.1041 22.1482 37.3507C22.1421 37.6039 22.1553 37.8537 22.1886 38.097C22.2521 38.5434 22.3822 38.9698 22.5648 39.363C22.7585 39.7828 23.0117 40.166 23.3042 40.5024C23.5877 40.8322 23.9105 41.1187 24.2565 41.3553C24.6066 41.5952 24.9768 41.7818 25.3561 41.9117C25.5256 41.9683 25.6991 42.0149 25.8756 42.0483C26.0421 42.0816 26.2085 42.1016 26.3719 42.1082C26.4617 42.1049 26.5454 42.1683 26.5646 42.2615C26.6514 42.6579 26.8118 43.0311 27.0317 43.3676C27.2607 43.7208 27.5512 44.0339 27.8841 44.2938C28.3037 44.6203 28.796 44.8668 29.3165 44.9968C29.8058 45.12 30.3223 45.1433 30.8277 45.0367C31.2806 44.9435 31.7205 44.7502 32.127 44.4438C32.5002 44.1605 32.8462 43.7807 33.1358 43.2876C33.1529 43.2576 33.1791 43.2343 33.2124 43.2177C33.3063 43.1678 33.4223 43.2044 33.4727 43.2977C33.7128 43.7441 34.0053 44.1006 34.3322 44.3704C34.6852 44.6602 35.0746 44.8569 35.4842 44.9701C36.0067 45.1134 36.5535 45.1134 37.0831 45.0034C37.649 44.8868 38.1958 44.6403 38.6649 44.3005C39.0351 44.0372 39.3609 43.7141 39.6212 43.3476C39.8673 43.0044 40.0509 42.6213 40.1568 42.2182C40.17 42.1415 40.2305 42.075 40.3132 42.0616C40.8035 41.975 41.2857 41.7717 41.7295 41.4686C42.1724 41.1654 42.5749 40.7656 42.9047 40.2892C43.2074 39.8494 43.4505 39.343 43.6079 38.79C43.7541 38.2736 43.8237 37.7138 43.8005 37.1242C43.7945 37.0575 43.8237 36.9908 43.8843 36.9509C44.1707 36.7544 44.4239 36.5478 44.6499 36.3379C44.8799 36.118 45.0827 35.8915 45.2562 35.6549C45.5225 35.2951 45.7192 34.9219 45.8554 34.5388C45.9956 34.1424 46.0693 33.7393 46.0824 33.336C46.0925 32.9463 46.045 32.5598 45.9452 32.18C45.8453 31.7969 45.689 31.427 45.4862 31.0773L45.4791 31.0705C45.346 30.8407 45.1896 30.6208 45.0161 30.4076C44.8436 30.1944 44.6469 29.9945 44.4371 29.8045C44.3866 29.7613 44.3604 29.6913 44.3735 29.6213C44.4199 29.3914 44.4502 29.1615 44.4603 28.9351C44.4703 28.7052 44.4633 28.4786 44.4401 28.2554C44.3907 27.7922 44.2666 27.3525 44.087 26.9427C43.8974 26.5096 43.6442 26.1098 43.3476 25.7599C43.0611 25.4202 42.7312 25.1236 42.3782 24.8771C42.0251 24.6305 41.6488 24.4373 41.2665 24.3074L41.2564 24.3041C41.0526 24.2341 40.8468 24.1841 40.6431 24.1509H40.637C40.4373 24.1175 40.2365 24.1041 40.0408 24.1075C39.95 24.1141 39.8643 24.0542 39.8411 23.9609C39.8078 23.8243 39.7644 23.6911 39.714 23.5611C39.6605 23.4279 39.601 23.2979 39.5304 23.168C39.3508 22.8348 39.1148 22.5283 38.8384 22.2652C38.5549 21.9952 38.2321 21.7654 37.8861 21.5888C37.529 21.4089 37.1396 21.2823 36.7401 21.2256C36.3598 21.1723 35.9704 21.179 35.5871 21.259C35.1574 21.3622 34.7347 21.5388 34.3483 21.8187ZM39.7937 25.5701C39.8169 25.4968 39.8835 25.4402 39.9672 25.4335C40.1074 25.4235 40.2507 25.4302 40.3939 25.4535C40.5402 25.4768 40.6864 25.5134 40.8327 25.5634C41.1091 25.6566 41.3855 25.8 41.6428 25.9799C41.896 26.1564 42.135 26.373 42.3418 26.6195L42.3449 26.6262C42.5617 26.8827 42.7454 27.1692 42.8815 27.4824C43.0117 27.7756 43.0974 28.0888 43.1347 28.4186C43.1579 28.6385 43.1579 28.8684 43.1317 29.1016C43.1075 29.3182 43.0581 29.5413 42.9814 29.7646L42.9784 29.7779C42.931 29.9178 42.935 30.0644 42.9784 30.1944C43.0248 30.3277 43.1115 30.4476 43.2346 30.5275L43.2447 30.5342C43.4777 30.7075 43.6845 30.8973 43.8641 31.0973C44.0507 31.3004 44.2101 31.5204 44.3432 31.7469C44.4905 31.9968 44.6035 32.2567 44.6731 32.5232C44.7468 32.7864 44.78 33.0529 44.77 33.3161C44.7629 33.5892 44.7094 33.8625 44.6136 34.1324C44.5198 34.3889 44.3836 34.6421 44.204 34.8887L44.2 34.892C44.0376 35.1152 43.8308 35.335 43.5877 35.545C43.3547 35.7449 43.0843 35.9348 42.7746 36.118L42.7645 36.1247C42.6414 36.1946 42.5517 36.3012 42.4982 36.4245C42.4447 36.5478 42.4286 36.6844 42.4548 36.8176L42.4589 36.8443C42.5214 37.354 42.4922 37.8404 42.3883 38.2836C42.2753 38.7667 42.0786 39.1997 41.8223 39.5696C41.6256 39.8527 41.3996 40.0959 41.1565 40.2892C40.9064 40.4891 40.637 40.6356 40.3606 40.7256H40.3566C40.2567 40.7556 40.1467 40.699 40.1175 40.599C39.7402 39.3696 39.0916 38.9732 37.992 38.4069L37.9688 38.3935C37.8155 38.3202 37.649 38.3135 37.4997 38.3601C37.3494 38.4069 37.2193 38.5101 37.1426 38.6601L37.1325 38.68C37.0599 38.8333 37.0528 38.9998 37.0992 39.1498C37.1497 39.2997 37.2566 39.433 37.4089 39.513C38.3289 39.9827 39.0078 40.3392 38.9978 41.4919C38.9947 41.8351 38.8878 42.1683 38.7082 42.4681C38.5186 42.7845 38.2452 43.0678 37.9285 43.2977C37.6056 43.5308 37.2425 43.7008 36.8703 43.784C36.5132 43.8673 36.147 43.8707 35.804 43.7774C35.2249 43.6175 34.8477 43.231 34.5955 42.7612C34.3554 42.3148 34.2222 41.7951 34.1254 41.322C34.1183 41.3054 34.1183 41.2854 34.1183 41.2686C34.1183 41.0289 33.9327 40.8722 33.6886 40.8023C33.5827 40.7689 33.4656 40.7556 33.3527 40.7556C33.2356 40.7556 33.1227 40.7723 33.0167 40.8023C32.7766 40.8755 32.59 41.0322 32.59 41.2686C32.59 41.2854 32.587 41.2987 32.583 41.3154C32.3963 42.055 32.127 42.6113 31.8102 43.0111C31.441 43.4809 31.0083 43.7374 30.5614 43.8307C30.2355 43.8973 29.8986 43.8807 29.5788 43.7974C29.2429 43.7075 28.9231 43.5442 28.6437 43.331C28.3673 43.1144 28.1373 42.8512 27.9769 42.5547C27.8236 42.2715 27.7338 41.9583 27.7338 41.6385C27.7338 40.4258 28.4672 40.0194 29.4356 39.523C29.5889 39.443 29.6959 39.3097 29.7453 39.1598C29.7957 39.0065 29.7856 38.8366 29.709 38.68C29.6293 38.5268 29.4961 38.4202 29.3458 38.3701C29.1965 38.3235 29.0301 38.3302 28.8767 38.4035L28.8666 38.4069C27.7237 38.9898 27.0418 39.4163 26.6312 40.6857C26.608 40.7689 26.5283 40.8322 26.4385 40.8289C26.3255 40.8256 26.2115 40.8123 26.0955 40.789C25.9826 40.7656 25.8686 40.7356 25.7626 40.6957C25.4923 40.6023 25.2229 40.4658 24.9697 40.2926C24.7196 40.1192 24.4865 39.9128 24.2807 39.6729C24.0669 39.4263 23.8843 39.1498 23.7441 38.8466C23.6109 38.5634 23.5171 38.2603 23.4707 37.9437V37.9371C23.4374 37.7038 23.4314 37.4606 23.4576 37.2107C23.4808 36.9775 23.5312 36.7343 23.6139 36.4945L23.617 36.4844C23.6644 36.3478 23.6604 36.2046 23.621 36.078L23.617 36.0713C23.5746 35.9381 23.4878 35.8215 23.3678 35.7382L23.3607 35.7315C23.1479 35.5716 22.9542 35.4017 22.7847 35.2151C22.6112 35.0286 22.4589 34.8286 22.3318 34.6221C22.1785 34.3723 22.0584 34.1057 21.9787 33.8325C21.9021 33.5659 21.8627 33.2928 21.8657 33.0129C21.8688 32.7298 21.9192 32.4399 22.0191 32.1567C22.1149 31.8868 22.2551 31.617 22.4488 31.3538C22.6112 31.1306 22.811 30.9107 23.0511 30.7008C23.2811 30.4976 23.5413 30.3043 23.8409 30.1211C23.9509 30.0544 24.0306 29.9612 24.084 29.8546L24.0871 29.8446C24.1405 29.7346 24.1607 29.6114 24.1435 29.4881C24.1405 29.4748 24.1405 29.4614 24.1405 29.4481V29.4415C24.1234 29.3249 24.1133 29.2082 24.1072 29.095C24.1002 28.9717 24.1002 28.8484 24.1042 28.7285C24.1204 28.292 24.2041 27.8822 24.3403 27.5124C24.4865 27.1159 24.6933 26.7594 24.9395 26.4563C25.1432 26.2064 25.3763 25.9965 25.6194 25.8333C25.8625 25.6701 26.1187 25.5535 26.382 25.4868C26.4819 25.4568 26.5918 25.5134 26.6221 25.6134C26.8279 26.2664 27.0882 26.6762 27.5845 27.1392L27.6037 27.1559C27.7277 27.2692 27.8871 27.3225 28.0435 27.3159C28.1998 27.3092 28.3532 27.2459 28.4672 27.1226L28.4772 27.1093C28.5902 26.986 28.6437 26.8261 28.6366 26.6696C28.6296 26.5129 28.563 26.3563 28.4369 26.2364C28.0374 25.8666 27.9476 25.6367 27.8276 25.2635C27.6874 24.8338 27.7106 24.414 27.8478 24.0409C27.9406 23.7844 28.0869 23.5445 28.2735 23.3346C28.4571 23.1246 28.68 22.9381 28.9262 22.7949L28.9362 22.7882C29.1894 22.6416 29.4628 22.535 29.7453 22.4816C30.0156 22.4317 30.292 22.4284 30.5614 22.485C30.9417 22.565 31.3139 22.7649 31.6438 23.1113C31.9343 23.4146 32.1905 23.8343 32.3933 24.3873L32.3963 24.394C32.4669 24.6106 32.6929 24.7372 32.9592 24.7872C33.0793 24.8105 33.2064 24.8171 33.3294 24.8105H33.3325C33.4596 24.8038 33.5796 24.7805 33.6926 24.7438C33.8923 24.6772 34.0487 24.5706 34.085 24.434V24.3574C34.085 23.9709 34.315 23.5611 34.6318 23.2246C34.9778 22.8581 35.4408 22.5683 35.8302 22.4883C36.0774 22.4384 36.3265 22.435 36.5696 22.4716C36.8228 22.5117 37.07 22.5916 37.303 22.7082L37.3232 22.7149C37.5592 22.8348 37.7761 22.988 37.9658 23.168C38.1524 23.3479 38.3118 23.5511 38.4318 23.7744C38.6215 24.1241 38.7082 24.5239 38.6487 24.9471C38.5953 25.3169 38.5821 25.5501 38.2714 25.9199L38.2684 25.9233C38.1584 26.0532 38.112 26.2164 38.1252 26.3763C38.1383 26.5295 38.2089 26.6795 38.332 26.7861L38.3521 26.8028C38.4813 26.9093 38.6417 26.9527 38.798 26.9394C38.9514 26.9261 39.1017 26.8561 39.2076 26.7328L39.2247 26.7095C39.5445 26.3297 39.6474 26.0499 39.7937 25.5701ZM47.1083 41.875C47.0447 41.7185 47.0084 41.5486 47.0084 41.3686C47.0084 41.1887 47.0447 41.0188 47.1083 40.8622C47.1749 40.7056 47.2677 40.5624 47.3877 40.4458L47.3948 40.4358C47.4614 40.3691 47.538 40.3059 47.6208 40.2558C47.6641 40.2292 47.7105 40.2026 47.761 40.1793V38.077H45.1765C45.1795 37.9404 45.1795 37.8038 45.1725 37.6639C45.1664 37.5872 45.1997 37.5107 45.2663 37.4673C45.5326 37.2841 45.7757 37.0941 45.9956 36.8976H48.3471C48.5105 36.8976 48.6568 36.9642 48.7627 37.0708C48.8696 37.1775 48.9362 37.324 48.9362 37.4873V40.1992C48.9766 40.2192 49.0159 40.2425 49.0562 40.2692C49.1258 40.3159 49.1924 40.3691 49.253 40.4291L49.263 40.4391C49.3831 40.5591 49.483 40.7056 49.5495 40.8689C49.6121 41.0255 49.6494 41.1954 49.6494 41.3753C49.6494 41.5486 49.6161 41.7151 49.5526 41.8717L49.5495 41.8817C49.483 42.045 49.3831 42.1882 49.263 42.3115C49.143 42.4315 48.9967 42.5313 48.8333 42.598C48.6769 42.6614 48.5065 42.698 48.3269 42.698C48.1504 42.698 47.9809 42.6614 47.8205 42.598C47.6571 42.5313 47.5108 42.4315 47.3908 42.3115C47.2748 42.1849 47.1749 42.0383 47.1083 41.875ZM50.8519 35.1285H47.3373C47.3978 34.9986 47.4513 34.8687 47.4977 34.7354C47.5905 34.4756 47.6571 34.2123 47.6974 33.9491H50.8519C50.8751 33.9058 50.8983 33.8625 50.9245 33.8191C50.9749 33.7393 51.0344 33.6659 51.098 33.6027C51.2211 33.4794 51.3643 33.3828 51.5277 33.3161C51.6841 33.2528 51.8536 33.2162 52.0341 33.2162C52.2067 33.2162 52.3731 33.2495 52.5305 33.3127L52.5406 33.3161C52.703 33.3828 52.8462 33.4827 52.9693 33.6027C53.0893 33.7226 53.1892 33.8692 53.2558 34.0324C53.3193 34.189 53.3556 34.3589 53.3556 34.5388C53.3556 34.7153 53.3193 34.8853 53.2558 35.0452C53.1892 35.2084 53.0893 35.3551 52.9693 35.475C52.8502 35.5949 52.703 35.6949 52.5406 35.7615C52.3832 35.8248 52.2137 35.8615 52.0341 35.8615C51.8606 35.8615 51.6942 35.8281 51.5378 35.7649L51.5277 35.7615C51.3643 35.6949 51.2211 35.5949 51.098 35.475C51.0344 35.4117 50.978 35.3417 50.9285 35.2651L50.9215 35.2551C50.8983 35.2151 50.8751 35.1718 50.8519 35.1285ZM51.9706 31.9035H47.5512C47.4372 31.5303 47.2778 31.1672 47.078 30.8207L47.071 30.8107C47.0548 30.7807 47.0377 30.7541 47.0215 30.7241H51.3845V26.8761C51.3512 26.8561 51.3179 26.8361 51.2846 26.8128C51.2181 26.7661 51.1575 26.7162 51.101 26.6595C50.981 26.5395 50.8811 26.393 50.8145 26.2297C50.752 26.0732 50.7147 25.9032 50.7147 25.7233C50.7147 25.5468 50.752 25.3735 50.8145 25.2169C50.8811 25.0537 50.981 24.9105 51.101 24.7872C51.2211 24.6672 51.3673 24.5673 51.5308 24.5006C51.6871 24.4373 51.8576 24.4007 52.0372 24.4007C52.2137 24.4007 52.3832 24.4373 52.5436 24.5006C52.707 24.5673 52.8533 24.6672 52.9733 24.7872C53.0934 24.9071 53.1932 25.0537 53.2598 25.2169C53.3224 25.3735 53.3597 25.5435 53.3597 25.7233C53.3597 25.8965 53.3264 26.0632 53.2628 26.2197L53.2598 26.2297C53.1932 26.393 53.0934 26.5362 52.9733 26.6595C52.8997 26.7328 52.8129 26.7995 52.7231 26.8561C52.6737 26.886 52.6162 26.916 52.5637 26.9394V31.3104C52.5637 31.4737 52.4972 31.6203 52.3902 31.727C52.2803 31.8369 52.134 31.9035 51.9706 31.9035ZM47.3514 29.0582H45.8453C45.8857 28.8384 45.9089 28.6185 45.919 28.3986C45.926 28.2221 45.926 28.0488 45.9159 27.8789H46.7613V26.1398C46.7149 26.1164 46.6715 26.0931 46.6281 26.0632C46.5484 26.0132 46.4748 25.9532 46.4052 25.8832C46.2851 25.7633 46.1853 25.6167 46.1187 25.4535C46.0551 25.2969 46.0188 25.1269 46.0188 24.9504C46.0188 24.7738 46.0551 24.6039 46.1187 24.444C46.1853 24.2874 46.2791 24.1441 46.3951 24.0243L46.4052 24.0142C46.5252 23.8942 46.6715 23.7944 46.8349 23.7277C46.9913 23.6644 47.1608 23.6277 47.3413 23.6277C47.5209 23.6277 47.6904 23.6644 47.8477 23.7277C48.0041 23.7944 48.1473 23.8876 48.2674 24.0075L48.2765 24.0142C48.3965 24.1341 48.4933 24.2741 48.5599 24.434L48.5629 24.444C48.6265 24.6006 48.6628 24.7704 48.6628 24.9504C48.6628 25.1269 48.6265 25.3003 48.5629 25.4568C48.4964 25.6134 48.4036 25.7566 48.2866 25.8766L48.2765 25.8866C48.2139 25.9499 48.1433 26.0065 48.0636 26.0599C48.0243 26.0865 47.9839 26.1098 47.9405 26.1298V28.4686C47.9405 28.6318 47.874 28.7784 47.767 28.885C47.6611 28.9917 47.5108 29.0582 47.3514 29.0582ZM24.0104 18.9734C24.1668 19.0368 24.3372 19.0734 24.5168 19.0734C24.6964 19.0734 24.8668 19.0368 25.0232 18.9734C25.1796 18.9068 25.3228 18.8135 25.4388 18.6936L25.4489 18.6869C25.5155 18.6203 25.579 18.5437 25.6295 18.4604C25.6557 18.4171 25.6819 18.3705 25.7062 18.3204H27.8074V20.1362C28.1766 19.9396 28.5771 19.7964 28.9867 19.7131V17.7308C28.9867 17.5675 28.9201 17.4209 28.8132 17.3143C28.7062 17.2077 28.56 17.1411 28.3965 17.1411H25.686C25.6658 17.1011 25.6426 17.0611 25.6153 17.0211C25.5689 16.9511 25.5155 16.8846 25.456 16.8245L25.4459 16.8145C25.3258 16.6946 25.1796 16.5947 25.0161 16.5281C24.8598 16.4647 24.6903 16.4281 24.5097 16.4281C24.3372 16.4281 24.1668 16.4614 24.0134 16.5247L24.0033 16.5281C23.8409 16.5947 23.6977 16.6946 23.5746 16.8145C23.4546 16.9345 23.3547 17.0811 23.2881 17.2444C23.2246 17.4009 23.1882 17.5708 23.1882 17.7508C23.1882 17.9273 23.2246 18.0972 23.2881 18.2572C23.3547 18.4204 23.4546 18.567 23.5746 18.6869C23.7037 18.8069 23.847 18.9068 24.0104 18.9734ZM30.7581 15.2287V19.7797C31.1515 19.893 31.5338 20.0729 31.894 20.3327L31.9343 20.3627C31.9343 20.3527 31.9374 20.3427 31.9374 20.3327V15.2287C31.9807 15.2053 32.0241 15.182 32.0675 15.1554C32.1472 15.1055 32.2198 15.0455 32.2833 14.9822C32.4034 14.8589 32.5033 14.7157 32.5699 14.5524C32.6334 14.3958 32.6697 14.2259 32.6697 14.046C32.6697 13.8728 32.6364 13.7062 32.5729 13.5495L32.5699 13.5396C32.5033 13.3763 32.4034 13.2331 32.2833 13.1098C32.1633 12.9899 32.017 12.8899 31.8536 12.8233C31.6973 12.76 31.5278 12.7234 31.3472 12.7234C31.1707 12.7234 31.0012 12.76 30.8418 12.8233C30.6784 12.8899 30.5321 12.9899 30.4121 13.1098C30.292 13.2298 30.1922 13.3763 30.1256 13.5396C30.062 13.6962 30.0257 13.8661 30.0257 14.046C30.0257 14.2193 30.059 14.3858 30.1216 14.5424L30.1256 14.5524C30.1922 14.7157 30.292 14.8589 30.4121 14.9822C30.4746 15.0455 30.5452 15.1021 30.6219 15.1521L30.628 15.1554C30.6713 15.182 30.7117 15.2053 30.7581 15.2287ZM33.9791 14.1093V20.7659C34.1385 20.6026 34.309 20.4593 34.4815 20.3327C34.6984 20.1762 34.9243 20.0463 35.1573 19.9463V14.6956H39.0048C39.025 14.729 39.0442 14.7623 39.0684 14.7956C39.1148 14.8623 39.1642 14.9222 39.2207 14.9789C39.3407 15.0988 39.488 15.1987 39.6504 15.2654C39.8078 15.3286 39.9773 15.3653 40.1568 15.3653C40.3334 15.3653 40.5069 15.3286 40.6632 15.2654C40.8267 15.1987 40.9729 15.0988 41.093 14.9789C41.213 14.8589 41.3129 14.7124 41.3795 14.549C41.443 14.3925 41.4793 14.2226 41.4793 14.0426C41.4793 13.8661 41.443 13.6962 41.3795 13.5362C41.3129 13.373 41.213 13.2264 41.093 13.1065C40.9659 12.9865 40.8196 12.8866 40.6562 12.82C40.4998 12.7566 40.3303 12.72 40.1538 12.72C39.9803 12.72 39.8139 12.7533 39.6575 12.8167L39.6474 12.82C39.484 12.8866 39.3407 12.9865 39.2177 13.1065C39.145 13.1797 39.0774 13.2664 39.021 13.3564C38.9917 13.4063 38.9614 13.463 38.9382 13.5163H34.5682C34.4048 13.5163 34.2585 13.5829 34.1516 13.6895C34.0457 13.7994 33.9791 13.946 33.9791 14.1093ZM36.8228 18.7302V19.6431C36.9429 19.6498 37.0659 19.6598 37.186 19.6798C37.4664 19.7197 37.7388 19.7897 38.0021 19.8864V19.3233H39.7402C39.7644 19.37 39.7876 19.4132 39.8169 19.4565C39.8673 19.5365 39.9268 19.6098 39.9974 19.6798C40.1175 19.7997 40.2638 19.8997 40.4272 19.9663C40.5836 20.0296 40.753 20.0662 40.9296 20.0662C41.1061 20.0662 41.2766 20.0296 41.436 19.9663C41.5923 19.8997 41.7356 19.8064 41.8556 19.6898L41.8657 19.6798C41.9857 19.5598 42.0856 19.4132 42.1522 19.25C42.2157 19.0934 42.2521 18.9235 42.2521 18.7436C42.2521 18.5637 42.2157 18.3938 42.1522 18.2372C42.0856 18.0806 41.9918 17.9373 41.8728 17.8174L41.8657 17.8074C41.7457 17.6874 41.6054 17.5908 41.4461 17.5242L41.436 17.5209C41.2796 17.4575 41.1091 17.4209 40.9296 17.4209C40.753 17.4209 40.5795 17.4575 40.4231 17.5209C40.2668 17.5875 40.1235 17.6808 40.0035 17.7974L39.9934 17.8074C39.9309 17.8707 39.8744 17.9406 39.8209 18.0206C39.7937 18.0606 39.7705 18.1005 39.7503 18.1439H37.413C37.2495 18.1439 37.1033 18.2105 36.9964 18.3171C36.8894 18.4204 36.8228 18.567 36.8228 18.7302ZM19.8936 24.4473C19.9571 24.6039 19.9935 24.7738 19.9935 24.9537C19.9935 25.1336 19.9571 25.3036 19.8936 25.4601C19.827 25.6167 19.7342 25.76 19.6142 25.8766L19.6071 25.8866C19.5405 25.9532 19.4639 26.0165 19.3811 26.0665C19.3378 26.0931 19.2913 26.1198 19.2409 26.1431V28.2454H21.4229V28.3487C21.4229 28.4286 21.4259 28.5119 21.4289 28.5985C21.436 28.6718 21.4027 28.7451 21.3392 28.7917C21.0527 28.995 20.7964 29.2082 20.5634 29.4247H18.6578C18.4954 29.4247 18.3481 29.3581 18.2422 29.2515C18.1353 29.1449 18.0687 28.9983 18.0687 28.8351V26.1231C18.0284 26.1031 17.989 26.0798 17.9487 26.0532C17.8791 26.0065 17.8125 25.9532 17.752 25.8932L17.7419 25.8832C17.6228 25.7633 17.523 25.6167 17.4564 25.4535C17.3928 25.2969 17.3555 25.1269 17.3555 24.9471C17.3555 24.7738 17.3898 24.6072 17.4524 24.4507L17.4564 24.4407C17.523 24.2775 17.6228 24.1341 17.7419 24.0108C17.8619 23.8909 18.0092 23.791 18.1716 23.7243C18.329 23.6611 18.4984 23.6244 18.678 23.6244C18.8545 23.6244 19.025 23.6611 19.1844 23.7243C19.3478 23.791 19.4941 23.8909 19.6142 24.0108C19.7271 24.1374 19.827 24.2841 19.8936 24.4473ZM16.15 31.1938H19.2813C19.2278 31.3138 19.1814 31.437 19.138 31.557C19.0442 31.8268 18.9776 32.0968 18.9383 32.3699H16.15C16.1268 32.4132 16.1036 32.4565 16.0774 32.4999C16.027 32.5798 15.9674 32.6531 15.9039 32.7165C15.7808 32.8397 15.6376 32.9363 15.4741 33.0029C15.3178 33.0662 15.1483 33.1029 14.9677 33.1029C14.7952 33.1029 14.6278 33.0695 14.4714 33.0063L14.4613 33.0029C14.2989 32.9363 14.1557 32.8363 14.0326 32.7165C13.9126 32.5965 13.8127 32.4498 13.7461 32.2866C13.6826 32.1301 13.6463 31.9602 13.6463 31.7802C13.6463 31.6037 13.6826 31.4337 13.7461 31.2738C13.8127 31.1106 13.9126 30.964 14.0326 30.8441C14.1516 30.7241 14.2989 30.6242 14.4613 30.5575C14.6187 30.4942 14.7882 30.4576 14.9677 30.4576C15.1413 30.4576 15.3077 30.4909 15.4641 30.5541L15.4741 30.5575C15.6376 30.6242 15.7808 30.7241 15.9039 30.8441C15.9674 30.9073 16.0239 30.9773 16.0734 31.0539L16.0804 31.0639C16.1036 31.1073 16.1268 31.1505 16.15 31.1938ZM15.0313 34.4189H19.1047C19.2308 34.822 19.4144 35.2118 19.6474 35.5816V35.5849L19.6545 35.5982H15.6174V39.4463C15.6507 39.4663 15.684 39.4862 15.7173 39.5096C15.7838 39.5562 15.8444 39.6062 15.9009 39.6629C16.0209 39.7828 16.1208 39.9294 16.1874 40.0926C16.2499 40.2492 16.2872 40.4192 16.2872 40.599C16.2872 40.7757 16.2499 40.9489 16.1874 41.1054C16.1208 41.2686 16.0209 41.412 15.9009 41.5353C15.7808 41.6552 15.6345 41.7551 15.4711 41.8218C15.3148 41.885 15.1443 41.9217 14.9647 41.9217C14.7882 41.9217 14.6187 41.885 14.4583 41.8218C14.2949 41.7551 14.1486 41.6552 14.0286 41.5353C13.9085 41.4053 13.8087 41.2587 13.7421 41.0988C13.6795 40.9422 13.6422 40.7723 13.6422 40.5924C13.6422 40.4192 13.6755 40.2525 13.7391 40.0959L13.7421 40.086C13.8087 39.9227 13.9085 39.7795 14.0286 39.6562C14.1022 39.5829 14.189 39.5163 14.2788 39.4596C14.3282 39.4297 14.3847 39.3997 14.4381 39.3763V35.0053C14.4381 34.8419 14.5047 34.6954 14.6116 34.5887C14.7216 34.4855 14.8679 34.4189 15.0313 34.4189ZM19.6505 37.2641H20.75C20.7127 37.4839 20.6936 37.7005 20.6865 37.9138C20.6794 38.0936 20.6835 38.2703 20.6966 38.4435H20.2406V40.1826C20.287 40.2059 20.3304 40.2292 20.3738 40.2592C20.4535 40.3092 20.5271 40.3691 20.5967 40.4391C20.7168 40.5591 20.8166 40.7056 20.8832 40.8689C20.9467 41.0255 20.9831 41.1954 20.9831 41.3753C20.9831 41.5552 20.9467 41.7218 20.8832 41.8817C20.8166 42.0383 20.7228 42.1816 20.6068 42.3015L20.5967 42.3115C20.4767 42.4315 20.3304 42.5313 20.167 42.598C20.0106 42.6614 19.8401 42.698 19.6606 42.698C19.481 42.698 19.3115 42.6614 19.1542 42.598C18.9978 42.5313 18.8545 42.4381 18.7345 42.3182L18.7244 42.3115C18.6054 42.1916 18.5085 42.0517 18.442 41.8917L18.4389 41.8817C18.3754 41.7251 18.3381 41.5552 18.3381 41.3753C18.3381 41.1987 18.3754 41.0255 18.4389 40.8689C18.5055 40.7123 18.5983 40.5691 18.7153 40.4491L18.7244 40.4391C18.788 40.3758 18.8586 40.3192 18.9383 40.2658C18.9776 40.2392 19.018 40.2159 19.0613 40.1959V37.8571C19.0613 37.6939 19.1279 37.5473 19.2349 37.4406C19.3408 37.3274 19.4881 37.2641 19.6505 37.2641ZM35.6345 51.1503V46.4894C35.2179 46.3594 34.8245 46.1495 34.4653 45.853L34.4583 45.8464V51.1536C34.4149 51.1769 34.3715 51.2002 34.3281 51.227C34.2484 51.2769 34.1758 51.3368 34.1123 51.4002C33.9922 51.5234 33.8923 51.6667 33.8258 51.8299C33.7622 51.9866 33.7259 52.1565 33.7259 52.3363C33.7259 52.5096 33.7592 52.6762 33.8227 52.8327L33.8258 52.8427C33.8923 53.006 33.9922 53.1493 34.1123 53.2726C34.2323 53.3925 34.3786 53.4925 34.542 53.559C34.6984 53.6224 34.8678 53.659 35.0484 53.659C35.2249 53.659 35.3944 53.6224 35.5538 53.559C35.7172 53.4925 35.8635 53.3925 35.9835 53.2726C36.1036 53.1526 36.2035 53.006 36.27 52.8427C36.3336 52.6862 36.3699 52.5163 36.3699 52.3363C36.3699 52.1631 36.3366 51.9966 36.2741 51.8399L36.27 51.8299C36.2035 51.6667 36.1036 51.5234 35.9835 51.4002C35.921 51.3368 35.8504 51.2802 35.7737 51.2303L35.7636 51.2236C35.7203 51.1969 35.6779 51.1736 35.6345 51.1503ZM32.4105 52.2697V45.5531C32.2702 45.6965 32.124 45.8231 31.9706 45.9397C31.7336 46.1195 31.4874 46.2628 31.2312 46.3761V51.6867H27.3848C27.3646 51.6534 27.3444 51.6201 27.3212 51.5867C27.2748 51.5201 27.2243 51.4601 27.1679 51.4035C27.0478 51.2836 26.9015 51.1836 26.7381 51.117C26.5818 51.0537 26.4123 51.017 26.2317 51.017C26.0552 51.017 25.8827 51.0537 25.7253 51.117C25.5629 51.1836 25.4197 51.2836 25.2956 51.4035C25.1765 51.5234 25.0767 51.67 25.0101 51.8332C24.9465 51.9899 24.9102 52.1598 24.9102 52.3396C24.9102 52.5163 24.9465 52.6862 25.0101 52.846C25.0767 53.0094 25.1765 53.1559 25.2956 53.2759C25.4156 53.3958 25.5629 53.4958 25.7253 53.5624C25.8827 53.6257 26.0522 53.6623 26.2317 53.6623C26.4052 53.6623 26.5717 53.6291 26.728 53.5657L26.7381 53.5624C26.9015 53.4958 27.0448 53.3958 27.1679 53.2759C27.2415 53.2025 27.3081 53.116 27.3646 53.026C27.3938 52.976 27.4241 52.9194 27.4473 52.8661H31.8173C31.9807 52.8661 32.127 52.7994 32.2339 52.6928C32.3439 52.5795 32.4105 52.433 32.4105 52.2697ZM29.5657 47.6487V46.6792C29.3065 46.6659 29.0462 46.6259 28.793 46.5627C28.6568 46.5293 28.5196 46.486 28.3865 46.4394V47.0623H26.6483C26.6251 47.0157 26.6019 46.9725 26.5717 46.9291C26.5212 46.8492 26.4617 46.7758 26.3921 46.7059C26.2721 46.586 26.1258 46.486 25.9624 46.4193C25.806 46.3561 25.6355 46.3195 25.459 46.3195C25.2825 46.3195 25.113 46.3561 24.9526 46.4193C24.7962 46.486 24.653 46.5793 24.5329 46.6959L24.5239 46.7026C24.4038 46.8225 24.3039 46.9691 24.2374 47.1323C24.1738 47.2889 24.1375 47.4589 24.1375 47.6387C24.1375 47.8186 24.1738 47.9886 24.2374 48.1452C24.3039 48.3017 24.3968 48.445 24.5168 48.5649L24.5239 48.5749C24.6429 48.6948 24.7831 48.7915 24.9435 48.8582L24.9526 48.8615C25.11 48.9247 25.2794 48.9615 25.459 48.9615C25.6355 48.9615 25.806 48.9247 25.9654 48.8615C26.1218 48.7948 26.265 48.7015 26.385 48.585L26.3951 48.5749C26.4587 48.5116 26.5152 48.4416 26.5686 48.3617C26.5949 48.3217 26.6181 48.2817 26.6383 48.2385H28.9766C29.14 48.2385 29.2863 48.1718 29.3922 48.0652C29.4991 47.9586 29.5657 47.812 29.5657 47.6487Z" fill="#4169E1"/>
</g>
</svg>
