<svg width="20" height="49" viewBox="0 0 20 49" fill="none" xmlns="http://www.w3.org/2000/svg">
<path d="M5.97656 25.1797C5.97656 25.6745 5.79753 26.1009 5.43945 26.459C5.08138 26.8171 4.65495 26.9961 4.16016 26.9961C3.65234 26.9961 3.2194 26.8171 2.86133 26.459C2.50326 26.1009 2.32422 25.6745 2.32422 25.1797C2.32422 24.6719 2.50326 24.2389 2.86133 23.8809C3.2194 23.5228 3.65234 23.3438 4.16016 23.3438C4.65495 23.3438 5.08138 23.5228 5.43945 23.8809C5.79753 24.2389 5.97656 24.6719 5.97656 25.1797ZM7.69531 28.3828V38.5H10.8398V33.5C10.8398 32.8359 10.9505 32.237 11.1719 31.7031C11.3932 31.1693 11.9076 30.9023 12.7148 30.9023C13.5221 30.9023 13.9974 31.2018 14.1406 31.8008C14.2839 32.3997 14.3555 32.9922 14.3555 33.5781V38.5H17.5V32.9531C17.5 31.5859 17.2689 30.4401 16.8066 29.5156C16.3444 28.5911 15.319 28.1289 13.7305 28.1289C12.9622 28.1289 12.3275 28.3014 11.8262 28.6465C11.3249 28.9915 10.9701 29.3659 10.7617 29.7695H10.7031V28.3828H7.69531ZM2.57812 28.3828H5.72266V38.5H2.57812V28.3828Z" fill="white" fill-opacity="0.7"/>
<rect x="8.75" width="2.5" height="2.5" fill="white" fill-opacity="0.2"/>
</svg>
