<svg width="103" height="115" viewBox="0 0 103 115" fill="none" xmlns="http://www.w3.org/2000/svg">
<path d="M48.6048 66.4198C66.8768 66.4198 81.6892 51.6074 81.6892 33.3354C81.6892 15.0634 66.8768 0.250954 48.6048 0.250954C30.3327 0.250954 15.5203 15.0634 15.5203 33.3354C15.5203 51.6074 30.3327 66.4198 48.6048 66.4198Z" stroke="#4169E1" stroke-width="0.5" stroke-dasharray="4 4"/>
<path d="M5.71925 90.5319V78.8194H7.69416L11.695 88.1489H11.7801L15.7639 78.8194H17.7388V90.5319H16.3086V81.1683H16.2406L12.2398 90.5319H11.1672L7.16636 81.1683H7.0983V90.5319H5.71925ZM24.3486 90.6684C23.6336 90.6684 23.0377 90.6233 22.561 90.5319C22.0956 90.4526 21.7268 90.3161 21.4544 90.1234C21.182 89.9306 20.9777 89.6636 20.8415 89.3233C20.7167 88.983 20.6372 88.5574 20.6032 88.0465C20.5691 87.5245 20.5521 86.9061 20.5521 86.1904C20.5521 85.4757 20.5691 84.8624 20.6032 84.3524C20.6372 83.8304 20.7167 83.3988 20.8415 83.0585C20.9777 82.7182 21.182 82.4512 21.4544 82.2585C21.7268 82.0647 22.0956 81.9292 22.561 81.8499C23.0377 81.7586 23.6336 81.7134 24.3486 81.7134C25.075 81.7134 25.6708 81.7586 26.1362 81.8499C26.6016 81.9292 26.9705 82.0647 27.2428 82.2585C27.5266 82.4512 27.7309 82.7182 27.8557 83.0585C27.992 83.3988 28.0771 83.8304 28.1111 84.3524C28.1451 84.8624 28.1622 85.4757 28.1622 86.1904C28.1622 86.9061 28.1451 87.5245 28.1111 88.0465C28.0771 88.5574 27.992 88.983 27.8557 89.3233C27.7309 89.6636 27.5266 89.9306 27.2428 90.1234C26.9705 90.3161 26.6016 90.4526 26.1362 90.5319C25.6708 90.6233 25.075 90.6684 24.3486 90.6684ZM24.3486 89.494C24.9615 89.494 25.4325 89.4538 25.7617 89.3745C26.0908 89.2952 26.3235 89.1416 26.4597 88.9148C26.6072 88.6879 26.6923 88.3587 26.7151 87.927C26.7491 87.4843 26.7661 86.9061 26.7661 86.1904C26.7661 85.4757 26.7491 84.9025 26.7151 84.4709C26.6923 84.0282 26.6072 83.6939 26.4597 83.467C26.3235 83.2402 26.0908 83.0866 25.7617 83.0073C25.4325 82.928 24.9615 82.8878 24.3486 82.8878C23.7471 82.8878 23.276 82.928 22.9355 83.0073C22.6064 83.0866 22.3737 83.2402 22.2376 83.467C22.1014 83.6939 22.0162 84.0282 21.9822 84.4709C21.9481 84.9025 21.9311 85.4757 21.9311 86.1904C21.9311 86.9061 21.9481 87.4843 21.9822 87.927C22.0162 88.3587 22.1014 88.6879 22.2376 88.9148C22.3737 89.1416 22.6064 89.2952 22.9355 89.3745C23.276 89.4538 23.7471 89.494 24.3486 89.494ZM35.0086 90.6684C34.6114 90.6684 34.2255 90.6343 33.8509 90.5661C33.4764 90.5098 33.1416 90.3844 32.8465 90.1916C32.5514 89.9868 32.3187 89.6867 32.1485 89.2892H32.0464L31.9953 90.5319H30.7354V77.8828H32.1315V82.9561H32.2166C32.3755 82.6379 32.5854 82.389 32.8465 82.2073C33.1189 82.0256 33.4367 81.9001 33.7998 81.8328C34.1631 81.7525 34.5773 81.7134 35.0427 81.7134C35.667 81.7134 36.1833 81.7867 36.592 81.9342C37.0005 82.0707 37.3241 82.3036 37.5624 82.6329C37.8007 82.9621 37.9653 83.4159 38.056 83.9951C38.1582 84.5733 38.2093 85.305 38.2093 86.1904C38.2093 87.0758 38.1582 87.8086 38.056 88.3868C37.954 88.966 37.7837 89.4197 37.5453 89.7489C37.307 90.0782 36.9778 90.3161 36.5579 90.4637C36.1493 90.6002 35.6329 90.6684 35.0086 90.6684ZM34.4639 89.4428C34.986 89.4428 35.4002 89.4087 35.7067 89.3404C36.0244 89.2611 36.2628 89.1135 36.4217 88.8977C36.5806 88.6819 36.6884 88.3587 36.7452 87.927C36.802 87.4964 36.8303 86.9172 36.8303 86.1904C36.8303 85.4647 36.802 84.8915 36.7452 84.4709C36.6884 84.0402 36.5806 83.716 36.4217 83.5012C36.2628 83.2743 36.0244 83.1268 35.7067 83.0585C35.4002 82.9902 34.986 82.9561 34.4639 82.9561C33.9078 82.9561 33.4651 83.0294 33.1359 83.1769C32.8068 83.3135 32.5741 83.5353 32.4379 83.8415C32.3018 84.1366 32.2166 84.4769 32.1825 84.8624C32.1485 85.2378 32.1315 85.6805 32.1315 86.1904C32.1315 86.6903 32.1429 87.133 32.1655 87.5185C32.1996 87.8929 32.2847 88.2282 32.4209 88.5233C32.5685 88.8405 32.8068 89.0734 33.1359 89.2209C33.4651 89.3685 33.9078 89.4428 34.4639 89.4428ZM40.7434 79.3976V77.8828H42.2245V79.3976H40.7434ZM40.7774 90.5319V81.8499H42.1734V90.5319H40.7774ZM45.1001 90.5319V77.8828H46.4961V90.5319H45.1001ZM52.9639 90.6684C52.2603 90.6684 51.67 90.6233 51.1933 90.5319C50.728 90.4416 50.3535 90.294 50.0697 90.0892C49.786 89.8734 49.5703 89.5954 49.4228 89.2551C49.2752 88.9037 49.1787 88.4781 49.1334 87.9782C49.088 87.4793 49.0652 86.8891 49.0652 86.2075C49.0652 85.4024 49.0993 84.7148 49.1674 84.1476C49.2355 83.5694 49.3887 83.1037 49.627 82.7513C49.8768 82.3889 50.2627 82.128 50.7847 81.9684C51.3068 81.7987 52.0105 81.7134 52.8959 81.7134C53.5654 81.7134 54.1103 81.7646 54.5302 81.867C54.9615 81.9684 55.302 82.128 55.5517 82.3428C55.8014 82.5586 55.983 82.8487 56.0965 83.2111C56.2213 83.5634 56.3008 83.989 56.3349 84.4879C56.3689 84.9768 56.386 85.544 56.386 86.1904V86.6502H50.4443C50.4443 87.2404 50.4727 87.7232 50.5294 88.0977C50.5861 88.4721 50.6996 88.7612 50.8699 88.966C51.0515 89.1697 51.3295 89.3123 51.704 89.3916C52.09 89.4709 52.6121 89.511 53.2704 89.511C53.5427 89.511 53.8436 89.505 54.1727 89.494C54.5018 89.4709 54.8309 89.4428 55.1601 89.4087C55.4892 89.3745 55.7844 89.3404 56.0455 89.3063V90.4295C55.807 90.4757 55.5119 90.5149 55.1601 90.549C54.8196 90.5831 54.4564 90.6112 54.0705 90.6343C53.696 90.6574 53.3271 90.6684 52.9639 90.6684ZM55.0409 85.9525V85.4928C55.0409 84.9025 55.0069 84.4367 54.9388 84.0964C54.8707 83.7451 54.7515 83.4841 54.5813 83.3135C54.4224 83.1318 54.201 83.0123 53.9174 82.9561C53.6336 82.8989 53.2817 82.8708 52.8617 82.8708C52.317 82.8708 51.8857 82.9109 51.5679 82.9902C51.2501 83.0585 51.0117 83.189 50.8528 83.3817C50.694 83.5745 50.5861 83.8525 50.5294 84.2159C50.4727 84.5793 50.4443 85.0611 50.4443 85.6634H55.3645L55.0409 85.9525ZM61.9521 90.5319L66.3786 78.8194H68.2172L72.6266 90.5319H71.1115L69.9027 87.3318H64.642L63.4333 90.5319H61.9521ZM65.0846 86.0549H69.46L67.3149 80.3171H67.2298L65.0846 86.0549ZM74.5775 93.9198V81.8499H75.8373L75.8884 83.0926H75.9906C76.1609 82.7062 76.3936 82.411 76.6887 82.2073C76.9838 82.0025 77.3181 81.872 77.6935 81.8158C78.0679 81.7475 78.4534 81.7134 78.8509 81.7134C79.4753 81.7134 79.9912 81.7816 80.3998 81.9172C80.8204 82.0537 81.1486 82.2926 81.3875 82.6329C81.6254 82.9621 81.7961 83.4159 81.8985 83.9951C81.9999 84.5733 82.0511 85.3 82.0511 86.1733C82.0511 87.0587 81.9999 87.7965 81.8985 88.3868C81.8071 88.966 81.6425 89.4197 81.4046 89.7489C81.1657 90.0782 80.8425 90.3161 80.4339 90.4637C80.0254 90.6002 79.5094 90.6684 78.885 90.6684C78.4193 90.6684 78.0057 90.6283 77.6423 90.549C77.2789 90.4807 76.9607 90.3563 76.6887 90.1746C76.4277 89.9929 76.2176 89.7429 76.0587 89.4257H75.9735V93.9198H74.5775ZM78.3058 89.4257C78.8278 89.4257 79.2424 89.3916 79.5485 89.3233C79.8668 89.2551 80.1047 89.1135 80.2643 88.8977C80.4229 88.6708 80.5303 88.3476 80.5875 87.927C80.6437 87.4964 80.6728 86.9172 80.6728 86.1904C80.6728 85.4647 80.6437 84.8854 80.5875 84.4538C80.5303 84.0232 80.4229 83.6999 80.2643 83.4841C80.1047 83.2683 79.8668 83.1268 79.5485 83.0585C79.2424 82.9792 78.8278 82.939 78.3058 82.939C77.7276 82.939 77.2679 83.0244 76.9266 83.194C76.5973 83.3536 76.3594 83.6086 76.212 83.9609C76.0984 84.233 76.0304 84.5562 76.0076 84.9306C75.9849 85.305 75.9735 85.7256 75.9735 86.1904C75.9735 86.6672 75.9849 87.0878 76.0076 87.4502C76.0304 87.8025 76.0871 88.0977 76.1778 88.3356C76.3363 88.7331 76.5863 89.0172 76.9266 89.1868C77.2679 89.3464 77.7276 89.4257 78.3058 89.4257ZM84.6198 93.9198V81.8499H85.8796L85.9308 83.0926H86.0322C86.2029 82.7062 86.4357 82.411 86.7309 82.2073C87.026 82.0025 87.3603 81.872 87.7347 81.8158C88.1091 81.7475 88.4956 81.7134 88.8931 81.7134C89.5165 81.7134 90.0334 81.7816 90.442 81.9172C90.8616 82.0537 91.1908 82.2926 91.4297 82.6329C91.6676 82.9621 91.8383 83.4159 91.9397 83.9951C92.0421 84.5733 92.0933 85.3 92.0933 86.1733C92.0933 87.0587 92.0421 87.7965 91.9397 88.3868C91.8493 88.966 91.6847 89.4197 91.4468 89.7489C91.2079 90.0782 90.8847 90.3161 90.4761 90.4637C90.0676 90.6002 89.5506 90.6684 88.9272 90.6684C88.4614 90.6684 88.0469 90.6283 87.6835 90.549C87.3211 90.4807 87.0029 90.3563 86.7309 90.1746C86.4699 89.9929 86.2591 89.7429 86.1005 89.4257H86.0151V93.9198H84.6198ZM88.348 89.4257C88.87 89.4257 89.2846 89.3916 89.5907 89.3233C89.909 89.2551 90.1469 89.1135 90.3055 88.8977C90.4651 88.6708 90.5725 88.3476 90.6297 87.927C90.6859 87.4964 90.714 86.9172 90.714 86.1904C90.714 85.4647 90.6859 84.8854 90.6297 84.4538C90.5725 84.0232 90.4651 83.6999 90.3055 83.4841C90.1469 83.2683 89.909 83.1268 89.5907 83.0585C89.2846 82.9792 88.87 82.939 88.348 82.939C87.7688 82.939 87.3091 83.0244 86.9688 83.194C86.6395 83.3536 86.4016 83.6086 86.2541 83.9609C86.1406 84.233 86.0724 84.5562 86.0493 84.9306C86.0272 85.305 86.0151 85.7256 86.0151 86.1904C86.0151 86.6672 86.0272 87.0878 86.0493 87.4502C86.0724 87.8025 86.1286 88.0977 86.2199 88.3356C86.3785 88.7331 86.6285 89.0172 86.9688 89.1868C87.3091 89.3464 87.7688 89.4257 88.348 89.4257ZM0 111.612V99.8996H3.71142C4.67618 99.8996 5.46499 99.9447 6.07782 100.035C6.69075 100.126 7.17308 100.291 7.52492 100.529C7.8881 100.768 8.15491 101.108 8.32516 101.551C8.49541 101.994 8.60322 102.555 8.64859 103.236C8.69397 103.917 8.71665 104.757 8.71665 105.756C8.71665 106.755 8.69397 107.595 8.64859 108.275C8.60322 108.956 8.49541 109.518 8.32516 109.961C8.15491 110.404 7.8881 110.744 7.52492 110.983C7.17308 111.221 6.69075 111.385 6.07782 111.476C5.46499 111.567 4.67618 111.612 3.71142 111.612H0ZM1.46417 110.352H3.47301C4.18813 110.352 4.77827 110.335 5.24364 110.301C5.70901 110.267 6.07782 110.183 6.35025 110.046C6.62259 109.899 6.82124 109.666 6.94612 109.347C7.07099 109.019 7.1504 108.565 7.18443 107.986C7.2299 107.407 7.25258 106.663 7.25258 105.756C7.25258 104.847 7.2299 104.11 7.18443 103.542C7.1504 102.963 7.06527 102.509 6.92905 102.18C6.80428 101.851 6.60562 101.619 6.33319 101.483C6.06085 101.335 5.69195 101.245 5.22658 101.211C4.77265 101.176 4.18813 101.159 3.47301 101.159H1.46417V110.352ZM15.0406 111.749C14.3369 111.749 13.7467 111.703 13.27 111.612C12.8047 111.522 12.4301 111.374 12.1464 111.169C11.8626 110.954 11.647 110.676 11.4994 110.335C11.3519 109.984 11.2554 109.558 11.21 109.058C11.1647 108.559 11.1419 107.969 11.1419 107.288C11.1419 106.483 11.176 105.795 11.2441 105.228C11.3121 104.65 11.4654 104.184 11.7037 103.832C11.9535 103.469 12.3393 103.208 12.8614 103.049C13.3835 102.879 14.0872 102.794 14.9724 102.794C15.6421 102.794 16.187 102.845 16.6069 102.947C17.0382 103.049 17.3787 103.208 17.6283 103.423C17.8781 103.639 18.0597 103.929 18.1731 104.291C18.298 104.644 18.3774 105.069 18.4115 105.568C18.4456 106.057 18.4626 106.624 18.4626 107.271V107.73H12.5209C12.5209 108.321 12.5493 108.803 12.606 109.178C12.6628 109.552 12.7763 109.841 12.9465 110.046C13.1281 110.25 13.4062 110.392 13.7807 110.472C14.1667 110.551 14.6888 110.591 15.3471 110.591C15.6194 110.591 15.9202 110.585 16.2493 110.574C16.5785 110.551 16.9076 110.523 17.2368 110.489C17.5659 110.455 17.861 110.421 18.122 110.386V111.51C17.8837 111.556 17.5886 111.595 17.2368 111.629C16.8963 111.663 16.5331 111.691 16.1472 111.714C15.7727 111.738 15.4038 111.749 15.0406 111.749ZM17.1176 107.033V106.573C17.1176 105.983 17.0836 105.517 17.0154 105.177C16.9474 104.825 16.8282 104.564 16.658 104.394C16.4991 104.212 16.2777 104.093 15.9939 104.036C15.7103 103.979 15.3584 103.951 14.9384 103.951C14.3936 103.951 13.9624 103.991 13.6446 104.07C13.3268 104.139 13.0884 104.269 12.9295 104.462C12.7706 104.655 12.6628 104.933 12.606 105.296C12.5493 105.659 12.5209 106.141 12.5209 106.744H17.441L17.1176 107.033ZM23.1885 111.612L20.0049 102.93H21.452L24.0057 110.166H24.1419L26.6787 102.93H28.1087L24.9251 111.612H23.1885ZM33.4121 111.749C32.7084 111.749 32.1182 111.703 31.6414 111.612C31.1762 111.522 30.8015 111.374 30.5179 111.169C30.2341 110.954 30.0185 110.676 29.8709 110.335C29.7233 109.984 29.6269 109.558 29.5815 109.058C29.536 108.559 29.5133 107.969 29.5133 107.288C29.5133 106.483 29.5474 105.795 29.6155 105.228C29.6836 104.65 29.8369 104.184 30.0752 103.832C30.3249 103.469 30.7108 103.208 31.2329 103.049C31.755 102.879 32.4587 102.794 33.3439 102.794C34.0136 102.794 34.5583 102.845 34.9783 102.947C35.4096 103.049 35.7501 103.208 35.9998 103.423C36.2495 103.639 36.4311 103.929 36.5446 104.291C36.6695 104.644 36.7489 105.069 36.783 105.568C36.817 106.057 36.834 106.624 36.834 107.271V107.73H30.8924C30.8924 108.321 30.9208 108.803 30.9775 109.178C31.0342 109.552 31.1478 109.841 31.318 110.046C31.4996 110.25 31.7777 110.392 32.1522 110.472C32.5382 110.551 33.0602 110.591 33.7185 110.591C33.9909 110.591 34.2916 110.585 34.6208 110.574C34.9499 110.551 35.2791 110.523 35.6082 110.489C35.9374 110.455 36.2325 110.421 36.4935 110.386V111.51C36.2552 111.556 35.9601 111.595 35.6082 111.629C35.2677 111.663 34.9046 111.691 34.5187 111.714C34.1442 111.738 33.7753 111.749 33.4121 111.749ZM35.4891 107.033V106.573C35.4891 105.983 35.455 105.517 35.3869 105.177C35.3188 104.825 35.1997 104.564 35.0294 104.394C34.8705 104.212 34.6492 104.093 34.3654 104.036C34.0817 103.979 33.7299 103.951 33.3099 103.951C32.7651 103.951 32.3338 103.991 32.016 104.07C31.6983 104.139 31.4599 104.269 31.3009 104.462C31.142 104.655 31.0342 104.933 30.9775 105.296C30.9208 105.659 30.8924 106.141 30.8924 106.744H35.8125L35.4891 107.033ZM39.3808 111.612V98.963H40.7769V111.612H39.3808ZM47.1425 111.749C46.4275 111.749 45.8316 111.703 45.3549 111.612C44.8896 111.533 44.5207 111.396 44.2483 111.204C43.976 111.011 43.7716 110.744 43.6355 110.403C43.5106 110.063 43.4311 109.638 43.3971 109.127C43.363 108.605 43.346 107.986 43.346 107.271C43.346 106.556 43.363 105.943 43.3971 105.433C43.4311 104.911 43.5106 104.479 43.6355 104.139C43.7716 103.798 43.976 103.531 44.2483 103.339C44.5207 103.145 44.8896 103.009 45.3549 102.93C45.8316 102.839 46.4275 102.794 47.1425 102.794C47.869 102.794 48.4648 102.839 48.9301 102.93C49.3955 103.009 49.7644 103.145 50.0367 103.339C50.3205 103.531 50.5248 103.798 50.6496 104.139C50.7859 104.479 50.871 104.911 50.905 105.433C50.939 105.943 50.9561 106.556 50.9561 107.271C50.9561 107.986 50.939 108.605 50.905 109.127C50.871 109.638 50.7859 110.063 50.6496 110.403C50.5248 110.744 50.3205 111.011 50.0367 111.204C49.7644 111.396 49.3955 111.533 48.9301 111.612C48.4648 111.703 47.869 111.749 47.1425 111.749ZM47.1425 110.574C47.7554 110.574 48.2264 110.534 48.5556 110.455C48.8847 110.375 49.1174 110.222 49.2536 109.995C49.4012 109.768 49.4863 109.439 49.509 109.007C49.543 108.565 49.5601 107.986 49.5601 107.271C49.5601 106.556 49.543 105.983 49.509 105.551C49.4863 105.108 49.4012 104.774 49.2536 104.547C49.1174 104.32 48.8847 104.167 48.5556 104.087C48.2264 104.008 47.7554 103.968 47.1425 103.968C46.541 103.968 46.0699 104.008 45.7294 104.087C45.4004 104.167 45.1677 104.32 45.0315 104.547C44.8952 104.774 44.8101 105.108 44.7761 105.551C44.7421 105.983 44.725 106.556 44.725 107.271C44.725 107.986 44.7421 108.565 44.7761 109.007C44.8101 109.439 44.8952 109.768 45.0315 109.995C45.1677 110.222 45.4004 110.375 45.7294 110.455C46.0699 110.534 46.541 110.574 47.1425 110.574ZM53.5294 115V102.93H54.7892L54.8403 104.173H54.9424C55.1126 103.786 55.3453 103.491 55.6404 103.287C55.9355 103.083 56.2703 102.952 56.6448 102.896C57.0195 102.828 57.4053 102.794 57.8025 102.794C58.4268 102.794 58.9432 102.862 59.3518 102.997C59.7717 103.134 60.1009 103.373 60.3393 103.713C60.5776 104.042 60.7478 104.496 60.85 105.075C60.9521 105.653 61.0032 106.38 61.0032 107.254C61.0032 108.139 60.9521 108.877 60.85 109.467C60.7592 110.046 60.5947 110.5 60.3563 110.829C60.1179 111.158 59.7944 111.396 59.3859 111.544C58.9773 111.68 58.4608 111.749 57.8366 111.749C57.3713 111.749 56.957 111.708 56.5938 111.629C56.2306 111.561 55.9129 111.436 55.6404 111.255C55.3793 111.073 55.1694 110.823 55.0105 110.506H54.9254V115H53.5294ZM57.2578 110.506C57.7799 110.506 58.1941 110.472 58.5006 110.403C58.8184 110.335 59.0567 110.194 59.2156 109.978C59.3745 109.751 59.4823 109.428 59.539 109.007C59.5959 108.577 59.6242 107.997 59.6242 107.271C59.6242 106.545 59.5959 105.966 59.539 105.534C59.4823 105.103 59.3745 104.78 59.2156 104.564C59.0567 104.348 58.8184 104.207 58.5006 104.139C58.1941 104.059 57.7799 104.019 57.2578 104.019C56.679 104.019 56.2192 104.105 55.8787 104.274C55.5496 104.434 55.3113 104.689 55.1637 105.041C55.0503 105.313 54.9821 105.636 54.9594 106.011C54.9367 106.385 54.9254 106.806 54.9254 107.271C54.9254 107.747 54.9367 108.168 54.9594 108.53C54.9821 108.883 55.0388 109.178 55.1297 109.416C55.2886 109.813 55.5382 110.097 55.8787 110.267C56.2192 110.427 56.679 110.506 57.2578 110.506ZM63.5713 111.612V102.93H64.8312L64.8822 104.173H64.9844C65.0865 103.9 65.2397 103.662 65.444 103.457C65.6596 103.253 65.9378 103.094 66.2783 102.98C66.6301 102.856 67.0784 102.794 67.6232 102.794C68.395 102.794 68.9681 102.907 69.3427 103.134C69.7173 103.35 69.9782 103.696 70.1258 104.173H70.228C70.3415 103.9 70.5061 103.662 70.7217 103.457C70.9374 103.253 71.2268 103.094 71.59 102.98C71.9532 102.856 72.4015 102.794 72.9349 102.794C73.7181 102.794 74.3026 102.913 74.6885 103.151C75.0743 103.389 75.3297 103.758 75.4546 104.257C75.5795 104.757 75.6419 105.398 75.6419 106.181V111.612H74.2628V106.658C74.2628 106.068 74.2402 105.602 74.1948 105.262C74.1493 104.911 74.0642 104.65 73.9394 104.479C73.8145 104.297 73.6272 104.178 73.3776 104.122C73.1278 104.064 72.7931 104.036 72.3732 104.036C71.8851 104.036 71.4991 104.105 71.2155 104.24C70.9317 104.366 70.7217 104.558 70.5855 104.819C70.4607 105.08 70.3812 105.403 70.3471 105.79C70.3131 106.175 70.2961 106.624 70.2961 107.135V111.612H68.9171V106.658C68.9171 106.068 68.8944 105.602 68.8489 105.262C68.8036 104.911 68.7185 104.65 68.5936 104.479C68.4688 104.297 68.2815 104.178 68.0317 104.122C67.7821 104.064 67.4472 104.036 67.0273 104.036C66.5393 104.036 66.1534 104.11 65.8696 104.257C65.5859 104.394 65.3816 104.592 65.2568 104.853C65.1319 105.114 65.0524 105.438 65.0184 105.824C64.9844 106.21 64.9673 106.646 64.9673 107.135V111.612H63.5713ZM82.1253 111.749C81.4217 111.749 80.8314 111.703 80.3546 111.612C79.8899 111.522 79.5154 111.374 79.2313 111.169C78.9473 110.954 78.7314 110.676 78.5839 110.335C78.4363 109.984 78.3399 109.558 78.2948 109.058C78.2496 108.559 78.2265 107.969 78.2265 107.288C78.2265 106.483 78.2606 105.795 78.3289 105.228C78.3972 104.65 78.5507 104.184 78.7887 103.832C79.0386 103.469 79.4241 103.208 79.9461 103.049C80.468 102.879 81.1717 102.794 82.0571 102.794C82.7266 102.794 83.2717 102.845 83.6913 102.947C84.1229 103.049 84.4632 103.208 84.7132 103.423C84.9631 103.639 85.1448 103.929 85.2583 104.291C85.3827 104.644 85.462 105.069 85.4962 105.568C85.5303 106.057 85.5474 106.624 85.5474 107.271V107.73H79.6058C79.6058 108.321 79.6339 108.803 79.6911 109.178C79.7473 109.552 79.8607 109.841 80.0314 110.046C80.2131 110.25 80.4911 110.392 80.8656 110.472C81.252 110.551 81.774 110.591 82.4315 110.591C82.7046 110.591 83.0047 110.585 83.3339 110.574C83.6632 110.551 83.9924 110.523 84.3217 110.489C84.651 110.455 84.9461 110.421 85.2071 110.386V111.51C84.9682 111.556 84.674 111.595 84.3217 111.629C83.9814 111.663 83.618 111.691 83.2326 111.714C82.8571 111.738 82.4887 111.749 82.1253 111.749ZM84.2022 107.033V106.573C84.2022 105.983 84.1681 105.517 84.1009 105.177C84.0326 104.825 83.9131 104.564 83.7425 104.394C83.5839 104.212 83.3631 104.093 83.079 104.036C82.7949 103.979 82.4436 103.951 82.023 103.951C81.4789 103.951 81.0472 103.991 80.729 104.07C80.4118 104.139 80.1729 104.269 80.0143 104.462C79.8557 104.655 79.7473 104.933 79.6911 105.296C79.6339 105.659 79.6058 106.141 79.6058 106.744H84.5265L84.2022 107.033ZM88.094 111.612V102.93H89.3538L89.405 104.173H89.5074C89.6319 103.9 89.8026 103.662 90.0184 103.457C90.2452 103.253 90.5454 103.094 90.9208 102.98C91.3063 102.856 91.7941 102.794 92.3844 102.794C93.0318 102.794 93.5478 102.862 93.9343 102.997C94.3197 103.134 94.6148 103.339 94.8186 103.611C95.0344 103.883 95.177 104.235 95.2442 104.666C95.3125 105.086 95.3466 105.591 95.3466 106.181V111.612H93.9674V106.658C93.9674 106.068 93.9393 105.602 93.8831 105.262C93.8369 104.911 93.7405 104.65 93.593 104.479C93.4454 104.297 93.2306 104.178 92.9465 104.122C92.6624 104.064 92.288 104.036 91.8222 104.036C91.2661 104.036 90.8295 104.11 90.5122 104.257C90.194 104.394 89.9612 104.598 89.8136 104.87C89.666 105.131 89.5757 105.455 89.5416 105.841C89.5074 106.216 89.4904 106.646 89.4904 107.135V111.612H88.094ZM99.0176 111.612V104.105H97.2639V102.93H99.0176V100.409H100.397V102.93H102.474V104.105H100.397V111.612H99.0176Z" fill="#CCCCCC"/>
<path d="M44.2921 32.1368H36.1851C35.3564 32.1328 34.563 31.8016 33.9771 31.2153C33.3911 30.6291 33.06 29.8361 33.0558 29.0069V20.9001C33.06 20.072 33.3911 19.2779 33.9771 18.6927C34.563 18.1065 35.3564 17.7752 36.1851 17.7712H44.2921C45.1208 17.7752 45.9142 18.1065 46.5001 18.6927C47.0861 19.2779 47.4172 20.072 47.4214 20.9001V29.0069C47.4172 29.8361 47.0861 30.6291 46.5001 31.2153C45.9142 31.8016 45.1208 32.1328 44.2921 32.1368ZM36.1851 20.2035C36.0015 20.2075 35.8265 20.2818 35.6966 20.4123C35.5668 20.5418 35.492 20.7164 35.4879 20.9001V29.0069C35.4879 29.1927 35.5613 29.3693 35.6921 29.5008C35.8229 29.6313 36.0002 29.7046 36.1851 29.7046H44.2921C44.477 29.7046 44.6544 29.6313 44.7851 29.5008C44.9159 29.3693 44.9894 29.1927 44.9894 29.0069V20.9001C44.9894 20.7154 44.9159 20.5377 44.7851 20.4072C44.6544 20.2767 44.477 20.2035 44.2921 20.2035H36.1851Z" fill="#4169E1"/>
<path d="M61.6433 32.1368H53.5362C52.7077 32.1328 51.9142 31.8016 51.3281 31.2153C50.7422 30.6291 50.4111 29.8361 50.4069 29.0069V20.9001C50.4111 20.072 50.7422 19.2779 51.3281 18.6927C51.9142 18.1065 52.7077 17.7752 53.5362 17.7712H61.6433C62.4719 17.7752 63.2653 18.1065 63.8513 18.6927C64.4373 19.2779 64.7683 20.072 64.7726 20.9001V29.0069C64.7683 29.8361 64.4373 30.6291 63.8513 31.2153C63.2653 31.8016 62.4719 32.1328 61.6433 32.1368ZM53.5362 20.2035C53.3513 20.2035 53.1739 20.2767 53.0432 20.4072C52.9124 20.5377 52.839 20.7154 52.839 20.9001V29.0069C52.839 29.1927 52.9124 29.3693 53.0432 29.5008C53.1739 29.6313 53.3513 29.7046 53.5362 29.7046H61.6433C61.8283 29.7046 62.0054 29.6313 62.1363 29.5008C62.267 29.3693 62.3404 29.1927 62.3404 29.0069V20.9001C62.3404 20.7154 62.267 20.5377 62.1363 20.4072C62.0054 20.2767 61.8283 20.2035 61.6433 20.2035H53.5362Z" fill="#4169E1"/>
<path d="M44.2921 48.9036H36.1851C35.3564 48.8996 34.563 48.5683 33.9771 47.9821C33.3911 47.3959 33.06 46.6029 33.0558 45.7747V37.6669C33.06 36.8387 33.3911 36.0447 33.9771 35.4595C34.563 34.8732 35.3564 34.542 36.1851 34.538H44.2921C45.1208 34.542 45.9142 34.8732 46.5001 35.4595C47.0861 36.0447 47.4172 36.8387 47.4214 37.6669V45.7747C47.4172 46.6029 47.0861 47.3959 46.5001 47.9821C45.9142 48.5683 45.1208 48.8996 44.2921 48.9036ZM36.1851 36.9702C36.0002 36.9702 35.8229 37.0435 35.6921 37.174C35.5613 37.3045 35.4879 37.4822 35.4879 37.6669V45.7747C35.492 45.9574 35.5668 46.1331 35.6966 46.2626C35.8265 46.3921 36.0015 46.4673 36.1851 46.4714H44.2921C44.477 46.4714 44.6544 46.3981 44.7851 46.2676C44.9159 46.1361 44.9894 45.9594 44.9894 45.7747V37.6669C44.9894 37.4822 44.9159 37.3045 44.7851 37.174C44.6544 37.0435 44.477 36.9702 44.2921 36.9702H36.1851Z" fill="#4169E1"/>
<path d="M61.6433 48.9036H53.5362C52.7077 48.8996 51.9142 48.5683 51.3281 47.9821C50.7422 47.3959 50.4111 46.6029 50.4069 45.7747V37.6669C50.4111 36.8387 50.7422 36.0447 51.3281 35.4595C51.9142 34.8732 52.7077 34.542 53.5362 34.538H61.6433C62.4719 34.542 63.2653 34.8732 63.8513 35.4595C64.4373 36.0447 64.7683 36.8387 64.7726 37.6669V45.7747C64.7683 46.6029 64.4373 47.3959 63.8513 47.9821C63.2653 48.5683 62.4719 48.8996 61.6433 48.9036ZM53.5362 36.9702C53.3513 36.9702 53.1739 37.0435 53.0432 37.174C52.9124 37.3045 52.839 37.4822 52.839 37.6669V45.7747C52.839 45.9594 52.9124 46.1361 53.0432 46.2676C53.1739 46.3981 53.3513 46.4714 53.5362 46.4714H61.6433C61.8283 46.4714 62.0054 46.3981 62.1363 46.2676C62.267 46.1361 62.3404 45.9594 62.3404 45.7747V37.6669C62.3404 37.4822 62.267 37.3045 62.1363 37.174C62.0054 37.0435 61.8283 36.9702 61.6433 36.9702H53.5362Z" fill="#4169E1"/>
</svg>
