<svg width="33" height="33" viewBox="0 0 33 33" fill="none" xmlns="http://www.w3.org/2000/svg">
<path d="M16.5 0C7.40685 0 0 7.40685 0 16.5C0 25.5932 7.40685 33 16.5 33C25.5932 33 33 25.5932 33 16.5C33 7.40685 25.5932 0 16.5 0ZM16.5 3.3C23.8097 3.3 29.7 9.1903 29.7 16.5C29.7 23.1239 24.8578 28.5665 18.5109 29.5324V20.4349H22.3523L22.955 16.5322H18.5109V14.3988C18.5109 12.7769 19.0393 11.3373 20.5573 11.3373H22.9937V7.93096C22.5647 7.87321 21.6593 7.74727 19.9482 7.74727C16.3743 7.74727 14.2796 9.63487 14.2796 13.9348V16.5322H10.6058V20.4349H14.2796V29.5002C8.03598 28.4474 3.3 23.0509 3.3 16.5C3.3 9.1903 9.1903 3.3 16.5 3.3Z" fill="#4169E1"/>
</svg>
