<svg width="13" height="13" viewBox="0 0 13 13" fill="none" xmlns="http://www.w3.org/2000/svg">
<path d="M3.1287 1.57272C3.1287 1.99657 2.97533 2.36186 2.6686 2.6686C2.36186 2.97533 1.99657 3.1287 1.57272 3.1287C1.13771 3.1287 0.766838 2.97533 0.460103 2.6686C0.153368 2.36186 0 1.99657 0 1.57272C0 1.13771 0.153368 0.766838 0.460103 0.460103C0.766838 0.153368 1.13771 0 1.57272 0C1.99657 0 2.36186 0.153368 2.6686 0.460103C2.97533 0.766838 3.1287 1.13771 3.1287 1.57272ZM4.60103 4.3166V12.9833H7.29472V8.70013C7.29472 8.13127 7.38953 7.61819 7.57915 7.16088C7.76877 6.70356 8.20935 6.4749 8.9009 6.4749C9.59245 6.4749 9.99957 6.73145 10.1223 7.24453C10.245 7.75761 10.3063 8.26512 10.3063 8.76705V12.9833H13V8.23166C13 7.06049 12.802 6.07894 12.406 5.287C12.0101 4.49507 11.1317 4.0991 9.77091 4.0991C9.11283 4.0991 8.56907 4.24689 8.13964 4.54247C7.71021 4.83805 7.40626 5.15873 7.2278 5.5045H7.17761V4.3166H4.60103ZM0.217503 4.3166H2.9112V12.9833H0.217503V4.3166Z" fill="#D9D9D9"/>
</svg>
