<svg width="12" height="13" viewBox="0 0 12 13" fill="none" xmlns="http://www.w3.org/2000/svg">
<path d="M6 2.92188C5.57292 2.92188 5.17188 3 4.79688 3.15625C4.42188 3.32292 4.09635 3.54427 3.82031 3.82031C3.54427 4.09635 3.32292 4.42188 3.15625 4.79688C3 5.17188 2.92188 5.57292 2.92188 6C2.92188 6.42708 3 6.82812 3.15625 7.20312C3.32292 7.57812 3.54427 7.90365 3.82031 8.17969C4.09635 8.45573 4.42188 8.67708 4.79688 8.84375C5.17188 9 5.57292 9.07812 6 9.07812C6.42708 9.07812 6.82812 9 7.20312 8.84375C7.57812 8.67708 7.90365 8.45573 8.17969 8.17969C8.45573 7.90365 8.67708 7.57812 8.84375 7.20312C9 6.82812 9.07812 6.42708 9.07812 6C9.07812 5.57292 9 5.17188 8.84375 4.79688C8.67708 4.42188 8.45573 4.09635 8.17969 3.82031C7.90365 3.54427 7.57812 3.32292 7.20312 3.15625C6.82812 3 6.42708 2.92188 6 2.92188ZM6 8C5.44792 8 4.97656 7.80469 4.58594 7.41406C4.19531 7.02344 4 6.55208 4 6C4 5.44792 4.19531 4.97656 4.58594 4.58594C4.97656 4.19531 5.44792 4 6 4C6.55208 4 7.02344 4.19531 7.41406 4.58594C7.80469 4.97656 8 5.44792 8 6C8 6.55208 7.80469 7.02344 7.41406 7.41406C7.02344 7.80469 6.55208 8 6 8ZM9.92188 2.79688C9.92188 3.00521 9.85156 3.17708 9.71094 3.3125C9.57031 3.44792 9.40104 3.51562 9.20312 3.51562C9.00521 3.51562 8.83594 3.44792 8.69531 3.3125C8.55469 3.17708 8.48438 3.00521 8.48438 2.79688C8.48438 2.59896 8.55469 2.43229 8.69531 2.29688C8.83594 2.16146 9.00521 2.09375 9.20312 2.09375C9.40104 2.09375 9.57031 2.16146 9.71094 2.29688C9.85156 2.43229 9.92188 2.59896 9.92188 2.79688ZM11.6875 2.07812C11.5312 1.67188 11.3021 1.31771 11 1.01562C10.6979 0.713542 10.349 0.484375 9.95312 0.328125L9.9375 0.3125C9.71875 0.229167 9.48698 0.164062 9.24219 0.117188C8.9974 0.0703125 8.74479 0.046875 8.48438 0.046875H8.46875C8.15625 0.026042 7.86979 0.0130205 7.60938 0.0078125C7.34896 0.00260448 6.8125 0 6 0C5.1875 0 4.65104 0.00260448 4.39062 0.0078125C4.13021 0.0130205 3.84375 0.026042 3.53125 0.046875C3.27083 0.046875 3.01562 0.072917 2.76562 0.125C2.51562 0.177083 2.27604 0.244792 2.04688 0.328125L2.07812 0.3125C1.67188 0.479167 1.31771 0.713542 1.01562 1.01562C0.713542 1.31771 0.484375 1.66146 0.328125 2.04688L0.3125 2.07812C0.229167 2.28646 0.164062 2.51562 0.117188 2.76562C0.0703125 3.01562 0.0416667 3.27083 0.03125 3.53125C0.0208333 3.85417 0.0130208 4.14323 0.0078125 4.39844C0.00260417 4.65365 0 5.1875 0 6C0 6.8125 0.00260417 7.34896 0.0078125 7.60938C0.0130208 7.86979 0.0208333 8.16146 0.03125 8.48438C0.0416667 8.73438 0.0703125 8.97917 0.117188 9.21875C0.164062 9.45833 0.229167 9.69792 0.3125 9.9375C0.479167 10.3438 0.713542 10.6979 1.01562 11C1.31771 11.3021 1.66146 11.5312 2.04688 11.6875H2.07812C2.28646 11.7812 2.51302 11.8542 2.75781 11.9062C3.0026 11.9583 3.25521 11.9844 3.51562 11.9844H3.53125C3.85417 12.0052 4.14323 12.0182 4.39844 12.0234C4.65365 12.0286 5.1875 12.0312 6 12.0312C6.8125 12.0312 7.34896 12.0286 7.60938 12.0234C7.86979 12.0182 8.16146 12.0052 8.48438 11.9844C8.74479 11.9844 9 11.9583 9.25 11.9062C9.5 11.8542 9.73958 11.7865 9.96875 11.7031L9.9375 11.7188C10.3438 11.5521 10.6979 11.3177 11 11.0156C11.3021 10.7135 11.5312 10.3698 11.6875 9.98438V9.95312C11.7812 9.72396 11.8516 9.48698 11.8984 9.24219C11.9453 8.9974 11.9688 8.75 11.9688 8.5C11.9792 8.17708 11.987 7.88802 11.9922 7.63281C11.9974 7.3776 12 6.84375 12 6.03125C12 5.20833 12 4.66927 12 4.41406C12 4.15885 11.9896 3.86979 11.9688 3.54688C11.9688 3.28646 11.9427 3.02865 11.8906 2.77344C11.8385 2.51823 11.7656 2.27604 11.6719 2.04688L11.6875 2.07812ZM10.875 8.42188C10.875 8.63021 10.8568 8.83073 10.8203 9.02344C10.7839 9.21615 10.7292 9.40104 10.6562 9.57812L10.6719 9.54688C10.5677 9.81771 10.4167 10.0495 10.2188 10.2422C10.0208 10.4349 9.79688 10.5833 9.54688 10.6875H9.53125C9.36458 10.7604 9.1875 10.8125 9 10.8438C8.8125 10.875 8.61979 10.8958 8.42188 10.9062C8.09896 10.9167 7.8151 10.9245 7.57031 10.9297C7.32552 10.9349 6.79688 10.9375 5.98438 10.9375C5.17188 10.9375 4.64323 10.9349 4.39844 10.9297C4.15365 10.9245 3.86979 10.9167 3.54688 10.9062C3.33854 10.8958 3.14062 10.8724 2.95312 10.8359C2.76562 10.7995 2.58333 10.75 2.40625 10.6875H2.42188C2.16146 10.5938 1.93229 10.4479 1.73438 10.25C1.53646 10.0521 1.38542 9.82292 1.28125 9.5625V9.54688C1.21875 9.39062 1.16927 9.21875 1.13281 9.03125C1.09635 8.84375 1.07812 8.64583 1.07812 8.4375C1.05729 8.125 1.04688 7.84375 1.04688 7.59375C1.04688 7.34375 1.04688 6.8125 1.04688 6C1.04688 5.1875 1.04688 4.65885 1.04688 4.41406C1.04688 4.16927 1.05729 3.88542 1.07812 3.5625C1.07812 3.36458 1.09635 3.16927 1.13281 2.97656C1.16927 2.78385 1.22396 2.59896 1.29688 2.42188L1.28125 2.4375C1.38542 2.17708 1.53646 1.94792 1.73438 1.75C1.93229 1.55208 2.16146 1.40104 2.42188 1.29688C2.58854 1.23438 2.76562 1.1849 2.95312 1.14844C3.14062 1.11198 3.33854 1.09375 3.54688 1.09375C3.85938 1.08333 4.14062 1.07552 4.39062 1.07031C4.64062 1.0651 5.17188 1.0625 5.98438 1.0625C6.79688 1.0625 7.32552 1.0625 7.57031 1.0625C7.8151 1.0625 8.09896 1.07292 8.42188 1.09375C8.61979 1.09375 8.8125 1.11198 9 1.14844C9.1875 1.1849 9.36979 1.23958 9.54688 1.3125L9.53125 1.29688C9.79167 1.40104 10.0208 1.55208 10.2188 1.75C10.4167 1.94792 10.5677 2.17708 10.6719 2.4375C10.7344 2.60417 10.7839 2.78125 10.8203 2.96875C10.8568 3.15625 10.875 3.34896 10.875 3.54688V3.5625C10.8854 3.875 10.8932 4.15625 10.8984 4.40625C10.9036 4.65625 10.9062 5.1875 10.9062 6C10.9062 6.8125 10.9062 7.34115 10.9062 7.58594C10.9062 7.83073 10.901 8.10938 10.8906 8.42188H10.875Z" fill="#D9D9D9"/>
</svg>
